<?xml version="1.0" encoding="utf-8" standalone="no"?>
<!DOCTYPE svg PUBLIC "-//W3C//DTD SVG 1.1//EN"
  "http://www.w3.org/Graphics/SVG/1.1/DTD/svg11.dtd">
<svg xmlns:xlink="http://www.w3.org/1999/xlink" width="568.468125pt" height="279.034375pt" viewBox="0 0 568.468125 279.034375" xmlns="http://www.w3.org/2000/svg" version="1.1">
 <metadata>
  <rdf:RDF xmlns:dc="http://purl.org/dc/elements/1.1/" xmlns:cc="http://creativecommons.org/ns#" xmlns:rdf="http://www.w3.org/1999/02/22-rdf-syntax-ns#">
   <cc:Work>
    <dc:type rdf:resource="http://purl.org/dc/dcmitype/StillImage"/>
    <dc:date>2024-12-09T23:36:53.019420</dc:date>
    <dc:format>image/svg+xml</dc:format>
    <dc:creator>
     <cc:Agent>
      <dc:title>Matplotlib v3.8.0, https://matplotlib.org/</dc:title>
     </cc:Agent>
    </dc:creator>
   </cc:Work>
  </rdf:RDF>
 </metadata>
 <defs>
  <style type="text/css">*{stroke-linejoin: round; stroke-linecap: butt}</style>
 </defs>
 <g id="figure_1">
  <g id="patch_1">
   <path d="M 0 279.034375 
L 568.468125 279.034375 
L 568.468125 0 
L 0 0 
z
" style="fill: #ffffff"/>
  </g>
  <g id="axes_1">
   <g id="patch_2">
    <path d="M 53.328125 241.478125 
L 280.288125 241.478125 
L 280.288125 22.318125 
L 53.328125 22.318125 
z
" style="fill: #ffffff"/>
   </g>
   <g id="patch_3">
    <path d="M 63.644489 241.478125 
L 67.771034 241.478125 
L 67.771034 241.212235 
L 63.644489 241.212235 
z
" clip-path="url(#pa0556ed463)" style="fill: #008000; opacity: 0.7"/>
   </g>
   <g id="patch_4">
    <path d="M 67.771034 241.478125 
L 71.89758 241.478125 
L 71.89758 241.478125 
L 67.771034 241.478125 
z
" clip-path="url(#pa0556ed463)" style="fill: #008000; opacity: 0.7"/>
   </g>
   <g id="patch_5">
    <path d="M 71.89758 241.478125 
L 76.024125 241.478125 
L 76.024125 241.478125 
L 71.89758 241.478125 
z
" clip-path="url(#pa0556ed463)" style="fill: #008000; opacity: 0.7"/>
   </g>
   <g id="patch_6">
    <path d="M 76.024125 241.478125 
L 80.15067 241.478125 
L 80.15067 241.478125 
L 76.024125 241.478125 
z
" clip-path="url(#pa0556ed463)" style="fill: #008000; opacity: 0.7"/>
   </g>
   <g id="patch_7">
    <path d="M 80.15067 241.478125 
L 84.277216 241.478125 
L 84.277216 241.478125 
L 80.15067 241.478125 
z
" clip-path="url(#pa0556ed463)" style="fill: #008000; opacity: 0.7"/>
   </g>
   <g id="patch_8">
    <path d="M 84.277216 241.478125 
L 88.403761 241.478125 
L 88.403761 241.478125 
L 84.277216 241.478125 
z
" clip-path="url(#pa0556ed463)" style="fill: #008000; opacity: 0.7"/>
   </g>
   <g id="patch_9">
    <path d="M 88.403761 241.478125 
L 92.530307 241.478125 
L 92.530307 241.212235 
L 88.403761 241.212235 
z
" clip-path="url(#pa0556ed463)" style="fill: #008000; opacity: 0.7"/>
   </g>
   <g id="patch_10">
    <path d="M 92.530307 241.478125 
L 96.656852 241.478125 
L 96.656852 241.478125 
L 92.530307 241.478125 
z
" clip-path="url(#pa0556ed463)" style="fill: #008000; opacity: 0.7"/>
   </g>
   <g id="patch_11">
    <path d="M 96.656852 241.478125 
L 100.783398 241.478125 
L 100.783398 240.946345 
L 96.656852 240.946345 
z
" clip-path="url(#pa0556ed463)" style="fill: #008000; opacity: 0.7"/>
   </g>
   <g id="patch_12">
    <path d="M 100.783398 241.478125 
L 104.909943 241.478125 
L 104.909943 240.414564 
L 100.783398 240.414564 
z
" clip-path="url(#pa0556ed463)" style="fill: #008000; opacity: 0.7"/>
   </g>
   <g id="patch_13">
    <path d="M 104.909943 241.478125 
L 109.036489 241.478125 
L 109.036489 239.616894 
L 104.909943 239.616894 
z
" clip-path="url(#pa0556ed463)" style="fill: #008000; opacity: 0.7"/>
   </g>
   <g id="patch_14">
    <path d="M 109.036489 241.478125 
L 113.163034 241.478125 
L 113.163034 236.957992 
L 109.036489 236.957992 
z
" clip-path="url(#pa0556ed463)" style="fill: #008000; opacity: 0.7"/>
   </g>
   <g id="patch_15">
    <path d="M 113.163034 241.478125 
L 117.28958 241.478125 
L 117.28958 234.033199 
L 113.163034 234.033199 
z
" clip-path="url(#pa0556ed463)" style="fill: #008000; opacity: 0.7"/>
   </g>
   <g id="patch_16">
    <path d="M 117.28958 241.478125 
L 121.416125 241.478125 
L 121.416125 230.310736 
L 117.28958 230.310736 
z
" clip-path="url(#pa0556ed463)" style="fill: #008000; opacity: 0.7"/>
   </g>
   <g id="patch_17">
    <path d="M 121.416125 241.478125 
L 125.54267 241.478125 
L 125.54267 221.53636 
L 121.416125 221.53636 
z
" clip-path="url(#pa0556ed463)" style="fill: #008000; opacity: 0.7"/>
   </g>
   <g id="patch_18">
    <path d="M 125.54267 241.478125 
L 129.669216 241.478125 
L 129.669216 211.964312 
L 125.54267 211.964312 
z
" clip-path="url(#pa0556ed463)" style="fill: #008000; opacity: 0.7"/>
   </g>
   <g id="patch_19">
    <path d="M 129.669216 241.478125 
L 133.795761 241.478125 
L 133.795761 196.542681 
L 129.669216 196.542681 
z
" clip-path="url(#pa0556ed463)" style="fill: #008000; opacity: 0.7"/>
   </g>
   <g id="patch_20">
    <path d="M 133.795761 241.478125 
L 137.922307 241.478125 
L 137.922307 174.207904 
L 133.795761 174.207904 
z
" clip-path="url(#pa0556ed463)" style="fill: #008000; opacity: 0.7"/>
   </g>
   <g id="patch_21">
    <path d="M 137.922307 241.478125 
L 142.048852 241.478125 
L 142.048852 157.988601 
L 137.922307 157.988601 
z
" clip-path="url(#pa0556ed463)" style="fill: #008000; opacity: 0.7"/>
   </g>
   <g id="patch_22">
    <path d="M 142.048852 241.478125 
L 146.175398 241.478125 
L 146.175398 131.665471 
L 142.048852 131.665471 
z
" clip-path="url(#pa0556ed463)" style="fill: #008000; opacity: 0.7"/>
   </g>
   <g id="patch_23">
    <path d="M 146.175398 241.478125 
L 150.301943 241.478125 
L 150.301943 161.312229 
L 146.175398 161.312229 
z
" clip-path="url(#pa0556ed463)" style="fill: #008000; opacity: 0.7"/>
   </g>
   <g id="patch_24">
    <path d="M 150.301943 241.478125 
L 154.428489 241.478125 
L 154.428489 162.90757 
L 150.301943 162.90757 
z
" clip-path="url(#pa0556ed463)" style="fill: #008000; opacity: 0.7"/>
   </g>
   <g id="patch_25">
    <path d="M 154.428489 241.478125 
L 158.555034 241.478125 
L 158.555034 146.023542 
L 154.428489 146.023542 
z
" clip-path="url(#pa0556ed463)" style="fill: #008000; opacity: 0.7"/>
   </g>
   <g id="patch_26">
    <path d="M 158.555034 241.478125 
L 162.68158 241.478125 
L 162.68158 139.376287 
L 158.555034 139.376287 
z
" clip-path="url(#pa0556ed463)" style="fill: #008000; opacity: 0.7"/>
   </g>
   <g id="patch_27">
    <path d="M 162.68158 241.478125 
L 166.808125 241.478125 
L 166.808125 137.780946 
L 162.68158 137.780946 
z
" clip-path="url(#pa0556ed463)" style="fill: #008000; opacity: 0.7"/>
   </g>
   <g id="patch_28">
    <path d="M 166.808125 241.478125 
L 170.93467 241.478125 
L 170.93467 137.11622 
L 166.808125 137.11622 
z
" clip-path="url(#pa0556ed463)" style="fill: #008000; opacity: 0.7"/>
   </g>
   <g id="patch_29">
    <path d="M 170.93467 241.478125 
L 175.061216 241.478125 
L 175.061216 142.83286 
L 170.93467 142.83286 
z
" clip-path="url(#pa0556ed463)" style="fill: #008000; opacity: 0.7"/>
   </g>
   <g id="patch_30">
    <path d="M 175.061216 241.478125 
L 179.187761 241.478125 
L 179.187761 148.150664 
L 175.061216 148.150664 
z
" clip-path="url(#pa0556ed463)" style="fill: #008000; opacity: 0.7"/>
   </g>
   <g id="patch_31">
    <path d="M 179.187761 241.478125 
L 183.314307 241.478125 
L 183.314307 163.306405 
L 179.187761 163.306405 
z
" clip-path="url(#pa0556ed463)" style="fill: #008000; opacity: 0.7"/>
   </g>
   <g id="patch_32">
    <path d="M 183.314307 241.478125 
L 187.440852 241.478125 
L 187.440852 159.450997 
L 183.314307 159.450997 
z
" clip-path="url(#pa0556ed463)" style="fill: #008000; opacity: 0.7"/>
   </g>
   <g id="patch_33">
    <path d="M 187.440852 241.478125 
L 191.567398 241.478125 
L 191.567398 133.260812 
L 187.440852 133.260812 
z
" clip-path="url(#pa0556ed463)" style="fill: #008000; opacity: 0.7"/>
   </g>
   <g id="patch_34">
    <path d="M 191.567398 241.478125 
L 195.693943 241.478125 
L 195.693943 152.670797 
L 191.567398 152.670797 
z
" clip-path="url(#pa0556ed463)" style="fill: #008000; opacity: 0.7"/>
   </g>
   <g id="patch_35">
    <path d="M 195.693943 241.478125 
L 199.820489 241.478125 
L 199.820489 181.652829 
L 195.693943 181.652829 
z
" clip-path="url(#pa0556ed463)" style="fill: #008000; opacity: 0.7"/>
   </g>
   <g id="patch_36">
    <path d="M 199.820489 241.478125 
L 203.947034 241.478125 
L 203.947034 197.074461 
L 199.820489 197.074461 
z
" clip-path="url(#pa0556ed463)" style="fill: #008000; opacity: 0.7"/>
   </g>
   <g id="patch_37">
    <path d="M 203.947034 241.478125 
L 208.07358 241.478125 
L 208.07358 211.698422 
L 203.947034 211.698422 
z
" clip-path="url(#pa0556ed463)" style="fill: #008000; opacity: 0.7"/>
   </g>
   <g id="patch_38">
    <path d="M 208.07358 241.478125 
L 212.200125 241.478125 
L 212.200125 222.06814 
L 208.07358 222.06814 
z
" clip-path="url(#pa0556ed463)" style="fill: #008000; opacity: 0.7"/>
   </g>
   <g id="patch_39">
    <path d="M 212.200125 241.478125 
L 216.32667 241.478125 
L 216.32667 228.183615 
L 212.200125 228.183615 
z
" clip-path="url(#pa0556ed463)" style="fill: #008000; opacity: 0.7"/>
   </g>
   <g id="patch_40">
    <path d="M 216.32667 241.478125 
L 220.453216 241.478125 
L 220.453216 234.033199 
L 216.32667 234.033199 
z
" clip-path="url(#pa0556ed463)" style="fill: #008000; opacity: 0.7"/>
   </g>
   <g id="patch_41">
    <path d="M 220.453216 241.478125 
L 224.579761 241.478125 
L 224.579761 237.489772 
L 220.453216 237.489772 
z
" clip-path="url(#pa0556ed463)" style="fill: #008000; opacity: 0.7"/>
   </g>
   <g id="patch_42">
    <path d="M 224.579761 241.478125 
L 228.706307 241.478125 
L 228.706307 239.882784 
L 224.579761 239.882784 
z
" clip-path="url(#pa0556ed463)" style="fill: #008000; opacity: 0.7"/>
   </g>
   <g id="patch_43">
    <path d="M 228.706307 241.478125 
L 232.832852 241.478125 
L 232.832852 240.148674 
L 228.706307 240.148674 
z
" clip-path="url(#pa0556ed463)" style="fill: #008000; opacity: 0.7"/>
   </g>
   <g id="patch_44">
    <path d="M 232.832852 241.478125 
L 236.959398 241.478125 
L 236.959398 241.478125 
L 232.832852 241.478125 
z
" clip-path="url(#pa0556ed463)" style="fill: #008000; opacity: 0.7"/>
   </g>
   <g id="patch_45">
    <path d="M 236.959398 241.478125 
L 241.085943 241.478125 
L 241.085943 241.478125 
L 236.959398 241.478125 
z
" clip-path="url(#pa0556ed463)" style="fill: #008000; opacity: 0.7"/>
   </g>
   <g id="patch_46">
    <path d="M 241.085943 241.478125 
L 245.212489 241.478125 
L 245.212489 241.478125 
L 241.085943 241.478125 
z
" clip-path="url(#pa0556ed463)" style="fill: #008000; opacity: 0.7"/>
   </g>
   <g id="patch_47">
    <path d="M 245.212489 241.478125 
L 249.339034 241.478125 
L 249.339034 241.478125 
L 245.212489 241.478125 
z
" clip-path="url(#pa0556ed463)" style="fill: #008000; opacity: 0.7"/>
   </g>
   <g id="patch_48">
    <path d="M 249.339034 241.478125 
L 253.46558 241.478125 
L 253.46558 241.478125 
L 249.339034 241.478125 
z
" clip-path="url(#pa0556ed463)" style="fill: #008000; opacity: 0.7"/>
   </g>
   <g id="patch_49">
    <path d="M 253.46558 241.478125 
L 257.592125 241.478125 
L 257.592125 241.478125 
L 253.46558 241.478125 
z
" clip-path="url(#pa0556ed463)" style="fill: #008000; opacity: 0.7"/>
   </g>
   <g id="patch_50">
    <path d="M 257.592125 241.478125 
L 261.71867 241.478125 
L 261.71867 241.478125 
L 257.592125 241.478125 
z
" clip-path="url(#pa0556ed463)" style="fill: #008000; opacity: 0.7"/>
   </g>
   <g id="patch_51">
    <path d="M 261.71867 241.478125 
L 265.845216 241.478125 
L 265.845216 241.478125 
L 261.71867 241.478125 
z
" clip-path="url(#pa0556ed463)" style="fill: #008000; opacity: 0.7"/>
   </g>
   <g id="patch_52">
    <path d="M 265.845216 241.478125 
L 269.971761 241.478125 
L 269.971761 241.212235 
L 265.845216 241.212235 
z
" clip-path="url(#pa0556ed463)" style="fill: #008000; opacity: 0.7"/>
   </g>
   <g id="patch_53">
    <path d="M 63.644489 241.478125 
L 67.771034 241.478125 
L 67.771034 241.212235 
L 63.644489 241.212235 
z
" clip-path="url(#pa0556ed463)" style="fill: #ff0000; opacity: 0.7"/>
   </g>
   <g id="patch_54">
    <path d="M 67.771034 241.478125 
L 71.89758 241.478125 
L 71.89758 241.478125 
L 67.771034 241.478125 
z
" clip-path="url(#pa0556ed463)" style="fill: #ff0000; opacity: 0.7"/>
   </g>
   <g id="patch_55">
    <path d="M 71.89758 241.478125 
L 76.024125 241.478125 
L 76.024125 241.478125 
L 71.89758 241.478125 
z
" clip-path="url(#pa0556ed463)" style="fill: #ff0000; opacity: 0.7"/>
   </g>
   <g id="patch_56">
    <path d="M 76.024125 241.478125 
L 80.15067 241.478125 
L 80.15067 241.478125 
L 76.024125 241.478125 
z
" clip-path="url(#pa0556ed463)" style="fill: #ff0000; opacity: 0.7"/>
   </g>
   <g id="patch_57">
    <path d="M 80.15067 241.478125 
L 84.277216 241.478125 
L 84.277216 241.478125 
L 80.15067 241.478125 
z
" clip-path="url(#pa0556ed463)" style="fill: #ff0000; opacity: 0.7"/>
   </g>
   <g id="patch_58">
    <path d="M 84.277216 241.478125 
L 88.403761 241.478125 
L 88.403761 241.478125 
L 84.277216 241.478125 
z
" clip-path="url(#pa0556ed463)" style="fill: #ff0000; opacity: 0.7"/>
   </g>
   <g id="patch_59">
    <path d="M 88.403761 241.478125 
L 92.530307 241.478125 
L 92.530307 241.212235 
L 88.403761 241.212235 
z
" clip-path="url(#pa0556ed463)" style="fill: #ff0000; opacity: 0.7"/>
   </g>
   <g id="patch_60">
    <path d="M 92.530307 241.478125 
L 96.656852 241.478125 
L 96.656852 241.478125 
L 92.530307 241.478125 
z
" clip-path="url(#pa0556ed463)" style="fill: #ff0000; opacity: 0.7"/>
   </g>
   <g id="patch_61">
    <path d="M 96.656852 241.478125 
L 100.783398 241.478125 
L 100.783398 240.946345 
L 96.656852 240.946345 
z
" clip-path="url(#pa0556ed463)" style="fill: #ff0000; opacity: 0.7"/>
   </g>
   <g id="patch_62">
    <path d="M 100.783398 241.478125 
L 104.909943 241.478125 
L 104.909943 240.414564 
L 100.783398 240.414564 
z
" clip-path="url(#pa0556ed463)" style="fill: #ff0000; opacity: 0.7"/>
   </g>
   <g id="patch_63">
    <path d="M 104.909943 241.478125 
L 109.036489 241.478125 
L 109.036489 239.616894 
L 104.909943 239.616894 
z
" clip-path="url(#pa0556ed463)" style="fill: #ff0000; opacity: 0.7"/>
   </g>
   <g id="patch_64">
    <path d="M 109.036489 241.478125 
L 113.163034 241.478125 
L 113.163034 236.957992 
L 109.036489 236.957992 
z
" clip-path="url(#pa0556ed463)" style="fill: #ff0000; opacity: 0.7"/>
   </g>
   <g id="patch_65">
    <path d="M 113.163034 241.478125 
L 117.28958 241.478125 
L 117.28958 234.033199 
L 113.163034 234.033199 
z
" clip-path="url(#pa0556ed463)" style="fill: #ff0000; opacity: 0.7"/>
   </g>
   <g id="patch_66">
    <path d="M 117.28958 241.478125 
L 121.416125 241.478125 
L 121.416125 230.310736 
L 117.28958 230.310736 
z
" clip-path="url(#pa0556ed463)" style="fill: #ff0000; opacity: 0.7"/>
   </g>
   <g id="patch_67">
    <path d="M 121.416125 241.478125 
L 125.54267 241.478125 
L 125.54267 221.53636 
L 121.416125 221.53636 
z
" clip-path="url(#pa0556ed463)" style="fill: #ff0000; opacity: 0.7"/>
   </g>
   <g id="patch_68">
    <path d="M 125.54267 241.478125 
L 129.669216 241.478125 
L 129.669216 211.964312 
L 125.54267 211.964312 
z
" clip-path="url(#pa0556ed463)" style="fill: #ff0000; opacity: 0.7"/>
   </g>
   <g id="patch_69">
    <path d="M 129.669216 241.478125 
L 133.795761 241.478125 
L 133.795761 196.542681 
L 129.669216 196.542681 
z
" clip-path="url(#pa0556ed463)" style="fill: #ff0000; opacity: 0.7"/>
   </g>
   <g id="patch_70">
    <path d="M 133.795761 241.478125 
L 137.922307 241.478125 
L 137.922307 174.207904 
L 133.795761 174.207904 
z
" clip-path="url(#pa0556ed463)" style="fill: #ff0000; opacity: 0.7"/>
   </g>
   <g id="patch_71">
    <path d="M 137.922307 241.478125 
L 142.048852 241.478125 
L 142.048852 157.988601 
L 137.922307 157.988601 
z
" clip-path="url(#pa0556ed463)" style="fill: #ff0000; opacity: 0.7"/>
   </g>
   <g id="patch_72">
    <path d="M 142.048852 241.478125 
L 146.175398 241.478125 
L 146.175398 131.665471 
L 142.048852 131.665471 
z
" clip-path="url(#pa0556ed463)" style="fill: #ff0000; opacity: 0.7"/>
   </g>
   <g id="patch_73">
    <path d="M 146.175398 241.478125 
L 150.301943 241.478125 
L 150.301943 108.533023 
L 146.175398 108.533023 
z
" clip-path="url(#pa0556ed463)" style="fill: #ff0000; opacity: 0.7"/>
   </g>
   <g id="patch_74">
    <path d="M 150.301943 241.478125 
L 154.428489 241.478125 
L 154.428489 84.337015 
L 150.301943 84.337015 
z
" clip-path="url(#pa0556ed463)" style="fill: #ff0000; opacity: 0.7"/>
   </g>
   <g id="patch_75">
    <path d="M 154.428489 241.478125 
L 158.555034 241.478125 
L 158.555034 50.568959 
L 154.428489 50.568959 
z
" clip-path="url(#pa0556ed463)" style="fill: #ff0000; opacity: 0.7"/>
   </g>
   <g id="patch_76">
    <path d="M 158.555034 241.478125 
L 162.68158 241.478125 
L 162.68158 37.274449 
L 158.555034 37.274449 
z
" clip-path="url(#pa0556ed463)" style="fill: #ff0000; opacity: 0.7"/>
   </g>
   <g id="patch_77">
    <path d="M 162.68158 241.478125 
L 166.808125 241.478125 
L 166.808125 34.083766 
L 162.68158 34.083766 
z
" clip-path="url(#pa0556ed463)" style="fill: #ff0000; opacity: 0.7"/>
   </g>
   <g id="patch_78">
    <path d="M 166.808125 241.478125 
L 170.93467 241.478125 
L 170.93467 32.754315 
L 166.808125 32.754315 
z
" clip-path="url(#pa0556ed463)" style="fill: #ff0000; opacity: 0.7"/>
   </g>
   <g id="patch_79">
    <path d="M 170.93467 241.478125 
L 175.061216 241.478125 
L 175.061216 44.187594 
L 170.93467 44.187594 
z
" clip-path="url(#pa0556ed463)" style="fill: #ff0000; opacity: 0.7"/>
   </g>
   <g id="patch_80">
    <path d="M 175.061216 241.478125 
L 179.187761 241.478125 
L 179.187761 54.823202 
L 175.061216 54.823202 
z
" clip-path="url(#pa0556ed463)" style="fill: #ff0000; opacity: 0.7"/>
   </g>
   <g id="patch_81">
    <path d="M 179.187761 241.478125 
L 183.314307 241.478125 
L 183.314307 85.134686 
L 179.187761 85.134686 
z
" clip-path="url(#pa0556ed463)" style="fill: #ff0000; opacity: 0.7"/>
   </g>
   <g id="patch_82">
    <path d="M 183.314307 241.478125 
L 187.440852 241.478125 
L 187.440852 101.088098 
L 183.314307 101.088098 
z
" clip-path="url(#pa0556ed463)" style="fill: #ff0000; opacity: 0.7"/>
   </g>
   <g id="patch_83">
    <path d="M 187.440852 241.478125 
L 191.567398 241.478125 
L 191.567398 133.260812 
L 187.440852 133.260812 
z
" clip-path="url(#pa0556ed463)" style="fill: #ff0000; opacity: 0.7"/>
   </g>
   <g id="patch_84">
    <path d="M 191.567398 241.478125 
L 195.693943 241.478125 
L 195.693943 152.670797 
L 191.567398 152.670797 
z
" clip-path="url(#pa0556ed463)" style="fill: #ff0000; opacity: 0.7"/>
   </g>
   <g id="patch_85">
    <path d="M 195.693943 241.478125 
L 199.820489 241.478125 
L 199.820489 181.652829 
L 195.693943 181.652829 
z
" clip-path="url(#pa0556ed463)" style="fill: #ff0000; opacity: 0.7"/>
   </g>
   <g id="patch_86">
    <path d="M 199.820489 241.478125 
L 203.947034 241.478125 
L 203.947034 197.074461 
L 199.820489 197.074461 
z
" clip-path="url(#pa0556ed463)" style="fill: #ff0000; opacity: 0.7"/>
   </g>
   <g id="patch_87">
    <path d="M 203.947034 241.478125 
L 208.07358 241.478125 
L 208.07358 211.698422 
L 203.947034 211.698422 
z
" clip-path="url(#pa0556ed463)" style="fill: #ff0000; opacity: 0.7"/>
   </g>
   <g id="patch_88">
    <path d="M 208.07358 241.478125 
L 212.200125 241.478125 
L 212.200125 222.06814 
L 208.07358 222.06814 
z
" clip-path="url(#pa0556ed463)" style="fill: #ff0000; opacity: 0.7"/>
   </g>
   <g id="patch_89">
    <path d="M 212.200125 241.478125 
L 216.32667 241.478125 
L 216.32667 228.183615 
L 212.200125 228.183615 
z
" clip-path="url(#pa0556ed463)" style="fill: #ff0000; opacity: 0.7"/>
   </g>
   <g id="patch_90">
    <path d="M 216.32667 241.478125 
L 220.453216 241.478125 
L 220.453216 234.033199 
L 216.32667 234.033199 
z
" clip-path="url(#pa0556ed463)" style="fill: #ff0000; opacity: 0.7"/>
   </g>
   <g id="patch_91">
    <path d="M 220.453216 241.478125 
L 224.579761 241.478125 
L 224.579761 237.489772 
L 220.453216 237.489772 
z
" clip-path="url(#pa0556ed463)" style="fill: #ff0000; opacity: 0.7"/>
   </g>
   <g id="patch_92">
    <path d="M 224.579761 241.478125 
L 228.706307 241.478125 
L 228.706307 239.882784 
L 224.579761 239.882784 
z
" clip-path="url(#pa0556ed463)" style="fill: #ff0000; opacity: 0.7"/>
   </g>
   <g id="patch_93">
    <path d="M 228.706307 241.478125 
L 232.832852 241.478125 
L 232.832852 240.148674 
L 228.706307 240.148674 
z
" clip-path="url(#pa0556ed463)" style="fill: #ff0000; opacity: 0.7"/>
   </g>
   <g id="patch_94">
    <path d="M 232.832852 241.478125 
L 236.959398 241.478125 
L 236.959398 241.478125 
L 232.832852 241.478125 
z
" clip-path="url(#pa0556ed463)" style="fill: #ff0000; opacity: 0.7"/>
   </g>
   <g id="patch_95">
    <path d="M 236.959398 241.478125 
L 241.085943 241.478125 
L 241.085943 241.478125 
L 236.959398 241.478125 
z
" clip-path="url(#pa0556ed463)" style="fill: #ff0000; opacity: 0.7"/>
   </g>
   <g id="patch_96">
    <path d="M 241.085943 241.478125 
L 245.212489 241.478125 
L 245.212489 241.478125 
L 241.085943 241.478125 
z
" clip-path="url(#pa0556ed463)" style="fill: #ff0000; opacity: 0.7"/>
   </g>
   <g id="patch_97">
    <path d="M 245.212489 241.478125 
L 249.339034 241.478125 
L 249.339034 241.478125 
L 245.212489 241.478125 
z
" clip-path="url(#pa0556ed463)" style="fill: #ff0000; opacity: 0.7"/>
   </g>
   <g id="patch_98">
    <path d="M 249.339034 241.478125 
L 253.46558 241.478125 
L 253.46558 241.478125 
L 249.339034 241.478125 
z
" clip-path="url(#pa0556ed463)" style="fill: #ff0000; opacity: 0.7"/>
   </g>
   <g id="patch_99">
    <path d="M 253.46558 241.478125 
L 257.592125 241.478125 
L 257.592125 241.478125 
L 253.46558 241.478125 
z
" clip-path="url(#pa0556ed463)" style="fill: #ff0000; opacity: 0.7"/>
   </g>
   <g id="patch_100">
    <path d="M 257.592125 241.478125 
L 261.71867 241.478125 
L 261.71867 241.478125 
L 257.592125 241.478125 
z
" clip-path="url(#pa0556ed463)" style="fill: #ff0000; opacity: 0.7"/>
   </g>
   <g id="patch_101">
    <path d="M 261.71867 241.478125 
L 265.845216 241.478125 
L 265.845216 241.478125 
L 261.71867 241.478125 
z
" clip-path="url(#pa0556ed463)" style="fill: #ff0000; opacity: 0.7"/>
   </g>
   <g id="patch_102">
    <path d="M 265.845216 241.478125 
L 269.971761 241.478125 
L 269.971761 241.212235 
L 265.845216 241.212235 
z
" clip-path="url(#pa0556ed463)" style="fill: #ff0000; opacity: 0.7"/>
   </g>
   <g id="matplotlib.axis_1">
    <g id="xtick_1">
     <g id="line2d_1">
      <defs>
       <path id="m4047d0a13e" d="M 0 0 
L 0 3.5 
" style="stroke: #000000; stroke-width: 0.8"/>
      </defs>
      <g>
       <use xlink:href="#m4047d0a13e" x="87.441371" y="241.478125" style="stroke: #000000; stroke-width: 0.8"/>
      </g>
     </g>
     <g id="text_1">
      <!-- −4 -->
      <g transform="translate(80.070278 256.076563) scale(0.1 -0.1)">
       <defs>
        <path id="DejaVuSans-2212" d="M 678 2272 
L 4684 2272 
L 4684 1741 
L 678 1741 
L 678 2272 
z
" transform="scale(0.015625)"/>
        <path id="DejaVuSans-34" d="M 2419 4116 
L 825 1625 
L 2419 1625 
L 2419 4116 
z
M 2253 4666 
L 3047 4666 
L 3047 1625 
L 3713 1625 
L 3713 1100 
L 3047 1100 
L 3047 0 
L 2419 0 
L 2419 1100 
L 313 1100 
L 313 1709 
L 2253 4666 
z
" transform="scale(0.015625)"/>
       </defs>
       <use xlink:href="#DejaVuSans-2212"/>
       <use xlink:href="#DejaVuSans-34" x="83.789062"/>
      </g>
     </g>
    </g>
    <g id="xtick_2">
     <g id="line2d_2">
      <g>
       <use xlink:href="#m4047d0a13e" x="127.124748" y="241.478125" style="stroke: #000000; stroke-width: 0.8"/>
      </g>
     </g>
     <g id="text_2">
      <!-- −2 -->
      <g transform="translate(119.753654 256.076563) scale(0.1 -0.1)">
       <defs>
        <path id="DejaVuSans-32" d="M 1228 531 
L 3431 531 
L 3431 0 
L 469 0 
L 469 531 
Q 828 903 1448 1529 
Q 2069 2156 2228 2338 
Q 2531 2678 2651 2914 
Q 2772 3150 2772 3378 
Q 2772 3750 2511 3984 
Q 2250 4219 1831 4219 
Q 1534 4219 1204 4116 
Q 875 4013 500 3803 
L 500 4441 
Q 881 4594 1212 4672 
Q 1544 4750 1819 4750 
Q 2544 4750 2975 4387 
Q 3406 4025 3406 3419 
Q 3406 3131 3298 2873 
Q 3191 2616 2906 2266 
Q 2828 2175 2409 1742 
Q 1991 1309 1228 531 
z
" transform="scale(0.015625)"/>
       </defs>
       <use xlink:href="#DejaVuSans-2212"/>
       <use xlink:href="#DejaVuSans-32" x="83.789062"/>
      </g>
     </g>
    </g>
    <g id="xtick_3">
     <g id="line2d_3">
      <g>
       <use xlink:href="#m4047d0a13e" x="166.808125" y="241.478125" style="stroke: #000000; stroke-width: 0.8"/>
      </g>
     </g>
     <g id="text_3">
      <!-- 0 -->
      <g transform="translate(163.626875 256.076563) scale(0.1 -0.1)">
       <defs>
        <path id="DejaVuSans-30" d="M 2034 4250 
Q 1547 4250 1301 3770 
Q 1056 3291 1056 2328 
Q 1056 1369 1301 889 
Q 1547 409 2034 409 
Q 2525 409 2770 889 
Q 3016 1369 3016 2328 
Q 3016 3291 2770 3770 
Q 2525 4250 2034 4250 
z
M 2034 4750 
Q 2819 4750 3233 4129 
Q 3647 3509 3647 2328 
Q 3647 1150 3233 529 
Q 2819 -91 2034 -91 
Q 1250 -91 836 529 
Q 422 1150 422 2328 
Q 422 3509 836 4129 
Q 1250 4750 2034 4750 
z
" transform="scale(0.015625)"/>
       </defs>
       <use xlink:href="#DejaVuSans-30"/>
      </g>
     </g>
    </g>
    <g id="xtick_4">
     <g id="line2d_4">
      <g>
       <use xlink:href="#m4047d0a13e" x="206.491502" y="241.478125" style="stroke: #000000; stroke-width: 0.8"/>
      </g>
     </g>
     <g id="text_4">
      <!-- 2 -->
      <g transform="translate(203.310252 256.076563) scale(0.1 -0.1)">
       <use xlink:href="#DejaVuSans-32"/>
      </g>
     </g>
    </g>
    <g id="xtick_5">
     <g id="line2d_5">
      <g>
       <use xlink:href="#m4047d0a13e" x="246.174879" y="241.478125" style="stroke: #000000; stroke-width: 0.8"/>
      </g>
     </g>
     <g id="text_5">
      <!-- 4 -->
      <g transform="translate(242.993629 256.076563) scale(0.1 -0.1)">
       <use xlink:href="#DejaVuSans-34"/>
      </g>
     </g>
    </g>
    <g id="text_6">
     <!-- log2fc Value -->
     <g transform="translate(136.174531 269.754687) scale(0.1 -0.1)">
      <defs>
       <path id="DejaVuSans-6c" d="M 603 4863 
L 1178 4863 
L 1178 0 
L 603 0 
L 603 4863 
z
" transform="scale(0.015625)"/>
       <path id="DejaVuSans-6f" d="M 1959 3097 
Q 1497 3097 1228 2736 
Q 959 2375 959 1747 
Q 959 1119 1226 758 
Q 1494 397 1959 397 
Q 2419 397 2687 759 
Q 2956 1122 2956 1747 
Q 2956 2369 2687 2733 
Q 2419 3097 1959 3097 
z
M 1959 3584 
Q 2709 3584 3137 3096 
Q 3566 2609 3566 1747 
Q 3566 888 3137 398 
Q 2709 -91 1959 -91 
Q 1206 -91 779 398 
Q 353 888 353 1747 
Q 353 2609 779 3096 
Q 1206 3584 1959 3584 
z
" transform="scale(0.015625)"/>
       <path id="DejaVuSans-67" d="M 2906 1791 
Q 2906 2416 2648 2759 
Q 2391 3103 1925 3103 
Q 1463 3103 1205 2759 
Q 947 2416 947 1791 
Q 947 1169 1205 825 
Q 1463 481 1925 481 
Q 2391 481 2648 825 
Q 2906 1169 2906 1791 
z
M 3481 434 
Q 3481 -459 3084 -895 
Q 2688 -1331 1869 -1331 
Q 1566 -1331 1297 -1286 
Q 1028 -1241 775 -1147 
L 775 -588 
Q 1028 -725 1275 -790 
Q 1522 -856 1778 -856 
Q 2344 -856 2625 -561 
Q 2906 -266 2906 331 
L 2906 616 
Q 2728 306 2450 153 
Q 2172 0 1784 0 
Q 1141 0 747 490 
Q 353 981 353 1791 
Q 353 2603 747 3093 
Q 1141 3584 1784 3584 
Q 2172 3584 2450 3431 
Q 2728 3278 2906 2969 
L 2906 3500 
L 3481 3500 
L 3481 434 
z
" transform="scale(0.015625)"/>
       <path id="DejaVuSans-66" d="M 2375 4863 
L 2375 4384 
L 1825 4384 
Q 1516 4384 1395 4259 
Q 1275 4134 1275 3809 
L 1275 3500 
L 2222 3500 
L 2222 3053 
L 1275 3053 
L 1275 0 
L 697 0 
L 697 3053 
L 147 3053 
L 147 3500 
L 697 3500 
L 697 3744 
Q 697 4328 969 4595 
Q 1241 4863 1831 4863 
L 2375 4863 
z
" transform="scale(0.015625)"/>
       <path id="DejaVuSans-63" d="M 3122 3366 
L 3122 2828 
Q 2878 2963 2633 3030 
Q 2388 3097 2138 3097 
Q 1578 3097 1268 2742 
Q 959 2388 959 1747 
Q 959 1106 1268 751 
Q 1578 397 2138 397 
Q 2388 397 2633 464 
Q 2878 531 3122 666 
L 3122 134 
Q 2881 22 2623 -34 
Q 2366 -91 2075 -91 
Q 1284 -91 818 406 
Q 353 903 353 1747 
Q 353 2603 823 3093 
Q 1294 3584 2113 3584 
Q 2378 3584 2631 3529 
Q 2884 3475 3122 3366 
z
" transform="scale(0.015625)"/>
       <path id="DejaVuSans-20" transform="scale(0.015625)"/>
       <path id="DejaVuSans-56" d="M 1831 0 
L 50 4666 
L 709 4666 
L 2188 738 
L 3669 4666 
L 4325 4666 
L 2547 0 
L 1831 0 
z
" transform="scale(0.015625)"/>
       <path id="DejaVuSans-61" d="M 2194 1759 
Q 1497 1759 1228 1600 
Q 959 1441 959 1056 
Q 959 750 1161 570 
Q 1363 391 1709 391 
Q 2188 391 2477 730 
Q 2766 1069 2766 1631 
L 2766 1759 
L 2194 1759 
z
M 3341 1997 
L 3341 0 
L 2766 0 
L 2766 531 
Q 2569 213 2275 61 
Q 1981 -91 1556 -91 
Q 1019 -91 701 211 
Q 384 513 384 1019 
Q 384 1609 779 1909 
Q 1175 2209 1959 2209 
L 2766 2209 
L 2766 2266 
Q 2766 2663 2505 2880 
Q 2244 3097 1772 3097 
Q 1472 3097 1187 3025 
Q 903 2953 641 2809 
L 641 3341 
Q 956 3463 1253 3523 
Q 1550 3584 1831 3584 
Q 2591 3584 2966 3190 
Q 3341 2797 3341 1997 
z
" transform="scale(0.015625)"/>
       <path id="DejaVuSans-75" d="M 544 1381 
L 544 3500 
L 1119 3500 
L 1119 1403 
Q 1119 906 1312 657 
Q 1506 409 1894 409 
Q 2359 409 2629 706 
Q 2900 1003 2900 1516 
L 2900 3500 
L 3475 3500 
L 3475 0 
L 2900 0 
L 2900 538 
Q 2691 219 2414 64 
Q 2138 -91 1772 -91 
Q 1169 -91 856 284 
Q 544 659 544 1381 
z
M 1991 3584 
L 1991 3584 
z
" transform="scale(0.015625)"/>
       <path id="DejaVuSans-65" d="M 3597 1894 
L 3597 1613 
L 953 1613 
Q 991 1019 1311 708 
Q 1631 397 2203 397 
Q 2534 397 2845 478 
Q 3156 559 3463 722 
L 3463 178 
Q 3153 47 2828 -22 
Q 2503 -91 2169 -91 
Q 1331 -91 842 396 
Q 353 884 353 1716 
Q 353 2575 817 3079 
Q 1281 3584 2069 3584 
Q 2775 3584 3186 3129 
Q 3597 2675 3597 1894 
z
M 3022 2063 
Q 3016 2534 2758 2815 
Q 2500 3097 2075 3097 
Q 1594 3097 1305 2825 
Q 1016 2553 972 2059 
L 3022 2063 
z
" transform="scale(0.015625)"/>
      </defs>
      <use xlink:href="#DejaVuSans-6c"/>
      <use xlink:href="#DejaVuSans-6f" x="27.783203"/>
      <use xlink:href="#DejaVuSans-67" x="88.964844"/>
      <use xlink:href="#DejaVuSans-32" x="152.441406"/>
      <use xlink:href="#DejaVuSans-66" x="216.064453"/>
      <use xlink:href="#DejaVuSans-63" x="251.269531"/>
      <use xlink:href="#DejaVuSans-20" x="306.25"/>
      <use xlink:href="#DejaVuSans-56" x="338.037109"/>
      <use xlink:href="#DejaVuSans-61" x="398.695312"/>
      <use xlink:href="#DejaVuSans-6c" x="459.974609"/>
      <use xlink:href="#DejaVuSans-75" x="487.757812"/>
      <use xlink:href="#DejaVuSans-65" x="551.136719"/>
     </g>
    </g>
   </g>
   <g id="matplotlib.axis_2">
    <g id="ytick_1">
     <g id="line2d_6">
      <defs>
       <path id="m609606647e" d="M 0 0 
L -3.5 0 
" style="stroke: #000000; stroke-width: 0.8"/>
      </defs>
      <g>
       <use xlink:href="#m609606647e" x="53.328125" y="241.478125" style="stroke: #000000; stroke-width: 0.8"/>
      </g>
     </g>
     <g id="text_7">
      <!-- 0 -->
      <g transform="translate(39.965625 245.277344) scale(0.1 -0.1)">
       <use xlink:href="#DejaVuSans-30"/>
      </g>
     </g>
    </g>
    <g id="ytick_2">
     <g id="line2d_7">
      <g>
       <use xlink:href="#m609606647e" x="53.328125" y="214.889105" style="stroke: #000000; stroke-width: 0.8"/>
      </g>
     </g>
     <g id="text_8">
      <!-- 200 -->
      <g transform="translate(27.240625 218.688323) scale(0.1 -0.1)">
       <use xlink:href="#DejaVuSans-32"/>
       <use xlink:href="#DejaVuSans-30" x="63.623047"/>
       <use xlink:href="#DejaVuSans-30" x="127.246094"/>
      </g>
     </g>
    </g>
    <g id="ytick_3">
     <g id="line2d_8">
      <g>
       <use xlink:href="#m609606647e" x="53.328125" y="188.300084" style="stroke: #000000; stroke-width: 0.8"/>
      </g>
     </g>
     <g id="text_9">
      <!-- 400 -->
      <g transform="translate(27.240625 192.099303) scale(0.1 -0.1)">
       <use xlink:href="#DejaVuSans-34"/>
       <use xlink:href="#DejaVuSans-30" x="63.623047"/>
       <use xlink:href="#DejaVuSans-30" x="127.246094"/>
      </g>
     </g>
    </g>
    <g id="ytick_4">
     <g id="line2d_9">
      <g>
       <use xlink:href="#m609606647e" x="53.328125" y="161.711064" style="stroke: #000000; stroke-width: 0.8"/>
      </g>
     </g>
     <g id="text_10">
      <!-- 600 -->
      <g transform="translate(27.240625 165.510283) scale(0.1 -0.1)">
       <defs>
        <path id="DejaVuSans-36" d="M 2113 2584 
Q 1688 2584 1439 2293 
Q 1191 2003 1191 1497 
Q 1191 994 1439 701 
Q 1688 409 2113 409 
Q 2538 409 2786 701 
Q 3034 994 3034 1497 
Q 3034 2003 2786 2293 
Q 2538 2584 2113 2584 
z
M 3366 4563 
L 3366 3988 
Q 3128 4100 2886 4159 
Q 2644 4219 2406 4219 
Q 1781 4219 1451 3797 
Q 1122 3375 1075 2522 
Q 1259 2794 1537 2939 
Q 1816 3084 2150 3084 
Q 2853 3084 3261 2657 
Q 3669 2231 3669 1497 
Q 3669 778 3244 343 
Q 2819 -91 2113 -91 
Q 1303 -91 875 529 
Q 447 1150 447 2328 
Q 447 3434 972 4092 
Q 1497 4750 2381 4750 
Q 2619 4750 2861 4703 
Q 3103 4656 3366 4563 
z
" transform="scale(0.015625)"/>
       </defs>
       <use xlink:href="#DejaVuSans-36"/>
       <use xlink:href="#DejaVuSans-30" x="63.623047"/>
       <use xlink:href="#DejaVuSans-30" x="127.246094"/>
      </g>
     </g>
    </g>
    <g id="ytick_5">
     <g id="line2d_10">
      <g>
       <use xlink:href="#m609606647e" x="53.328125" y="135.122044" style="stroke: #000000; stroke-width: 0.8"/>
      </g>
     </g>
     <g id="text_11">
      <!-- 800 -->
      <g transform="translate(27.240625 138.921262) scale(0.1 -0.1)">
       <defs>
        <path id="DejaVuSans-38" d="M 2034 2216 
Q 1584 2216 1326 1975 
Q 1069 1734 1069 1313 
Q 1069 891 1326 650 
Q 1584 409 2034 409 
Q 2484 409 2743 651 
Q 3003 894 3003 1313 
Q 3003 1734 2745 1975 
Q 2488 2216 2034 2216 
z
M 1403 2484 
Q 997 2584 770 2862 
Q 544 3141 544 3541 
Q 544 4100 942 4425 
Q 1341 4750 2034 4750 
Q 2731 4750 3128 4425 
Q 3525 4100 3525 3541 
Q 3525 3141 3298 2862 
Q 3072 2584 2669 2484 
Q 3125 2378 3379 2068 
Q 3634 1759 3634 1313 
Q 3634 634 3220 271 
Q 2806 -91 2034 -91 
Q 1263 -91 848 271 
Q 434 634 434 1313 
Q 434 1759 690 2068 
Q 947 2378 1403 2484 
z
M 1172 3481 
Q 1172 3119 1398 2916 
Q 1625 2713 2034 2713 
Q 2441 2713 2670 2916 
Q 2900 3119 2900 3481 
Q 2900 3844 2670 4047 
Q 2441 4250 2034 4250 
Q 1625 4250 1398 4047 
Q 1172 3844 1172 3481 
z
" transform="scale(0.015625)"/>
       </defs>
       <use xlink:href="#DejaVuSans-38"/>
       <use xlink:href="#DejaVuSans-30" x="63.623047"/>
       <use xlink:href="#DejaVuSans-30" x="127.246094"/>
      </g>
     </g>
    </g>
    <g id="ytick_6">
     <g id="line2d_11">
      <g>
       <use xlink:href="#m609606647e" x="53.328125" y="108.533023" style="stroke: #000000; stroke-width: 0.8"/>
      </g>
     </g>
     <g id="text_12">
      <!-- 1000 -->
      <g transform="translate(20.878125 112.332242) scale(0.1 -0.1)">
       <defs>
        <path id="DejaVuSans-31" d="M 794 531 
L 1825 531 
L 1825 4091 
L 703 3866 
L 703 4441 
L 1819 4666 
L 2450 4666 
L 2450 531 
L 3481 531 
L 3481 0 
L 794 0 
L 794 531 
z
" transform="scale(0.015625)"/>
       </defs>
       <use xlink:href="#DejaVuSans-31"/>
       <use xlink:href="#DejaVuSans-30" x="63.623047"/>
       <use xlink:href="#DejaVuSans-30" x="127.246094"/>
       <use xlink:href="#DejaVuSans-30" x="190.869141"/>
      </g>
     </g>
    </g>
    <g id="ytick_7">
     <g id="line2d_12">
      <g>
       <use xlink:href="#m609606647e" x="53.328125" y="81.944003" style="stroke: #000000; stroke-width: 0.8"/>
      </g>
     </g>
     <g id="text_13">
      <!-- 1200 -->
      <g transform="translate(20.878125 85.743222) scale(0.1 -0.1)">
       <use xlink:href="#DejaVuSans-31"/>
       <use xlink:href="#DejaVuSans-32" x="63.623047"/>
       <use xlink:href="#DejaVuSans-30" x="127.246094"/>
       <use xlink:href="#DejaVuSans-30" x="190.869141"/>
      </g>
     </g>
    </g>
    <g id="ytick_8">
     <g id="line2d_13">
      <g>
       <use xlink:href="#m609606647e" x="53.328125" y="55.354983" style="stroke: #000000; stroke-width: 0.8"/>
      </g>
     </g>
     <g id="text_14">
      <!-- 1400 -->
      <g transform="translate(20.878125 59.154201) scale(0.1 -0.1)">
       <use xlink:href="#DejaVuSans-31"/>
       <use xlink:href="#DejaVuSans-34" x="63.623047"/>
       <use xlink:href="#DejaVuSans-30" x="127.246094"/>
       <use xlink:href="#DejaVuSans-30" x="190.869141"/>
      </g>
     </g>
    </g>
    <g id="ytick_9">
     <g id="line2d_14">
      <g>
       <use xlink:href="#m609606647e" x="53.328125" y="28.765962" style="stroke: #000000; stroke-width: 0.8"/>
      </g>
     </g>
     <g id="text_15">
      <!-- 1600 -->
      <g transform="translate(20.878125 32.565181) scale(0.1 -0.1)">
       <use xlink:href="#DejaVuSans-31"/>
       <use xlink:href="#DejaVuSans-36" x="63.623047"/>
       <use xlink:href="#DejaVuSans-30" x="127.246094"/>
       <use xlink:href="#DejaVuSans-30" x="190.869141"/>
      </g>
     </g>
    </g>
    <g id="text_16">
     <!-- Frequency -->
     <g transform="translate(14.798438 157.727812) rotate(-90) scale(0.1 -0.1)">
      <defs>
       <path id="DejaVuSans-46" d="M 628 4666 
L 3309 4666 
L 3309 4134 
L 1259 4134 
L 1259 2759 
L 3109 2759 
L 3109 2228 
L 1259 2228 
L 1259 0 
L 628 0 
L 628 4666 
z
" transform="scale(0.015625)"/>
       <path id="DejaVuSans-72" d="M 2631 2963 
Q 2534 3019 2420 3045 
Q 2306 3072 2169 3072 
Q 1681 3072 1420 2755 
Q 1159 2438 1159 1844 
L 1159 0 
L 581 0 
L 581 3500 
L 1159 3500 
L 1159 2956 
Q 1341 3275 1631 3429 
Q 1922 3584 2338 3584 
Q 2397 3584 2469 3576 
Q 2541 3569 2628 3553 
L 2631 2963 
z
" transform="scale(0.015625)"/>
       <path id="DejaVuSans-71" d="M 947 1747 
Q 947 1113 1208 752 
Q 1469 391 1925 391 
Q 2381 391 2643 752 
Q 2906 1113 2906 1747 
Q 2906 2381 2643 2742 
Q 2381 3103 1925 3103 
Q 1469 3103 1208 2742 
Q 947 2381 947 1747 
z
M 2906 525 
Q 2725 213 2448 61 
Q 2172 -91 1784 -91 
Q 1150 -91 751 415 
Q 353 922 353 1747 
Q 353 2572 751 3078 
Q 1150 3584 1784 3584 
Q 2172 3584 2448 3432 
Q 2725 3281 2906 2969 
L 2906 3500 
L 3481 3500 
L 3481 -1331 
L 2906 -1331 
L 2906 525 
z
" transform="scale(0.015625)"/>
       <path id="DejaVuSans-6e" d="M 3513 2113 
L 3513 0 
L 2938 0 
L 2938 2094 
Q 2938 2591 2744 2837 
Q 2550 3084 2163 3084 
Q 1697 3084 1428 2787 
Q 1159 2491 1159 1978 
L 1159 0 
L 581 0 
L 581 3500 
L 1159 3500 
L 1159 2956 
Q 1366 3272 1645 3428 
Q 1925 3584 2291 3584 
Q 2894 3584 3203 3211 
Q 3513 2838 3513 2113 
z
" transform="scale(0.015625)"/>
       <path id="DejaVuSans-79" d="M 2059 -325 
Q 1816 -950 1584 -1140 
Q 1353 -1331 966 -1331 
L 506 -1331 
L 506 -850 
L 844 -850 
Q 1081 -850 1212 -737 
Q 1344 -625 1503 -206 
L 1606 56 
L 191 3500 
L 800 3500 
L 1894 763 
L 2988 3500 
L 3597 3500 
L 2059 -325 
z
" transform="scale(0.015625)"/>
      </defs>
      <use xlink:href="#DejaVuSans-46"/>
      <use xlink:href="#DejaVuSans-72" x="50.269531"/>
      <use xlink:href="#DejaVuSans-65" x="89.132812"/>
      <use xlink:href="#DejaVuSans-71" x="150.65625"/>
      <use xlink:href="#DejaVuSans-75" x="214.132812"/>
      <use xlink:href="#DejaVuSans-65" x="277.511719"/>
      <use xlink:href="#DejaVuSans-6e" x="339.035156"/>
      <use xlink:href="#DejaVuSans-63" x="402.414062"/>
      <use xlink:href="#DejaVuSans-79" x="457.394531"/>
     </g>
    </g>
   </g>
   <g id="patch_103">
    <path d="M 53.328125 241.478125 
L 53.328125 22.318125 
" style="fill: none; stroke: #000000; stroke-width: 0.8; stroke-linejoin: miter; stroke-linecap: square"/>
   </g>
   <g id="patch_104">
    <path d="M 280.288125 241.478125 
L 280.288125 22.318125 
" style="fill: none; stroke: #000000; stroke-width: 0.8; stroke-linejoin: miter; stroke-linecap: square"/>
   </g>
   <g id="patch_105">
    <path d="M 53.328125 241.478125 
L 280.288125 241.478125 
" style="fill: none; stroke: #000000; stroke-width: 0.8; stroke-linejoin: miter; stroke-linecap: square"/>
   </g>
   <g id="patch_106">
    <path d="M 53.328125 22.318125 
L 280.288125 22.318125 
" style="fill: none; stroke: #000000; stroke-width: 0.8; stroke-linejoin: miter; stroke-linecap: square"/>
   </g>
   <g id="text_17">
    <!-- Distribution of Normalised and Filtered log2FC -->
    <g transform="translate(28.364687 16.318125) scale(0.12 -0.12)">
     <defs>
      <path id="DejaVuSans-44" d="M 1259 4147 
L 1259 519 
L 2022 519 
Q 2988 519 3436 956 
Q 3884 1394 3884 2338 
Q 3884 3275 3436 3711 
Q 2988 4147 2022 4147 
L 1259 4147 
z
M 628 4666 
L 1925 4666 
Q 3281 4666 3915 4102 
Q 4550 3538 4550 2338 
Q 4550 1131 3912 565 
Q 3275 0 1925 0 
L 628 0 
L 628 4666 
z
" transform="scale(0.015625)"/>
      <path id="DejaVuSans-69" d="M 603 3500 
L 1178 3500 
L 1178 0 
L 603 0 
L 603 3500 
z
M 603 4863 
L 1178 4863 
L 1178 4134 
L 603 4134 
L 603 4863 
z
" transform="scale(0.015625)"/>
      <path id="DejaVuSans-73" d="M 2834 3397 
L 2834 2853 
Q 2591 2978 2328 3040 
Q 2066 3103 1784 3103 
Q 1356 3103 1142 2972 
Q 928 2841 928 2578 
Q 928 2378 1081 2264 
Q 1234 2150 1697 2047 
L 1894 2003 
Q 2506 1872 2764 1633 
Q 3022 1394 3022 966 
Q 3022 478 2636 193 
Q 2250 -91 1575 -91 
Q 1294 -91 989 -36 
Q 684 19 347 128 
L 347 722 
Q 666 556 975 473 
Q 1284 391 1588 391 
Q 1994 391 2212 530 
Q 2431 669 2431 922 
Q 2431 1156 2273 1281 
Q 2116 1406 1581 1522 
L 1381 1569 
Q 847 1681 609 1914 
Q 372 2147 372 2553 
Q 372 3047 722 3315 
Q 1072 3584 1716 3584 
Q 2034 3584 2315 3537 
Q 2597 3491 2834 3397 
z
" transform="scale(0.015625)"/>
      <path id="DejaVuSans-74" d="M 1172 4494 
L 1172 3500 
L 2356 3500 
L 2356 3053 
L 1172 3053 
L 1172 1153 
Q 1172 725 1289 603 
Q 1406 481 1766 481 
L 2356 481 
L 2356 0 
L 1766 0 
Q 1100 0 847 248 
Q 594 497 594 1153 
L 594 3053 
L 172 3053 
L 172 3500 
L 594 3500 
L 594 4494 
L 1172 4494 
z
" transform="scale(0.015625)"/>
      <path id="DejaVuSans-62" d="M 3116 1747 
Q 3116 2381 2855 2742 
Q 2594 3103 2138 3103 
Q 1681 3103 1420 2742 
Q 1159 2381 1159 1747 
Q 1159 1113 1420 752 
Q 1681 391 2138 391 
Q 2594 391 2855 752 
Q 3116 1113 3116 1747 
z
M 1159 2969 
Q 1341 3281 1617 3432 
Q 1894 3584 2278 3584 
Q 2916 3584 3314 3078 
Q 3713 2572 3713 1747 
Q 3713 922 3314 415 
Q 2916 -91 2278 -91 
Q 1894 -91 1617 61 
Q 1341 213 1159 525 
L 1159 0 
L 581 0 
L 581 4863 
L 1159 4863 
L 1159 2969 
z
" transform="scale(0.015625)"/>
      <path id="DejaVuSans-4e" d="M 628 4666 
L 1478 4666 
L 3547 763 
L 3547 4666 
L 4159 4666 
L 4159 0 
L 3309 0 
L 1241 3903 
L 1241 0 
L 628 0 
L 628 4666 
z
" transform="scale(0.015625)"/>
      <path id="DejaVuSans-6d" d="M 3328 2828 
Q 3544 3216 3844 3400 
Q 4144 3584 4550 3584 
Q 5097 3584 5394 3201 
Q 5691 2819 5691 2113 
L 5691 0 
L 5113 0 
L 5113 2094 
Q 5113 2597 4934 2840 
Q 4756 3084 4391 3084 
Q 3944 3084 3684 2787 
Q 3425 2491 3425 1978 
L 3425 0 
L 2847 0 
L 2847 2094 
Q 2847 2600 2669 2842 
Q 2491 3084 2119 3084 
Q 1678 3084 1418 2786 
Q 1159 2488 1159 1978 
L 1159 0 
L 581 0 
L 581 3500 
L 1159 3500 
L 1159 2956 
Q 1356 3278 1631 3431 
Q 1906 3584 2284 3584 
Q 2666 3584 2933 3390 
Q 3200 3197 3328 2828 
z
" transform="scale(0.015625)"/>
      <path id="DejaVuSans-64" d="M 2906 2969 
L 2906 4863 
L 3481 4863 
L 3481 0 
L 2906 0 
L 2906 525 
Q 2725 213 2448 61 
Q 2172 -91 1784 -91 
Q 1150 -91 751 415 
Q 353 922 353 1747 
Q 353 2572 751 3078 
Q 1150 3584 1784 3584 
Q 2172 3584 2448 3432 
Q 2725 3281 2906 2969 
z
M 947 1747 
Q 947 1113 1208 752 
Q 1469 391 1925 391 
Q 2381 391 2643 752 
Q 2906 1113 2906 1747 
Q 2906 2381 2643 2742 
Q 2381 3103 1925 3103 
Q 1469 3103 1208 2742 
Q 947 2381 947 1747 
z
" transform="scale(0.015625)"/>
      <path id="DejaVuSans-43" d="M 4122 4306 
L 4122 3641 
Q 3803 3938 3442 4084 
Q 3081 4231 2675 4231 
Q 1875 4231 1450 3742 
Q 1025 3253 1025 2328 
Q 1025 1406 1450 917 
Q 1875 428 2675 428 
Q 3081 428 3442 575 
Q 3803 722 4122 1019 
L 4122 359 
Q 3791 134 3420 21 
Q 3050 -91 2638 -91 
Q 1578 -91 968 557 
Q 359 1206 359 2328 
Q 359 3453 968 4101 
Q 1578 4750 2638 4750 
Q 3056 4750 3426 4639 
Q 3797 4528 4122 4306 
z
" transform="scale(0.015625)"/>
     </defs>
     <use xlink:href="#DejaVuSans-44"/>
     <use xlink:href="#DejaVuSans-69" x="77.001953"/>
     <use xlink:href="#DejaVuSans-73" x="104.785156"/>
     <use xlink:href="#DejaVuSans-74" x="156.884766"/>
     <use xlink:href="#DejaVuSans-72" x="196.09375"/>
     <use xlink:href="#DejaVuSans-69" x="237.207031"/>
     <use xlink:href="#DejaVuSans-62" x="264.990234"/>
     <use xlink:href="#DejaVuSans-75" x="328.466797"/>
     <use xlink:href="#DejaVuSans-74" x="391.845703"/>
     <use xlink:href="#DejaVuSans-69" x="431.054688"/>
     <use xlink:href="#DejaVuSans-6f" x="458.837891"/>
     <use xlink:href="#DejaVuSans-6e" x="520.019531"/>
     <use xlink:href="#DejaVuSans-20" x="583.398438"/>
     <use xlink:href="#DejaVuSans-6f" x="615.185547"/>
     <use xlink:href="#DejaVuSans-66" x="676.367188"/>
     <use xlink:href="#DejaVuSans-20" x="711.572266"/>
     <use xlink:href="#DejaVuSans-4e" x="743.359375"/>
     <use xlink:href="#DejaVuSans-6f" x="818.164062"/>
     <use xlink:href="#DejaVuSans-72" x="879.345703"/>
     <use xlink:href="#DejaVuSans-6d" x="918.708984"/>
     <use xlink:href="#DejaVuSans-61" x="1016.121094"/>
     <use xlink:href="#DejaVuSans-6c" x="1077.400391"/>
     <use xlink:href="#DejaVuSans-69" x="1105.183594"/>
     <use xlink:href="#DejaVuSans-73" x="1132.966797"/>
     <use xlink:href="#DejaVuSans-65" x="1185.066406"/>
     <use xlink:href="#DejaVuSans-64" x="1246.589844"/>
     <use xlink:href="#DejaVuSans-20" x="1310.066406"/>
     <use xlink:href="#DejaVuSans-61" x="1341.853516"/>
     <use xlink:href="#DejaVuSans-6e" x="1403.132812"/>
     <use xlink:href="#DejaVuSans-64" x="1466.511719"/>
     <use xlink:href="#DejaVuSans-20" x="1529.988281"/>
     <use xlink:href="#DejaVuSans-46" x="1561.775391"/>
     <use xlink:href="#DejaVuSans-69" x="1612.044922"/>
     <use xlink:href="#DejaVuSans-6c" x="1639.828125"/>
     <use xlink:href="#DejaVuSans-74" x="1667.611328"/>
     <use xlink:href="#DejaVuSans-65" x="1706.820312"/>
     <use xlink:href="#DejaVuSans-72" x="1768.34375"/>
     <use xlink:href="#DejaVuSans-65" x="1807.207031"/>
     <use xlink:href="#DejaVuSans-64" x="1868.730469"/>
     <use xlink:href="#DejaVuSans-20" x="1932.207031"/>
     <use xlink:href="#DejaVuSans-6c" x="1963.994141"/>
     <use xlink:href="#DejaVuSans-6f" x="1991.777344"/>
     <use xlink:href="#DejaVuSans-67" x="2052.958984"/>
     <use xlink:href="#DejaVuSans-32" x="2116.435547"/>
     <use xlink:href="#DejaVuSans-46" x="2180.058594"/>
     <use xlink:href="#DejaVuSans-43" x="2237.578125"/>
    </g>
   </g>
   <g id="legend_1">
    <g id="patch_107">
     <path d="M 184.61625 59.674375 
L 273.288125 59.674375 
Q 275.288125 59.674375 275.288125 57.674375 
L 275.288125 29.318125 
Q 275.288125 27.318125 273.288125 27.318125 
L 184.61625 27.318125 
Q 182.61625 27.318125 182.61625 29.318125 
L 182.61625 57.674375 
Q 182.61625 59.674375 184.61625 59.674375 
z
" style="fill: #ffffff; opacity: 0.8; stroke: #cccccc; stroke-linejoin: miter"/>
    </g>
    <g id="patch_108">
     <path d="M 186.61625 38.916563 
L 206.61625 38.916563 
L 206.61625 31.916563 
L 186.61625 31.916563 
z
" style="fill: #008000; opacity: 0.7"/>
    </g>
    <g id="text_18">
     <!-- Filtered -->
     <g transform="translate(214.61625 38.916563) scale(0.1 -0.1)">
      <use xlink:href="#DejaVuSans-46"/>
      <use xlink:href="#DejaVuSans-69" x="50.269531"/>
      <use xlink:href="#DejaVuSans-6c" x="78.052734"/>
      <use xlink:href="#DejaVuSans-74" x="105.835938"/>
      <use xlink:href="#DejaVuSans-65" x="145.044922"/>
      <use xlink:href="#DejaVuSans-72" x="206.568359"/>
      <use xlink:href="#DejaVuSans-65" x="245.431641"/>
      <use xlink:href="#DejaVuSans-64" x="306.955078"/>
     </g>
    </g>
    <g id="patch_109">
     <path d="M 186.61625 53.594688 
L 206.61625 53.594688 
L 206.61625 46.594688 
L 186.61625 46.594688 
z
" style="fill: #ff0000; opacity: 0.7"/>
    </g>
    <g id="text_19">
     <!-- Normalised -->
     <g transform="translate(214.61625 53.594688) scale(0.1 -0.1)">
      <use xlink:href="#DejaVuSans-4e"/>
      <use xlink:href="#DejaVuSans-6f" x="74.804688"/>
      <use xlink:href="#DejaVuSans-72" x="135.986328"/>
      <use xlink:href="#DejaVuSans-6d" x="175.349609"/>
      <use xlink:href="#DejaVuSans-61" x="272.761719"/>
      <use xlink:href="#DejaVuSans-6c" x="334.041016"/>
      <use xlink:href="#DejaVuSans-69" x="361.824219"/>
      <use xlink:href="#DejaVuSans-73" x="389.607422"/>
      <use xlink:href="#DejaVuSans-65" x="441.707031"/>
      <use xlink:href="#DejaVuSans-64" x="503.230469"/>
     </g>
    </g>
   </g>
  </g>
  <g id="axes_2">
   <g id="patch_110">
    <path d="M 334.308125 241.478125 
L 561.268125 241.478125 
L 561.268125 22.318125 
L 334.308125 22.318125 
z
" style="fill: #ffffff"/>
   </g>
   <g id="PolyCollection_1">
    <defs>
     <path id="m0f54482421" d="M 344.624489 -37.558349 
L 344.624489 -37.55625 
L 345.661309 -37.55625 
L 346.69813 -37.55625 
L 347.73495 -37.55625 
L 348.771771 -37.55625 
L 349.808591 -37.55625 
L 350.845411 -37.55625 
L 351.882232 -37.55625 
L 352.919052 -37.55625 
L 353.955873 -37.55625 
L 354.992693 -37.55625 
L 356.029514 -37.55625 
L 357.066334 -37.55625 
L 358.103155 -37.55625 
L 359.139975 -37.55625 
L 360.176796 -37.55625 
L 361.213616 -37.55625 
L 362.250437 -37.55625 
L 363.287257 -37.55625 
L 364.324077 -37.55625 
L 365.360898 -37.55625 
L 366.397718 -37.55625 
L 367.434539 -37.55625 
L 368.471359 -37.55625 
L 369.50818 -37.55625 
L 370.545 -37.55625 
L 371.581821 -37.55625 
L 372.618641 -37.55625 
L 373.655462 -37.55625 
L 374.692282 -37.55625 
L 375.729103 -37.55625 
L 376.765923 -37.55625 
L 377.802744 -37.55625 
L 378.839564 -37.55625 
L 379.876384 -37.55625 
L 380.913205 -37.55625 
L 381.950025 -37.55625 
L 382.986846 -37.55625 
L 384.023666 -37.55625 
L 385.060487 -37.55625 
L 386.097307 -37.55625 
L 387.134128 -37.55625 
L 388.170948 -37.55625 
L 389.207769 -37.55625 
L 390.244589 -37.55625 
L 391.28141 -37.55625 
L 392.31823 -37.55625 
L 393.355051 -37.55625 
L 394.391871 -37.55625 
L 395.428691 -37.55625 
L 396.465512 -37.55625 
L 397.502332 -37.55625 
L 398.539153 -37.55625 
L 399.575973 -37.55625 
L 400.612794 -37.55625 
L 401.649614 -37.55625 
L 402.686435 -37.55625 
L 403.723255 -37.55625 
L 404.760076 -37.55625 
L 405.796896 -37.55625 
L 406.833717 -37.55625 
L 407.870537 -37.55625 
L 408.907358 -37.55625 
L 409.944178 -37.55625 
L 410.980998 -37.55625 
L 412.017819 -37.55625 
L 413.054639 -37.55625 
L 414.09146 -37.55625 
L 415.12828 -37.55625 
L 416.165101 -37.55625 
L 417.201921 -37.55625 
L 418.238742 -37.55625 
L 419.275562 -37.55625 
L 420.312383 -37.55625 
L 421.349203 -37.55625 
L 422.386024 -37.55625 
L 423.422844 -37.55625 
L 424.459665 -37.55625 
L 425.496485 -37.55625 
L 426.533305 -37.55625 
L 427.570126 -37.55625 
L 428.606946 -37.55625 
L 429.643767 -37.55625 
L 430.680587 -37.55625 
L 431.717408 -37.55625 
L 432.754228 -37.55625 
L 433.791049 -37.55625 
L 434.827869 -37.55625 
L 435.86469 -37.55625 
L 436.90151 -37.55625 
L 437.938331 -37.55625 
L 438.975151 -37.55625 
L 440.011972 -37.55625 
L 441.048792 -37.55625 
L 442.085612 -37.55625 
L 443.122433 -37.55625 
L 444.159253 -37.55625 
L 445.196074 -37.55625 
L 446.232894 -37.55625 
L 447.269715 -37.55625 
L 448.306535 -37.55625 
L 449.343356 -37.55625 
L 450.380176 -37.55625 
L 451.416997 -37.55625 
L 452.453817 -37.55625 
L 453.490638 -37.55625 
L 454.527458 -37.55625 
L 455.564278 -37.55625 
L 456.601099 -37.55625 
L 457.637919 -37.55625 
L 458.67474 -37.55625 
L 459.71156 -37.55625 
L 460.748381 -37.55625 
L 461.785201 -37.55625 
L 462.822022 -37.55625 
L 463.858842 -37.55625 
L 464.895663 -37.55625 
L 465.932483 -37.55625 
L 466.969304 -37.55625 
L 468.006124 -37.55625 
L 469.042945 -37.55625 
L 470.079765 -37.55625 
L 471.116585 -37.55625 
L 472.153406 -37.55625 
L 473.190226 -37.55625 
L 474.227047 -37.55625 
L 475.263867 -37.55625 
L 476.300688 -37.55625 
L 477.337508 -37.55625 
L 478.374329 -37.55625 
L 479.411149 -37.55625 
L 480.44797 -37.55625 
L 481.48479 -37.55625 
L 482.521611 -37.55625 
L 483.558431 -37.55625 
L 484.595252 -37.55625 
L 485.632072 -37.55625 
L 486.668892 -37.55625 
L 487.705713 -37.55625 
L 488.742533 -37.55625 
L 489.779354 -37.55625 
L 490.816174 -37.55625 
L 491.852995 -37.55625 
L 492.889815 -37.55625 
L 493.926636 -37.55625 
L 494.963456 -37.55625 
L 496.000277 -37.55625 
L 497.037097 -37.55625 
L 498.073918 -37.55625 
L 499.110738 -37.55625 
L 500.147559 -37.55625 
L 501.184379 -37.55625 
L 502.221199 -37.55625 
L 503.25802 -37.55625 
L 504.29484 -37.55625 
L 505.331661 -37.55625 
L 506.368481 -37.55625 
L 507.405302 -37.55625 
L 508.442122 -37.55625 
L 509.478943 -37.55625 
L 510.515763 -37.55625 
L 511.552584 -37.55625 
L 512.589404 -37.55625 
L 513.626225 -37.55625 
L 514.663045 -37.55625 
L 515.699866 -37.55625 
L 516.736686 -37.55625 
L 517.773506 -37.55625 
L 518.810327 -37.55625 
L 519.847147 -37.55625 
L 520.883968 -37.55625 
L 521.920788 -37.55625 
L 522.957609 -37.55625 
L 523.994429 -37.55625 
L 525.03125 -37.55625 
L 526.06807 -37.55625 
L 527.104891 -37.55625 
L 528.141711 -37.55625 
L 529.178532 -37.55625 
L 530.215352 -37.55625 
L 531.252173 -37.55625 
L 532.288993 -37.55625 
L 533.325813 -37.55625 
L 534.362634 -37.55625 
L 535.399454 -37.55625 
L 536.436275 -37.55625 
L 537.473095 -37.55625 
L 538.509916 -37.55625 
L 539.546736 -37.55625 
L 540.583557 -37.55625 
L 541.620377 -37.55625 
L 542.657198 -37.55625 
L 543.694018 -37.55625 
L 544.730839 -37.55625 
L 545.767659 -37.55625 
L 546.804479 -37.55625 
L 547.8413 -37.55625 
L 548.87812 -37.55625 
L 549.914941 -37.55625 
L 550.951761 -37.55625 
L 550.951761 -37.558349 
L 550.951761 -37.558349 
L 549.914941 -37.561536 
L 548.87812 -37.568224 
L 547.8413 -37.580647 
L 546.804479 -37.600959 
L 545.767659 -37.629943 
L 544.730839 -37.6655 
L 543.694018 -37.701923 
L 542.657198 -37.730952 
L 541.620377 -37.744694 
L 540.583557 -37.739072 
L 539.546736 -37.715779 
L 538.509916 -37.681453 
L 537.473095 -37.64463 
L 536.436275 -37.612362 
L 535.399454 -37.588292 
L 534.362634 -37.572707 
L 533.325813 -37.563852 
L 532.288993 -37.559409 
L 531.252173 -37.55743 
L 530.215352 -37.556647 
L 529.178532 -37.55637 
L 528.141711 -37.556283 
L 527.104891 -37.556258 
L 526.06807 -37.556252 
L 525.03125 -37.55625 
L 523.994429 -37.55625 
L 522.957609 -37.55625 
L 521.920788 -37.556251 
L 520.883968 -37.556254 
L 519.847147 -37.55627 
L 518.810327 -37.556334 
L 517.773506 -37.556567 
L 516.736686 -37.557335 
L 515.699866 -37.559619 
L 514.663045 -37.565752 
L 513.626225 -37.580629 
L 512.589404 -37.613197 
L 511.552584 -37.677539 
L 510.515763 -37.792229 
L 509.478943 -37.976766 
L 508.442122 -38.245224 
L 507.405302 -38.599767 
L 506.368481 -39.028418 
L 505.331661 -39.510277 
L 504.29484 -40.026827 
L 503.25802 -40.573257 
L 502.221199 -41.163229 
L 501.184379 -41.825107 
L 500.147559 -42.593301 
L 499.110738 -43.500311 
L 498.073918 -44.572789 
L 497.037097 -45.831679 
L 496.000277 -47.294749 
L 494.963456 -48.979095 
L 493.926636 -50.900833 
L 492.889815 -53.07024 
L 491.852995 -55.484423 
L 490.816174 -58.123972 
L 489.779354 -60.960573 
L 488.742533 -63.976078 
L 487.705713 -67.183683 
L 486.668892 -70.637175 
L 485.632072 -74.420349 
L 484.595252 -78.621757 
L 483.558431 -83.309243 
L 482.521611 -88.517686 
L 481.48479 -94.254522 
L 480.44797 -100.517363 
L 479.411149 -107.310827 
L 478.374329 -114.648108 
L 477.337508 -122.529515 
L 476.300688 -130.90477 
L 475.263867 -139.638924 
L 474.227047 -148.500394 
L 473.190226 -157.171011 
L 472.153406 -165.259242 
L 471.116585 -172.302785 
L 470.079765 -177.779563 
L 469.042945 -181.175186 
L 468.006124 -182.136927 
L 466.969304 -180.67265 
L 465.932483 -177.281141 
L 464.895663 -172.902346 
L 463.858842 -168.671509 
L 462.822022 -165.583994 
L 461.785201 -164.230846 
L 460.748381 -164.71233 
L 459.71156 -166.7289 
L 458.67474 -169.768463 
L 457.637919 -173.294796 
L 456.601099 -176.876395 
L 455.564278 -180.239107 
L 454.527458 -183.25634 
L 453.490638 -185.903768 
L 452.453817 -188.205535 
L 451.416997 -190.190661 
L 450.380176 -191.867312 
L 449.343356 -193.214173 
L 448.306535 -194.184347 
L 447.269715 -194.716434 
L 446.232894 -194.747797 
L 445.196074 -194.226674 
L 444.159253 -193.121637 
L 443.122433 -191.426537 
L 442.085612 -189.157552 
L 441.048792 -186.34247 
L 440.011972 -183.013193 
L 438.975151 -179.220773 
L 437.938331 -175.084165 
L 436.90151 -170.858921 
L 435.86469 -166.986298 
L 434.827869 -164.073765 
L 433.791049 -162.771924 
L 432.754228 -163.552934 
L 431.717408 -166.457487 
L 430.680587 -170.933432 
L 429.643767 -175.886743 
L 428.606946 -179.973227 
L 427.570126 -182.019301 
L 426.533305 -181.373585 
L 425.496485 -178.030043 
L 424.459665 -172.498839 
L 423.422844 -165.530049 
L 422.386024 -157.837178 
L 421.349203 -149.923424 
L 420.312383 -142.040012 
L 419.275562 -134.248997 
L 418.238742 -126.534017 
L 417.201921 -118.898002 
L 416.165101 -111.406575 
L 415.12828 -104.17336 
L 414.09146 -97.316389 
L 413.054639 -90.921056 
L 412.017819 -85.026719 
L 410.980998 -79.633265 
L 409.944178 -74.71707 
L 408.907358 -70.24868 
L 407.870537 -66.206383 
L 406.833717 -62.579811 
L 405.796896 -59.362095 
L 404.760076 -56.537526 
L 403.723255 -54.075237 
L 402.686435 -51.933043 
L 401.649614 -50.065875 
L 400.612794 -48.430878 
L 399.575973 -46.987709 
L 398.539153 -45.699249 
L 397.502332 -44.536823 
L 396.465512 -43.486956 
L 395.428691 -42.55235 
L 394.391871 -41.743428 
L 393.355051 -41.064981 
L 392.31823 -40.507058 
L 391.28141 -40.046017 
L 390.244589 -39.653772 
L 389.207769 -39.307898 
L 388.170948 -38.996466 
L 387.134128 -38.716829 
L 386.097307 -38.471681 
L 385.060487 -38.265531 
L 384.023666 -38.102097 
L 382.986846 -37.981815 
L 381.950025 -37.899682 
L 380.913205 -37.845073 
L 379.876384 -37.804631 
L 378.839564 -37.767026 
L 377.802744 -37.726701 
L 376.765923 -37.684366 
L 375.729103 -37.644407 
L 374.692282 -37.611321 
L 373.655462 -37.587342 
L 372.618641 -37.572078 
L 371.581821 -37.563507 
L 370.545 -37.559245 
L 369.50818 -37.557363 
L 368.471359 -37.556629 
L 367.434539 -37.556394 
L 366.397718 -37.5564 
L 365.360898 -37.556654 
L 364.324077 -37.557432 
L 363.287257 -37.559409 
L 362.250437 -37.563852 
L 361.213616 -37.572707 
L 360.176796 -37.588292 
L 359.139975 -37.612362 
L 358.103155 -37.64463 
L 357.066334 -37.681453 
L 356.029514 -37.715779 
L 354.992693 -37.739072 
L 353.955873 -37.744694 
L 352.919052 -37.730952 
L 351.882232 -37.701923 
L 350.845411 -37.6655 
L 349.808591 -37.629943 
L 348.771771 -37.600959 
L 347.73495 -37.580647 
L 346.69813 -37.568224 
L 345.661309 -37.561536 
L 344.624489 -37.558349 
z
" style="stroke: #008000"/>
    </defs>
    <g clip-path="url(#p70cd8c57e0)">
     <use xlink:href="#m0f54482421" x="0" y="279.034375" style="fill: #008000; fill-opacity: 0.25; stroke: #008000"/>
    </g>
   </g>
   <g id="PolyCollection_2">
    <defs>
     <path id="mffd9d08873" d="M 346.658004 -37.558008 
L 346.658004 -37.55625 
L 347.674387 -37.55625 
L 348.69077 -37.55625 
L 349.707153 -37.55625 
L 350.723536 -37.55625 
L 351.739919 -37.55625 
L 352.756302 -37.55625 
L 353.772685 -37.55625 
L 354.789069 -37.55625 
L 355.805452 -37.55625 
L 356.821835 -37.55625 
L 357.838218 -37.55625 
L 358.854601 -37.55625 
L 359.870984 -37.55625 
L 360.887367 -37.55625 
L 361.903751 -37.55625 
L 362.920134 -37.55625 
L 363.936517 -37.55625 
L 364.9529 -37.55625 
L 365.969283 -37.55625 
L 366.985666 -37.55625 
L 368.002049 -37.55625 
L 369.018432 -37.55625 
L 370.034816 -37.55625 
L 371.051199 -37.55625 
L 372.067582 -37.55625 
L 373.083965 -37.55625 
L 374.100348 -37.55625 
L 375.116731 -37.55625 
L 376.133114 -37.55625 
L 377.149497 -37.55625 
L 378.165881 -37.55625 
L 379.182264 -37.55625 
L 380.198647 -37.55625 
L 381.21503 -37.55625 
L 382.231413 -37.55625 
L 383.247796 -37.55625 
L 384.264179 -37.55625 
L 385.280563 -37.55625 
L 386.296946 -37.55625 
L 387.313329 -37.55625 
L 388.329712 -37.55625 
L 389.346095 -37.55625 
L 390.362478 -37.55625 
L 391.378861 -37.55625 
L 392.395244 -37.55625 
L 393.411628 -37.55625 
L 394.428011 -37.55625 
L 395.444394 -37.55625 
L 396.460777 -37.55625 
L 397.47716 -37.55625 
L 398.493543 -37.55625 
L 399.509926 -37.55625 
L 400.526309 -37.55625 
L 401.542693 -37.55625 
L 402.559076 -37.55625 
L 403.575459 -37.55625 
L 404.591842 -37.55625 
L 405.608225 -37.55625 
L 406.624608 -37.55625 
L 407.640991 -37.55625 
L 408.657374 -37.55625 
L 409.673758 -37.55625 
L 410.690141 -37.55625 
L 411.706524 -37.55625 
L 412.722907 -37.55625 
L 413.73929 -37.55625 
L 414.755673 -37.55625 
L 415.772056 -37.55625 
L 416.78844 -37.55625 
L 417.804823 -37.55625 
L 418.821206 -37.55625 
L 419.837589 -37.55625 
L 420.853972 -37.55625 
L 421.870355 -37.55625 
L 422.886738 -37.55625 
L 423.903121 -37.55625 
L 424.919505 -37.55625 
L 425.935888 -37.55625 
L 426.952271 -37.55625 
L 427.968654 -37.55625 
L 428.985037 -37.55625 
L 430.00142 -37.55625 
L 431.017803 -37.55625 
L 432.034186 -37.55625 
L 433.05057 -37.55625 
L 434.066953 -37.55625 
L 435.083336 -37.55625 
L 436.099719 -37.55625 
L 437.116102 -37.55625 
L 438.132485 -37.55625 
L 439.148868 -37.55625 
L 440.165252 -37.55625 
L 441.181635 -37.55625 
L 442.198018 -37.55625 
L 443.214401 -37.55625 
L 444.230784 -37.55625 
L 445.247167 -37.55625 
L 446.26355 -37.55625 
L 447.279933 -37.55625 
L 448.296317 -37.55625 
L 449.3127 -37.55625 
L 450.329083 -37.55625 
L 451.345466 -37.55625 
L 452.361849 -37.55625 
L 453.378232 -37.55625 
L 454.394615 -37.55625 
L 455.410998 -37.55625 
L 456.427382 -37.55625 
L 457.443765 -37.55625 
L 458.460148 -37.55625 
L 459.476531 -37.55625 
L 460.492914 -37.55625 
L 461.509297 -37.55625 
L 462.52568 -37.55625 
L 463.542064 -37.55625 
L 464.558447 -37.55625 
L 465.57483 -37.55625 
L 466.591213 -37.55625 
L 467.607596 -37.55625 
L 468.623979 -37.55625 
L 469.640362 -37.55625 
L 470.656745 -37.55625 
L 471.673129 -37.55625 
L 472.689512 -37.55625 
L 473.705895 -37.55625 
L 474.722278 -37.55625 
L 475.738661 -37.55625 
L 476.755044 -37.55625 
L 477.771427 -37.55625 
L 478.78781 -37.55625 
L 479.804194 -37.55625 
L 480.820577 -37.55625 
L 481.83696 -37.55625 
L 482.853343 -37.55625 
L 483.869726 -37.55625 
L 484.886109 -37.55625 
L 485.902492 -37.55625 
L 486.918876 -37.55625 
L 487.935259 -37.55625 
L 488.951642 -37.55625 
L 489.968025 -37.55625 
L 490.984408 -37.55625 
L 492.000791 -37.55625 
L 493.017174 -37.55625 
L 494.033557 -37.55625 
L 495.049941 -37.55625 
L 496.066324 -37.55625 
L 497.082707 -37.55625 
L 498.09909 -37.55625 
L 499.115473 -37.55625 
L 500.131856 -37.55625 
L 501.148239 -37.55625 
L 502.164622 -37.55625 
L 503.181006 -37.55625 
L 504.197389 -37.55625 
L 505.213772 -37.55625 
L 506.230155 -37.55625 
L 507.246538 -37.55625 
L 508.262921 -37.55625 
L 509.279304 -37.55625 
L 510.295687 -37.55625 
L 511.312071 -37.55625 
L 512.328454 -37.55625 
L 513.344837 -37.55625 
L 514.36122 -37.55625 
L 515.377603 -37.55625 
L 516.393986 -37.55625 
L 517.410369 -37.55625 
L 518.426753 -37.55625 
L 519.443136 -37.55625 
L 520.459519 -37.55625 
L 521.475902 -37.55625 
L 522.492285 -37.55625 
L 523.508668 -37.55625 
L 524.525051 -37.55625 
L 525.541434 -37.55625 
L 526.557818 -37.55625 
L 527.574201 -37.55625 
L 528.590584 -37.55625 
L 529.606967 -37.55625 
L 530.62335 -37.55625 
L 531.639733 -37.55625 
L 532.656116 -37.55625 
L 533.672499 -37.55625 
L 534.688883 -37.55625 
L 535.705266 -37.55625 
L 536.721649 -37.55625 
L 537.738032 -37.55625 
L 538.754415 -37.55625 
L 539.770798 -37.55625 
L 540.787181 -37.55625 
L 541.803565 -37.55625 
L 542.819948 -37.55625 
L 543.836331 -37.55625 
L 544.852714 -37.55625 
L 545.869097 -37.55625 
L 546.88548 -37.55625 
L 547.901863 -37.55625 
L 548.918246 -37.55625 
L 548.918246 -37.558008 
L 548.918246 -37.558008 
L 547.901863 -37.561717 
L 546.88548 -37.570667 
L 545.869097 -37.58851 
L 544.852714 -37.617492 
L 543.836331 -37.654883 
L 542.819948 -37.691023 
L 541.803565 -37.712485 
L 540.787181 -37.709908 
L 539.770798 -37.684463 
L 538.754415 -37.647013 
L 537.738032 -37.610761 
L 536.721649 -37.584026 
L 535.705266 -37.568257 
L 534.688883 -37.560654 
L 533.672499 -37.55762 
L 532.656116 -37.556612 
L 531.639733 -37.556331 
L 530.62335 -37.556265 
L 529.606967 -37.556252 
L 528.590584 -37.55625 
L 527.574201 -37.55625 
L 526.557818 -37.55625 
L 525.541434 -37.55625 
L 524.525051 -37.55625 
L 523.508668 -37.55625 
L 522.492285 -37.55625 
L 521.475902 -37.55625 
L 520.459519 -37.55625 
L 519.443136 -37.55625 
L 518.426753 -37.556251 
L 517.410369 -37.556256 
L 516.393986 -37.556284 
L 515.377603 -37.556431 
L 514.36122 -37.557072 
L 513.344837 -37.559482 
L 512.328454 -37.567241 
L 511.312071 -37.588674 
L 510.295687 -37.639446 
L 509.279304 -37.742405 
L 508.262921 -37.920674 
L 507.246538 -38.183528 
L 506.230155 -38.513669 
L 505.213772 -38.870704 
L 504.197389 -39.21597 
L 503.181006 -39.541044 
L 502.164622 -39.873034 
L 501.148239 -40.252841 
L 500.131856 -40.712102 
L 499.115473 -41.269967 
L 498.09909 -41.940836 
L 497.082707 -42.735475 
L 496.066324 -43.658248 
L 495.049941 -44.712759 
L 494.033557 -45.912602 
L 493.017174 -47.282568 
L 492.000791 -48.843818 
L 490.984408 -50.590026 
L 489.968025 -52.473374 
L 488.951642 -54.424454 
L 487.935259 -56.406622 
L 486.918876 -58.461036 
L 485.902492 -60.694612 
L 484.886109 -63.221046 
L 483.869726 -66.111156 
L 482.853343 -69.383431 
L 481.83696 -73.017592 
L 480.820577 -76.972568 
L 479.804194 -81.214755 
L 478.78781 -85.755046 
L 477.771427 -90.661374 
L 476.755044 -96.012856 
L 475.738661 -101.810858 
L 474.722278 -107.918358 
L 473.705895 -114.100127 
L 472.689512 -120.162382 
L 471.673129 -126.09659 
L 470.656745 -132.110606 
L 469.640362 -138.511376 
L 468.623979 -145.512542 
L 467.607596 -153.086344 
L 466.591213 -160.944874 
L 465.57483 -168.659425 
L 464.558447 -175.853769 
L 463.542064 -182.37457 
L 462.52568 -188.355039 
L 461.509297 -194.12765 
L 460.492914 -200.012148 
L 459.476531 -206.101169 
L 458.460148 -212.198187 
L 457.443765 -217.952043 
L 456.427382 -223.07038 
L 455.410998 -227.451173 
L 454.394615 -231.170056 
L 453.378232 -234.37801 
L 452.361849 -237.204237 
L 451.345466 -239.718026 
L 450.329083 -241.931901 
L 449.3127 -243.802537 
L 448.296317 -245.230272 
L 447.279933 -246.090038 
L 446.26355 -246.28006 
L 445.247167 -245.731469 
L 444.230784 -244.380669 
L 443.214401 -242.182427 
L 442.198018 -239.180355 
L 441.181635 -235.517597 
L 440.165252 -231.304968 
L 439.148868 -226.47845 
L 438.132485 -220.852142 
L 437.116102 -214.341708 
L 436.099719 -207.109655 
L 435.083336 -199.493259 
L 434.066953 -191.839841 
L 433.05057 -184.415863 
L 432.034186 -177.386986 
L 431.017803 -170.787652 
L 430.00142 -164.492877 
L 428.985037 -158.270592 
L 427.968654 -151.914837 
L 426.952271 -145.360204 
L 425.935888 -138.694103 
L 424.919505 -132.083963 
L 423.903121 -125.698973 
L 422.886738 -119.673964 
L 421.870355 -114.089203 
L 420.853972 -108.924814 
L 419.837589 -104.023551 
L 418.821206 -99.149418 
L 417.804823 -94.143696 
L 416.78844 -89.041018 
L 415.772056 -84.02433 
L 414.755673 -79.274592 
L 413.73929 -74.875754 
L 412.722907 -70.837743 
L 411.706524 -67.154663 
L 410.690141 -63.81352 
L 409.673758 -60.773841 
L 408.657374 -57.981473 
L 407.640991 -55.414995 
L 406.624608 -53.103476 
L 405.608225 -51.086612 
L 404.591842 -49.361646 
L 403.575459 -47.876567 
L 402.559076 -46.571928 
L 401.542693 -45.419182 
L 400.526309 -44.41477 
L 399.509926 -43.545378 
L 398.493543 -42.770602 
L 397.47716 -42.043461 
L 396.460777 -41.345313 
L 395.444394 -40.699192 
L 394.428011 -40.148867 
L 393.411628 -39.721444 
L 392.395244 -39.404434 
L 391.378861 -39.155033 
L 390.362478 -38.930588 
L 389.346095 -38.711956 
L 388.329712 -38.5027 
L 387.313329 -38.312463 
L 386.296946 -38.144839 
L 385.280563 -37.99949 
L 384.264179 -37.880267 
L 383.247796 -37.79583 
L 382.231413 -37.750447 
L 381.21503 -37.735336 
L 380.198647 -37.73075 
L 379.182264 -37.717732 
L 378.165881 -37.689062 
L 377.149497 -37.650548 
L 376.133114 -37.613411 
L 375.116731 -37.585713 
L 374.100348 -37.569144 
L 373.083965 -37.561039 
L 372.067582 -37.557759 
L 371.051199 -37.556654 
L 370.034816 -37.556342 
L 369.018432 -37.556268 
L 368.002049 -37.556253 
L 366.985666 -37.556251 
L 365.969283 -37.556253 
L 364.9529 -37.556265 
L 363.936517 -37.556331 
L 362.920134 -37.556612 
L 361.903751 -37.55762 
L 360.887367 -37.560654 
L 359.870984 -37.568257 
L 358.854601 -37.584026 
L 357.838218 -37.610761 
L 356.821835 -37.647013 
L 355.805452 -37.684463 
L 354.789069 -37.709908 
L 353.772685 -37.712485 
L 352.756302 -37.691023 
L 351.739919 -37.654883 
L 350.723536 -37.617492 
L 349.707153 -37.58851 
L 348.69077 -37.570667 
L 347.674387 -37.561717 
L 346.658004 -37.558008 
z
" style="stroke: #ff0000"/>
    </defs>
    <g clip-path="url(#p70cd8c57e0)">
     <use xlink:href="#mffd9d08873" x="0" y="279.034375" style="fill: #ff0000; fill-opacity: 0.25; stroke: #ff0000"/>
    </g>
   </g>
   <g id="matplotlib.axis_3">
    <g id="xtick_6">
     <g id="line2d_15">
      <g>
       <use xlink:href="#m4047d0a13e" x="339.762754" y="241.478125" style="stroke: #000000; stroke-width: 0.8"/>
      </g>
     </g>
     <g id="text_20">
      <!-- −6 -->
      <g transform="translate(332.391661 256.076563) scale(0.1 -0.1)">
       <use xlink:href="#DejaVuSans-2212"/>
       <use xlink:href="#DejaVuSans-36" x="83.789062"/>
      </g>
     </g>
    </g>
    <g id="xtick_7">
     <g id="line2d_16">
      <g>
       <use xlink:href="#m4047d0a13e" x="375.771211" y="241.478125" style="stroke: #000000; stroke-width: 0.8"/>
      </g>
     </g>
     <g id="text_21">
      <!-- −4 -->
      <g transform="translate(368.400117 256.076563) scale(0.1 -0.1)">
       <use xlink:href="#DejaVuSans-2212"/>
       <use xlink:href="#DejaVuSans-34" x="83.789062"/>
      </g>
     </g>
    </g>
    <g id="xtick_8">
     <g id="line2d_17">
      <g>
       <use xlink:href="#m4047d0a13e" x="411.779668" y="241.478125" style="stroke: #000000; stroke-width: 0.8"/>
      </g>
     </g>
     <g id="text_22">
      <!-- −2 -->
      <g transform="translate(404.408574 256.076563) scale(0.1 -0.1)">
       <use xlink:href="#DejaVuSans-2212"/>
       <use xlink:href="#DejaVuSans-32" x="83.789062"/>
      </g>
     </g>
    </g>
    <g id="xtick_9">
     <g id="line2d_18">
      <g>
       <use xlink:href="#m4047d0a13e" x="447.788125" y="241.478125" style="stroke: #000000; stroke-width: 0.8"/>
      </g>
     </g>
     <g id="text_23">
      <!-- 0 -->
      <g transform="translate(444.606875 256.076563) scale(0.1 -0.1)">
       <use xlink:href="#DejaVuSans-30"/>
      </g>
     </g>
    </g>
    <g id="xtick_10">
     <g id="line2d_19">
      <g>
       <use xlink:href="#m4047d0a13e" x="483.796582" y="241.478125" style="stroke: #000000; stroke-width: 0.8"/>
      </g>
     </g>
     <g id="text_24">
      <!-- 2 -->
      <g transform="translate(480.615332 256.076563) scale(0.1 -0.1)">
       <use xlink:href="#DejaVuSans-32"/>
      </g>
     </g>
    </g>
    <g id="xtick_11">
     <g id="line2d_20">
      <g>
       <use xlink:href="#m4047d0a13e" x="519.805039" y="241.478125" style="stroke: #000000; stroke-width: 0.8"/>
      </g>
     </g>
     <g id="text_25">
      <!-- 4 -->
      <g transform="translate(516.623789 256.076563) scale(0.1 -0.1)">
       <use xlink:href="#DejaVuSans-34"/>
      </g>
     </g>
    </g>
    <g id="xtick_12">
     <g id="line2d_21">
      <g>
       <use xlink:href="#m4047d0a13e" x="555.813496" y="241.478125" style="stroke: #000000; stroke-width: 0.8"/>
      </g>
     </g>
     <g id="text_26">
      <!-- 6 -->
      <g transform="translate(552.632246 256.076563) scale(0.1 -0.1)">
       <use xlink:href="#DejaVuSans-36"/>
      </g>
     </g>
    </g>
    <g id="text_27">
     <!-- log2FC Value -->
     <g transform="translate(415.296719 269.754687) scale(0.1 -0.1)">
      <use xlink:href="#DejaVuSans-6c"/>
      <use xlink:href="#DejaVuSans-6f" x="27.783203"/>
      <use xlink:href="#DejaVuSans-67" x="88.964844"/>
      <use xlink:href="#DejaVuSans-32" x="152.441406"/>
      <use xlink:href="#DejaVuSans-46" x="216.064453"/>
      <use xlink:href="#DejaVuSans-43" x="273.583984"/>
      <use xlink:href="#DejaVuSans-20" x="343.408203"/>
      <use xlink:href="#DejaVuSans-56" x="375.195312"/>
      <use xlink:href="#DejaVuSans-61" x="435.853516"/>
      <use xlink:href="#DejaVuSans-6c" x="497.132812"/>
      <use xlink:href="#DejaVuSans-75" x="524.916016"/>
      <use xlink:href="#DejaVuSans-65" x="588.294922"/>
     </g>
    </g>
   </g>
   <g id="matplotlib.axis_4">
    <g id="ytick_10">
     <g id="line2d_22">
      <g>
       <use xlink:href="#m609606647e" x="334.308125" y="241.478125" style="stroke: #000000; stroke-width: 0.8"/>
      </g>
     </g>
     <g id="text_28">
      <!-- 0.00 -->
      <g transform="translate(305.0425 245.277344) scale(0.1 -0.1)">
       <defs>
        <path id="DejaVuSans-2e" d="M 684 794 
L 1344 794 
L 1344 0 
L 684 0 
L 684 794 
z
" transform="scale(0.015625)"/>
       </defs>
       <use xlink:href="#DejaVuSans-30"/>
       <use xlink:href="#DejaVuSans-2e" x="63.623047"/>
       <use xlink:href="#DejaVuSans-30" x="95.410156"/>
       <use xlink:href="#DejaVuSans-30" x="159.033203"/>
      </g>
     </g>
    </g>
    <g id="ytick_11">
     <g id="line2d_23">
      <g>
       <use xlink:href="#m609606647e" x="334.308125" y="215.066675" style="stroke: #000000; stroke-width: 0.8"/>
      </g>
     </g>
     <g id="text_29">
      <!-- 0.05 -->
      <g transform="translate(305.0425 218.865894) scale(0.1 -0.1)">
       <defs>
        <path id="DejaVuSans-35" d="M 691 4666 
L 3169 4666 
L 3169 4134 
L 1269 4134 
L 1269 2991 
Q 1406 3038 1543 3061 
Q 1681 3084 1819 3084 
Q 2600 3084 3056 2656 
Q 3513 2228 3513 1497 
Q 3513 744 3044 326 
Q 2575 -91 1722 -91 
Q 1428 -91 1123 -41 
Q 819 9 494 109 
L 494 744 
Q 775 591 1075 516 
Q 1375 441 1709 441 
Q 2250 441 2565 725 
Q 2881 1009 2881 1497 
Q 2881 1984 2565 2268 
Q 2250 2553 1709 2553 
Q 1456 2553 1204 2497 
Q 953 2441 691 2322 
L 691 4666 
z
" transform="scale(0.015625)"/>
       </defs>
       <use xlink:href="#DejaVuSans-30"/>
       <use xlink:href="#DejaVuSans-2e" x="63.623047"/>
       <use xlink:href="#DejaVuSans-30" x="95.410156"/>
       <use xlink:href="#DejaVuSans-35" x="159.033203"/>
      </g>
     </g>
    </g>
    <g id="ytick_12">
     <g id="line2d_24">
      <g>
       <use xlink:href="#m609606647e" x="334.308125" y="188.655225" style="stroke: #000000; stroke-width: 0.8"/>
      </g>
     </g>
     <g id="text_30">
      <!-- 0.10 -->
      <g transform="translate(305.0425 192.454444) scale(0.1 -0.1)">
       <use xlink:href="#DejaVuSans-30"/>
       <use xlink:href="#DejaVuSans-2e" x="63.623047"/>
       <use xlink:href="#DejaVuSans-31" x="95.410156"/>
       <use xlink:href="#DejaVuSans-30" x="159.033203"/>
      </g>
     </g>
    </g>
    <g id="ytick_13">
     <g id="line2d_25">
      <g>
       <use xlink:href="#m609606647e" x="334.308125" y="162.243776" style="stroke: #000000; stroke-width: 0.8"/>
      </g>
     </g>
     <g id="text_31">
      <!-- 0.15 -->
      <g transform="translate(305.0425 166.042994) scale(0.1 -0.1)">
       <use xlink:href="#DejaVuSans-30"/>
       <use xlink:href="#DejaVuSans-2e" x="63.623047"/>
       <use xlink:href="#DejaVuSans-31" x="95.410156"/>
       <use xlink:href="#DejaVuSans-35" x="159.033203"/>
      </g>
     </g>
    </g>
    <g id="ytick_14">
     <g id="line2d_26">
      <g>
       <use xlink:href="#m609606647e" x="334.308125" y="135.832326" style="stroke: #000000; stroke-width: 0.8"/>
      </g>
     </g>
     <g id="text_32">
      <!-- 0.20 -->
      <g transform="translate(305.0425 139.631545) scale(0.1 -0.1)">
       <use xlink:href="#DejaVuSans-30"/>
       <use xlink:href="#DejaVuSans-2e" x="63.623047"/>
       <use xlink:href="#DejaVuSans-32" x="95.410156"/>
       <use xlink:href="#DejaVuSans-30" x="159.033203"/>
      </g>
     </g>
    </g>
    <g id="ytick_15">
     <g id="line2d_27">
      <g>
       <use xlink:href="#m609606647e" x="334.308125" y="109.420876" style="stroke: #000000; stroke-width: 0.8"/>
      </g>
     </g>
     <g id="text_33">
      <!-- 0.25 -->
      <g transform="translate(305.0425 113.220095) scale(0.1 -0.1)">
       <use xlink:href="#DejaVuSans-30"/>
       <use xlink:href="#DejaVuSans-2e" x="63.623047"/>
       <use xlink:href="#DejaVuSans-32" x="95.410156"/>
       <use xlink:href="#DejaVuSans-35" x="159.033203"/>
      </g>
     </g>
    </g>
    <g id="ytick_16">
     <g id="line2d_28">
      <g>
       <use xlink:href="#m609606647e" x="334.308125" y="83.009426" style="stroke: #000000; stroke-width: 0.8"/>
      </g>
     </g>
     <g id="text_34">
      <!-- 0.30 -->
      <g transform="translate(305.0425 86.808645) scale(0.1 -0.1)">
       <defs>
        <path id="DejaVuSans-33" d="M 2597 2516 
Q 3050 2419 3304 2112 
Q 3559 1806 3559 1356 
Q 3559 666 3084 287 
Q 2609 -91 1734 -91 
Q 1441 -91 1130 -33 
Q 819 25 488 141 
L 488 750 
Q 750 597 1062 519 
Q 1375 441 1716 441 
Q 2309 441 2620 675 
Q 2931 909 2931 1356 
Q 2931 1769 2642 2001 
Q 2353 2234 1838 2234 
L 1294 2234 
L 1294 2753 
L 1863 2753 
Q 2328 2753 2575 2939 
Q 2822 3125 2822 3475 
Q 2822 3834 2567 4026 
Q 2313 4219 1838 4219 
Q 1578 4219 1281 4162 
Q 984 4106 628 3988 
L 628 4550 
Q 988 4650 1302 4700 
Q 1616 4750 1894 4750 
Q 2613 4750 3031 4423 
Q 3450 4097 3450 3541 
Q 3450 3153 3228 2886 
Q 3006 2619 2597 2516 
z
" transform="scale(0.015625)"/>
       </defs>
       <use xlink:href="#DejaVuSans-30"/>
       <use xlink:href="#DejaVuSans-2e" x="63.623047"/>
       <use xlink:href="#DejaVuSans-33" x="95.410156"/>
       <use xlink:href="#DejaVuSans-30" x="159.033203"/>
      </g>
     </g>
    </g>
    <g id="ytick_17">
     <g id="line2d_29">
      <g>
       <use xlink:href="#m609606647e" x="334.308125" y="56.597976" style="stroke: #000000; stroke-width: 0.8"/>
      </g>
     </g>
     <g id="text_35">
      <!-- 0.35 -->
      <g transform="translate(305.0425 60.397195) scale(0.1 -0.1)">
       <use xlink:href="#DejaVuSans-30"/>
       <use xlink:href="#DejaVuSans-2e" x="63.623047"/>
       <use xlink:href="#DejaVuSans-33" x="95.410156"/>
       <use xlink:href="#DejaVuSans-35" x="159.033203"/>
      </g>
     </g>
    </g>
    <g id="ytick_18">
     <g id="line2d_30">
      <g>
       <use xlink:href="#m609606647e" x="334.308125" y="30.186527" style="stroke: #000000; stroke-width: 0.8"/>
      </g>
     </g>
     <g id="text_36">
      <!-- 0.40 -->
      <g transform="translate(305.0425 33.985745) scale(0.1 -0.1)">
       <use xlink:href="#DejaVuSans-30"/>
       <use xlink:href="#DejaVuSans-2e" x="63.623047"/>
       <use xlink:href="#DejaVuSans-34" x="95.410156"/>
       <use xlink:href="#DejaVuSans-30" x="159.033203"/>
      </g>
     </g>
    </g>
    <g id="text_37">
     <!-- Density -->
     <g transform="translate(298.962813 150.906719) rotate(-90) scale(0.1 -0.1)">
      <use xlink:href="#DejaVuSans-44"/>
      <use xlink:href="#DejaVuSans-65" x="77.001953"/>
      <use xlink:href="#DejaVuSans-6e" x="138.525391"/>
      <use xlink:href="#DejaVuSans-73" x="201.904297"/>
      <use xlink:href="#DejaVuSans-69" x="254.003906"/>
      <use xlink:href="#DejaVuSans-74" x="281.787109"/>
      <use xlink:href="#DejaVuSans-79" x="320.996094"/>
     </g>
    </g>
   </g>
   <g id="patch_111">
    <path d="M 334.308125 241.478125 
L 334.308125 22.318125 
" style="fill: none; stroke: #000000; stroke-width: 0.8; stroke-linejoin: miter; stroke-linecap: square"/>
   </g>
   <g id="patch_112">
    <path d="M 561.268125 241.478125 
L 561.268125 22.318125 
" style="fill: none; stroke: #000000; stroke-width: 0.8; stroke-linejoin: miter; stroke-linecap: square"/>
   </g>
   <g id="patch_113">
    <path d="M 334.308125 241.478125 
L 561.268125 241.478125 
" style="fill: none; stroke: #000000; stroke-width: 0.8; stroke-linejoin: miter; stroke-linecap: square"/>
   </g>
   <g id="patch_114">
    <path d="M 334.308125 22.318125 
L 561.268125 22.318125 
" style="fill: none; stroke: #000000; stroke-width: 0.8; stroke-linejoin: miter; stroke-linecap: square"/>
   </g>
   <g id="text_38">
    <!-- Normalised vs Filtered log2FC KDE -->
    <g transform="translate(344.303125 16.318125) scale(0.12 -0.12)">
     <defs>
      <path id="DejaVuSans-76" d="M 191 3500 
L 800 3500 
L 1894 563 
L 2988 3500 
L 3597 3500 
L 2284 0 
L 1503 0 
L 191 3500 
z
" transform="scale(0.015625)"/>
      <path id="DejaVuSans-4b" d="M 628 4666 
L 1259 4666 
L 1259 2694 
L 3353 4666 
L 4166 4666 
L 1850 2491 
L 4331 0 
L 3500 0 
L 1259 2247 
L 1259 0 
L 628 0 
L 628 4666 
z
" transform="scale(0.015625)"/>
      <path id="DejaVuSans-45" d="M 628 4666 
L 3578 4666 
L 3578 4134 
L 1259 4134 
L 1259 2753 
L 3481 2753 
L 3481 2222 
L 1259 2222 
L 1259 531 
L 3634 531 
L 3634 0 
L 628 0 
L 628 4666 
z
" transform="scale(0.015625)"/>
     </defs>
     <use xlink:href="#DejaVuSans-4e"/>
     <use xlink:href="#DejaVuSans-6f" x="74.804688"/>
     <use xlink:href="#DejaVuSans-72" x="135.986328"/>
     <use xlink:href="#DejaVuSans-6d" x="175.349609"/>
     <use xlink:href="#DejaVuSans-61" x="272.761719"/>
     <use xlink:href="#DejaVuSans-6c" x="334.041016"/>
     <use xlink:href="#DejaVuSans-69" x="361.824219"/>
     <use xlink:href="#DejaVuSans-73" x="389.607422"/>
     <use xlink:href="#DejaVuSans-65" x="441.707031"/>
     <use xlink:href="#DejaVuSans-64" x="503.230469"/>
     <use xlink:href="#DejaVuSans-20" x="566.707031"/>
     <use xlink:href="#DejaVuSans-76" x="598.494141"/>
     <use xlink:href="#DejaVuSans-73" x="657.673828"/>
     <use xlink:href="#DejaVuSans-20" x="709.773438"/>
     <use xlink:href="#DejaVuSans-46" x="741.560547"/>
     <use xlink:href="#DejaVuSans-69" x="791.830078"/>
     <use xlink:href="#DejaVuSans-6c" x="819.613281"/>
     <use xlink:href="#DejaVuSans-74" x="847.396484"/>
     <use xlink:href="#DejaVuSans-65" x="886.605469"/>
     <use xlink:href="#DejaVuSans-72" x="948.128906"/>
     <use xlink:href="#DejaVuSans-65" x="986.992188"/>
     <use xlink:href="#DejaVuSans-64" x="1048.515625"/>
     <use xlink:href="#DejaVuSans-20" x="1111.992188"/>
     <use xlink:href="#DejaVuSans-6c" x="1143.779297"/>
     <use xlink:href="#DejaVuSans-6f" x="1171.5625"/>
     <use xlink:href="#DejaVuSans-67" x="1232.744141"/>
     <use xlink:href="#DejaVuSans-32" x="1296.220703"/>
     <use xlink:href="#DejaVuSans-46" x="1359.84375"/>
     <use xlink:href="#DejaVuSans-43" x="1417.363281"/>
     <use xlink:href="#DejaVuSans-20" x="1487.1875"/>
     <use xlink:href="#DejaVuSans-4b" x="1518.974609"/>
     <use xlink:href="#DejaVuSans-44" x="1584.550781"/>
     <use xlink:href="#DejaVuSans-45" x="1661.552734"/>
    </g>
   </g>
   <g id="legend_2">
    <g id="patch_115">
     <path d="M 465.59625 59.674375 
L 554.268125 59.674375 
Q 556.268125 59.674375 556.268125 57.674375 
L 556.268125 29.318125 
Q 556.268125 27.318125 554.268125 27.318125 
L 465.59625 27.318125 
Q 463.59625 27.318125 463.59625 29.318125 
L 463.59625 57.674375 
Q 463.59625 59.674375 465.59625 59.674375 
z
" style="fill: #ffffff; opacity: 0.8; stroke: #cccccc; stroke-linejoin: miter"/>
    </g>
    <g id="patch_116">
     <path d="M 467.59625 38.916563 
L 487.59625 38.916563 
L 487.59625 31.916563 
L 467.59625 31.916563 
z
" style="fill: #008000; fill-opacity: 0.25; stroke: #008000; stroke-linejoin: miter"/>
    </g>
    <g id="text_39">
     <!-- Filtered -->
     <g transform="translate(495.59625 38.916563) scale(0.1 -0.1)">
      <use xlink:href="#DejaVuSans-46"/>
      <use xlink:href="#DejaVuSans-69" x="50.269531"/>
      <use xlink:href="#DejaVuSans-6c" x="78.052734"/>
      <use xlink:href="#DejaVuSans-74" x="105.835938"/>
      <use xlink:href="#DejaVuSans-65" x="145.044922"/>
      <use xlink:href="#DejaVuSans-72" x="206.568359"/>
      <use xlink:href="#DejaVuSans-65" x="245.431641"/>
      <use xlink:href="#DejaVuSans-64" x="306.955078"/>
     </g>
    </g>
    <g id="patch_117">
     <path d="M 467.59625 53.594688 
L 487.59625 53.594688 
L 487.59625 46.594688 
L 467.59625 46.594688 
z
" style="fill: #ff0000; fill-opacity: 0.25; stroke: #ff0000; stroke-linejoin: miter"/>
    </g>
    <g id="text_40">
     <!-- Normalised -->
     <g transform="translate(495.59625 53.594688) scale(0.1 -0.1)">
      <use xlink:href="#DejaVuSans-4e"/>
      <use xlink:href="#DejaVuSans-6f" x="74.804688"/>
      <use xlink:href="#DejaVuSans-72" x="135.986328"/>
      <use xlink:href="#DejaVuSans-6d" x="175.349609"/>
      <use xlink:href="#DejaVuSans-61" x="272.761719"/>
      <use xlink:href="#DejaVuSans-6c" x="334.041016"/>
      <use xlink:href="#DejaVuSans-69" x="361.824219"/>
      <use xlink:href="#DejaVuSans-73" x="389.607422"/>
      <use xlink:href="#DejaVuSans-65" x="441.707031"/>
      <use xlink:href="#DejaVuSans-64" x="503.230469"/>
     </g>
    </g>
   </g>
  </g>
 </g>
 <defs>
  <clipPath id="pa0556ed463">
   <rect x="53.328125" y="22.318125" width="226.96" height="219.16"/>
  </clipPath>
  <clipPath id="p70cd8c57e0">
   <rect x="334.308125" y="22.318125" width="226.96" height="219.16"/>
  </clipPath>
 </defs>
</svg>
