<?xml version="1.0" encoding="utf-8" standalone="no"?>
<!DOCTYPE svg PUBLIC "-//W3C//DTD SVG 1.1//EN"
  "http://www.w3.org/Graphics/SVG/1.1/DTD/svg11.dtd">
<svg xmlns:xlink="http://www.w3.org/1999/xlink" width="568.558125pt" height="279.034375pt" viewBox="0 0 568.558125 279.034375" xmlns="http://www.w3.org/2000/svg" version="1.1">
 <metadata>
  <rdf:RDF xmlns:dc="http://purl.org/dc/elements/1.1/" xmlns:cc="http://creativecommons.org/ns#" xmlns:rdf="http://www.w3.org/1999/02/22-rdf-syntax-ns#">
   <cc:Work>
    <dc:type rdf:resource="http://purl.org/dc/dcmitype/StillImage"/>
    <dc:date>2024-12-09T23:36:45.397609</dc:date>
    <dc:format>image/svg+xml</dc:format>
    <dc:creator>
     <cc:Agent>
      <dc:title>Matplotlib v3.8.0, https://matplotlib.org/</dc:title>
     </cc:Agent>
    </dc:creator>
   </cc:Work>
  </rdf:RDF>
 </metadata>
 <defs>
  <style type="text/css">*{stroke-linejoin: round; stroke-linecap: butt}</style>
 </defs>
 <g id="figure_1">
  <g id="patch_1">
   <path d="M 0 279.034375 
L 568.558125 279.034375 
L 568.558125 0 
L 0 0 
z
" style="fill: #ffffff"/>
  </g>
  <g id="axes_1">
   <g id="patch_2">
    <path d="M 53.328125 241.478125 
L 283.483125 241.478125 
L 283.483125 22.318125 
L 53.328125 22.318125 
z
" style="fill: #ffffff"/>
   </g>
   <g id="patch_3">
    <path d="M 67.315213 241.478125 
L 71.429339 241.478125 
L 71.429339 241.252478 
L 67.315213 241.252478 
z
" clip-path="url(#p6224b43832)" style="fill: #0000ff; opacity: 0.7"/>
   </g>
   <g id="patch_4">
    <path d="M 71.429339 241.478125 
L 75.543466 241.478125 
L 75.543466 241.252478 
L 71.429339 241.252478 
z
" clip-path="url(#p6224b43832)" style="fill: #0000ff; opacity: 0.7"/>
   </g>
   <g id="patch_5">
    <path d="M 75.543466 241.478125 
L 79.657592 241.478125 
L 79.657592 241.139654 
L 75.543466 241.139654 
z
" clip-path="url(#p6224b43832)" style="fill: #0000ff; opacity: 0.7"/>
   </g>
   <g id="patch_6">
    <path d="M 79.657592 241.478125 
L 83.771719 241.478125 
L 83.771719 241.252478 
L 79.657592 241.252478 
z
" clip-path="url(#p6224b43832)" style="fill: #0000ff; opacity: 0.7"/>
   </g>
   <g id="patch_7">
    <path d="M 83.771719 241.478125 
L 87.885845 241.478125 
L 87.885845 240.914007 
L 83.771719 240.914007 
z
" clip-path="url(#p6224b43832)" style="fill: #0000ff; opacity: 0.7"/>
   </g>
   <g id="patch_8">
    <path d="M 87.885845 241.478125 
L 91.999972 241.478125 
L 91.999972 240.688359 
L 87.885845 240.688359 
z
" clip-path="url(#p6224b43832)" style="fill: #0000ff; opacity: 0.7"/>
   </g>
   <g id="patch_9">
    <path d="M 91.999972 241.478125 
L 96.114098 241.478125 
L 96.114098 240.237065 
L 91.999972 240.237065 
z
" clip-path="url(#p6224b43832)" style="fill: #0000ff; opacity: 0.7"/>
   </g>
   <g id="patch_10">
    <path d="M 96.114098 241.478125 
L 100.228224 241.478125 
L 100.228224 239.898593 
L 96.114098 239.898593 
z
" clip-path="url(#p6224b43832)" style="fill: #0000ff; opacity: 0.7"/>
   </g>
   <g id="patch_11">
    <path d="M 100.228224 241.478125 
L 104.342351 241.478125 
L 104.342351 239.898593 
L 100.228224 239.898593 
z
" clip-path="url(#p6224b43832)" style="fill: #0000ff; opacity: 0.7"/>
   </g>
   <g id="patch_12">
    <path d="M 104.342351 241.478125 
L 108.456477 241.478125 
L 108.456477 239.108828 
L 104.342351 239.108828 
z
" clip-path="url(#p6224b43832)" style="fill: #0000ff; opacity: 0.7"/>
   </g>
   <g id="patch_13">
    <path d="M 108.456477 241.478125 
L 112.570604 241.478125 
L 112.570604 236.401059 
L 108.456477 236.401059 
z
" clip-path="url(#p6224b43832)" style="fill: #0000ff; opacity: 0.7"/>
   </g>
   <g id="patch_14">
    <path d="M 112.570604 241.478125 
L 116.68473 241.478125 
L 116.68473 234.59588 
L 112.570604 234.59588 
z
" clip-path="url(#p6224b43832)" style="fill: #0000ff; opacity: 0.7"/>
   </g>
   <g id="patch_15">
    <path d="M 116.68473 241.478125 
L 120.798856 241.478125 
L 120.798856 226.472575 
L 116.68473 226.472575 
z
" clip-path="url(#p6224b43832)" style="fill: #0000ff; opacity: 0.7"/>
   </g>
   <g id="patch_16">
    <path d="M 120.798856 241.478125 
L 124.912983 241.478125 
L 124.912983 211.918321 
L 120.798856 211.918321 
z
" clip-path="url(#p6224b43832)" style="fill: #0000ff; opacity: 0.7"/>
   </g>
   <g id="patch_17">
    <path d="M 124.912983 241.478125 
L 129.027109 241.478125 
L 129.027109 187.9997 
L 124.912983 187.9997 
z
" clip-path="url(#p6224b43832)" style="fill: #0000ff; opacity: 0.7"/>
   </g>
   <g id="patch_18">
    <path d="M 129.027109 241.478125 
L 133.141236 241.478125 
L 133.141236 131.58786 
L 129.027109 131.58786 
z
" clip-path="url(#p6224b43832)" style="fill: #0000ff; opacity: 0.7"/>
   </g>
   <g id="patch_19">
    <path d="M 133.141236 241.478125 
L 137.255362 241.478125 
L 137.255362 32.754315 
L 133.141236 32.754315 
z
" clip-path="url(#p6224b43832)" style="fill: #0000ff; opacity: 0.7"/>
   </g>
   <g id="patch_20">
    <path d="M 137.255362 241.478125 
L 141.369489 241.478125 
L 141.369489 55.431875 
L 137.255362 55.431875 
z
" clip-path="url(#p6224b43832)" style="fill: #0000ff; opacity: 0.7"/>
   </g>
   <g id="patch_21">
    <path d="M 141.369489 241.478125 
L 145.483615 241.478125 
L 145.483615 70.775896 
L 141.369489 70.775896 
z
" clip-path="url(#p6224b43832)" style="fill: #0000ff; opacity: 0.7"/>
   </g>
   <g id="patch_22">
    <path d="M 145.483615 241.478125 
L 149.597741 241.478125 
L 149.597741 121.7722 
L 145.483615 121.7722 
z
" clip-path="url(#p6224b43832)" style="fill: #0000ff; opacity: 0.7"/>
   </g>
   <g id="patch_23">
    <path d="M 149.597741 241.478125 
L 153.711868 241.478125 
L 153.711868 183.938048 
L 149.597741 183.938048 
z
" clip-path="url(#p6224b43832)" style="fill: #0000ff; opacity: 0.7"/>
   </g>
   <g id="patch_24">
    <path d="M 153.711868 241.478125 
L 157.825994 241.478125 
L 157.825994 208.646434 
L 153.711868 208.646434 
z
" clip-path="url(#p6224b43832)" style="fill: #0000ff; opacity: 0.7"/>
   </g>
   <g id="patch_25">
    <path d="M 157.825994 241.478125 
L 161.940121 241.478125 
L 161.940121 224.441749 
L 157.825994 224.441749 
z
" clip-path="url(#p6224b43832)" style="fill: #0000ff; opacity: 0.7"/>
   </g>
   <g id="patch_26">
    <path d="M 161.940121 241.478125 
L 166.054247 241.478125 
L 166.054247 229.06752 
L 161.940121 229.06752 
z
" clip-path="url(#p6224b43832)" style="fill: #0000ff; opacity: 0.7"/>
   </g>
   <g id="patch_27">
    <path d="M 166.054247 241.478125 
L 170.168374 241.478125 
L 170.168374 231.662465 
L 166.054247 231.662465 
z
" clip-path="url(#p6224b43832)" style="fill: #0000ff; opacity: 0.7"/>
   </g>
   <g id="patch_28">
    <path d="M 170.168374 241.478125 
L 174.2825 241.478125 
L 174.2825 231.888112 
L 170.168374 231.888112 
z
" clip-path="url(#p6224b43832)" style="fill: #0000ff; opacity: 0.7"/>
   </g>
   <g id="patch_29">
    <path d="M 174.2825 241.478125 
L 178.396626 241.478125 
L 178.396626 235.047175 
L 174.2825 235.047175 
z
" clip-path="url(#p6224b43832)" style="fill: #0000ff; opacity: 0.7"/>
   </g>
   <g id="patch_30">
    <path d="M 178.396626 241.478125 
L 182.510753 241.478125 
L 182.510753 237.980591 
L 178.396626 237.980591 
z
" clip-path="url(#p6224b43832)" style="fill: #0000ff; opacity: 0.7"/>
   </g>
   <g id="patch_31">
    <path d="M 182.510753 241.478125 
L 186.624879 241.478125 
L 186.624879 237.416472 
L 182.510753 237.416472 
z
" clip-path="url(#p6224b43832)" style="fill: #0000ff; opacity: 0.7"/>
   </g>
   <g id="patch_32">
    <path d="M 186.624879 241.478125 
L 190.739006 241.478125 
L 190.739006 238.544709 
L 186.624879 238.544709 
z
" clip-path="url(#p6224b43832)" style="fill: #0000ff; opacity: 0.7"/>
   </g>
   <g id="patch_33">
    <path d="M 190.739006 241.478125 
L 194.853132 241.478125 
L 194.853132 239.672946 
L 190.739006 239.672946 
z
" clip-path="url(#p6224b43832)" style="fill: #0000ff; opacity: 0.7"/>
   </g>
   <g id="patch_34">
    <path d="M 194.853132 241.478125 
L 198.967258 241.478125 
L 198.967258 240.124241 
L 194.853132 240.124241 
z
" clip-path="url(#p6224b43832)" style="fill: #0000ff; opacity: 0.7"/>
   </g>
   <g id="patch_35">
    <path d="M 198.967258 241.478125 
L 203.081385 241.478125 
L 203.081385 240.124241 
L 198.967258 240.124241 
z
" clip-path="url(#p6224b43832)" style="fill: #0000ff; opacity: 0.7"/>
   </g>
   <g id="patch_36">
    <path d="M 203.081385 241.478125 
L 207.195511 241.478125 
L 207.195511 240.349888 
L 203.081385 240.349888 
z
" clip-path="url(#p6224b43832)" style="fill: #0000ff; opacity: 0.7"/>
   </g>
   <g id="patch_37">
    <path d="M 207.195511 241.478125 
L 211.309638 241.478125 
L 211.309638 241.02683 
L 207.195511 241.02683 
z
" clip-path="url(#p6224b43832)" style="fill: #0000ff; opacity: 0.7"/>
   </g>
   <g id="patch_38">
    <path d="M 211.309638 241.478125 
L 215.423764 241.478125 
L 215.423764 241.139654 
L 211.309638 241.139654 
z
" clip-path="url(#p6224b43832)" style="fill: #0000ff; opacity: 0.7"/>
   </g>
   <g id="patch_39">
    <path d="M 215.423764 241.478125 
L 219.537891 241.478125 
L 219.537891 240.801183 
L 215.423764 240.801183 
z
" clip-path="url(#p6224b43832)" style="fill: #0000ff; opacity: 0.7"/>
   </g>
   <g id="patch_40">
    <path d="M 219.537891 241.478125 
L 223.652017 241.478125 
L 223.652017 241.252478 
L 219.537891 241.252478 
z
" clip-path="url(#p6224b43832)" style="fill: #0000ff; opacity: 0.7"/>
   </g>
   <g id="patch_41">
    <path d="M 223.652017 241.478125 
L 227.766143 241.478125 
L 227.766143 241.365301 
L 223.652017 241.365301 
z
" clip-path="url(#p6224b43832)" style="fill: #0000ff; opacity: 0.7"/>
   </g>
   <g id="patch_42">
    <path d="M 227.766143 241.478125 
L 231.88027 241.478125 
L 231.88027 241.252478 
L 227.766143 241.252478 
z
" clip-path="url(#p6224b43832)" style="fill: #0000ff; opacity: 0.7"/>
   </g>
   <g id="patch_43">
    <path d="M 231.88027 241.478125 
L 235.994396 241.478125 
L 235.994396 241.139654 
L 231.88027 241.139654 
z
" clip-path="url(#p6224b43832)" style="fill: #0000ff; opacity: 0.7"/>
   </g>
   <g id="patch_44">
    <path d="M 235.994396 241.478125 
L 240.108523 241.478125 
L 240.108523 241.252478 
L 235.994396 241.252478 
z
" clip-path="url(#p6224b43832)" style="fill: #0000ff; opacity: 0.7"/>
   </g>
   <g id="patch_45">
    <path d="M 240.108523 241.478125 
L 244.222649 241.478125 
L 244.222649 241.478125 
L 240.108523 241.478125 
z
" clip-path="url(#p6224b43832)" style="fill: #0000ff; opacity: 0.7"/>
   </g>
   <g id="patch_46">
    <path d="M 244.222649 241.478125 
L 248.336776 241.478125 
L 248.336776 241.365301 
L 244.222649 241.365301 
z
" clip-path="url(#p6224b43832)" style="fill: #0000ff; opacity: 0.7"/>
   </g>
   <g id="patch_47">
    <path d="M 248.336776 241.478125 
L 252.450902 241.478125 
L 252.450902 241.478125 
L 248.336776 241.478125 
z
" clip-path="url(#p6224b43832)" style="fill: #0000ff; opacity: 0.7"/>
   </g>
   <g id="patch_48">
    <path d="M 252.450902 241.478125 
L 256.565028 241.478125 
L 256.565028 241.478125 
L 252.450902 241.478125 
z
" clip-path="url(#p6224b43832)" style="fill: #0000ff; opacity: 0.7"/>
   </g>
   <g id="patch_49">
    <path d="M 256.565028 241.478125 
L 260.679155 241.478125 
L 260.679155 241.478125 
L 256.565028 241.478125 
z
" clip-path="url(#p6224b43832)" style="fill: #0000ff; opacity: 0.7"/>
   </g>
   <g id="patch_50">
    <path d="M 260.679155 241.478125 
L 264.793281 241.478125 
L 264.793281 241.478125 
L 260.679155 241.478125 
z
" clip-path="url(#p6224b43832)" style="fill: #0000ff; opacity: 0.7"/>
   </g>
   <g id="patch_51">
    <path d="M 264.793281 241.478125 
L 268.907408 241.478125 
L 268.907408 241.478125 
L 264.793281 241.478125 
z
" clip-path="url(#p6224b43832)" style="fill: #0000ff; opacity: 0.7"/>
   </g>
   <g id="patch_52">
    <path d="M 268.907408 241.478125 
L 273.021534 241.478125 
L 273.021534 241.365301 
L 268.907408 241.365301 
z
" clip-path="url(#p6224b43832)" style="fill: #0000ff; opacity: 0.7"/>
   </g>
   <g id="patch_53">
    <path d="M 63.789716 241.478125 
L 66.889173 241.478125 
L 66.889173 241.365301 
L 63.789716 241.365301 
z
" clip-path="url(#p6224b43832)" style="fill: #ff0000; opacity: 0.7"/>
   </g>
   <g id="patch_54">
    <path d="M 66.889173 241.478125 
L 69.98863 241.478125 
L 69.98863 241.478125 
L 66.889173 241.478125 
z
" clip-path="url(#p6224b43832)" style="fill: #ff0000; opacity: 0.7"/>
   </g>
   <g id="patch_55">
    <path d="M 69.98863 241.478125 
L 73.088088 241.478125 
L 73.088088 241.478125 
L 69.98863 241.478125 
z
" clip-path="url(#p6224b43832)" style="fill: #ff0000; opacity: 0.7"/>
   </g>
   <g id="patch_56">
    <path d="M 73.088088 241.478125 
L 76.187545 241.478125 
L 76.187545 241.478125 
L 73.088088 241.478125 
z
" clip-path="url(#p6224b43832)" style="fill: #ff0000; opacity: 0.7"/>
   </g>
   <g id="patch_57">
    <path d="M 76.187545 241.478125 
L 79.287002 241.478125 
L 79.287002 241.478125 
L 76.187545 241.478125 
z
" clip-path="url(#p6224b43832)" style="fill: #ff0000; opacity: 0.7"/>
   </g>
   <g id="patch_58">
    <path d="M 79.287002 241.478125 
L 82.38646 241.478125 
L 82.38646 241.478125 
L 79.287002 241.478125 
z
" clip-path="url(#p6224b43832)" style="fill: #ff0000; opacity: 0.7"/>
   </g>
   <g id="patch_59">
    <path d="M 82.38646 241.478125 
L 85.485917 241.478125 
L 85.485917 241.365301 
L 82.38646 241.365301 
z
" clip-path="url(#p6224b43832)" style="fill: #ff0000; opacity: 0.7"/>
   </g>
   <g id="patch_60">
    <path d="M 85.485917 241.478125 
L 88.585374 241.478125 
L 88.585374 241.478125 
L 85.485917 241.478125 
z
" clip-path="url(#p6224b43832)" style="fill: #ff0000; opacity: 0.7"/>
   </g>
   <g id="patch_61">
    <path d="M 88.585374 241.478125 
L 91.684831 241.478125 
L 91.684831 241.252478 
L 88.585374 241.252478 
z
" clip-path="url(#p6224b43832)" style="fill: #ff0000; opacity: 0.7"/>
   </g>
   <g id="patch_62">
    <path d="M 91.684831 241.478125 
L 94.784289 241.478125 
L 94.784289 241.02683 
L 91.684831 241.02683 
z
" clip-path="url(#p6224b43832)" style="fill: #ff0000; opacity: 0.7"/>
   </g>
   <g id="patch_63">
    <path d="M 94.784289 241.478125 
L 97.883746 241.478125 
L 97.883746 240.688359 
L 94.784289 240.688359 
z
" clip-path="url(#p6224b43832)" style="fill: #ff0000; opacity: 0.7"/>
   </g>
   <g id="patch_64">
    <path d="M 97.883746 241.478125 
L 100.983203 241.478125 
L 100.983203 239.560122 
L 97.883746 239.560122 
z
" clip-path="url(#p6224b43832)" style="fill: #ff0000; opacity: 0.7"/>
   </g>
   <g id="patch_65">
    <path d="M 100.983203 241.478125 
L 104.082661 241.478125 
L 104.082661 238.319062 
L 100.983203 238.319062 
z
" clip-path="url(#p6224b43832)" style="fill: #ff0000; opacity: 0.7"/>
   </g>
   <g id="patch_66">
    <path d="M 104.082661 241.478125 
L 107.182118 241.478125 
L 107.182118 236.73953 
L 104.082661 236.73953 
z
" clip-path="url(#p6224b43832)" style="fill: #ff0000; opacity: 0.7"/>
   </g>
   <g id="patch_67">
    <path d="M 107.182118 241.478125 
L 110.281575 241.478125 
L 110.281575 233.016349 
L 107.182118 233.016349 
z
" clip-path="url(#p6224b43832)" style="fill: #ff0000; opacity: 0.7"/>
   </g>
   <g id="patch_68">
    <path d="M 110.281575 241.478125 
L 113.381032 241.478125 
L 113.381032 228.954696 
L 110.281575 228.954696 
z
" clip-path="url(#p6224b43832)" style="fill: #ff0000; opacity: 0.7"/>
   </g>
   <g id="patch_69">
    <path d="M 113.381032 241.478125 
L 116.48049 241.478125 
L 116.48049 222.410923 
L 113.381032 222.410923 
z
" clip-path="url(#p6224b43832)" style="fill: #ff0000; opacity: 0.7"/>
   </g>
   <g id="patch_70">
    <path d="M 116.48049 241.478125 
L 119.579947 241.478125 
L 119.579947 212.933734 
L 116.48049 212.933734 
z
" clip-path="url(#p6224b43832)" style="fill: #ff0000; opacity: 0.7"/>
   </g>
   <g id="patch_71">
    <path d="M 119.579947 241.478125 
L 122.679404 241.478125 
L 122.679404 206.051489 
L 119.579947 206.051489 
z
" clip-path="url(#p6224b43832)" style="fill: #ff0000; opacity: 0.7"/>
   </g>
   <g id="patch_72">
    <path d="M 122.679404 241.478125 
L 125.778862 241.478125 
L 125.778862 194.881945 
L 122.679404 194.881945 
z
" clip-path="url(#p6224b43832)" style="fill: #ff0000; opacity: 0.7"/>
   </g>
   <g id="patch_73">
    <path d="M 125.778862 241.478125 
L 128.878319 241.478125 
L 128.878319 185.066285 
L 125.778862 185.066285 
z
" clip-path="url(#p6224b43832)" style="fill: #ff0000; opacity: 0.7"/>
   </g>
   <g id="patch_74">
    <path d="M 128.878319 241.478125 
L 131.977776 241.478125 
L 131.977776 174.79933 
L 128.878319 174.79933 
z
" clip-path="url(#p6224b43832)" style="fill: #ff0000; opacity: 0.7"/>
   </g>
   <g id="patch_75">
    <path d="M 131.977776 241.478125 
L 135.077234 241.478125 
L 135.077234 160.470722 
L 131.977776 160.470722 
z
" clip-path="url(#p6224b43832)" style="fill: #ff0000; opacity: 0.7"/>
   </g>
   <g id="patch_76">
    <path d="M 135.077234 241.478125 
L 138.176691 241.478125 
L 138.176691 154.829538 
L 135.077234 154.829538 
z
" clip-path="url(#p6224b43832)" style="fill: #ff0000; opacity: 0.7"/>
   </g>
   <g id="patch_77">
    <path d="M 138.176691 241.478125 
L 141.276148 241.478125 
L 141.276148 153.475654 
L 138.176691 153.475654 
z
" clip-path="url(#p6224b43832)" style="fill: #ff0000; opacity: 0.7"/>
   </g>
   <g id="patch_78">
    <path d="M 141.276148 241.478125 
L 144.375605 241.478125 
L 144.375605 152.911536 
L 141.276148 152.911536 
z
" clip-path="url(#p6224b43832)" style="fill: #ff0000; opacity: 0.7"/>
   </g>
   <g id="patch_79">
    <path d="M 144.375605 241.478125 
L 147.475063 241.478125 
L 147.475063 157.762954 
L 144.375605 157.762954 
z
" clip-path="url(#p6224b43832)" style="fill: #ff0000; opacity: 0.7"/>
   </g>
   <g id="patch_80">
    <path d="M 147.475063 241.478125 
L 150.57452 241.478125 
L 150.57452 162.275901 
L 147.475063 162.275901 
z
" clip-path="url(#p6224b43832)" style="fill: #ff0000; opacity: 0.7"/>
   </g>
   <g id="patch_81">
    <path d="M 150.57452 241.478125 
L 153.673977 241.478125 
L 153.673977 175.137801 
L 150.57452 175.137801 
z
" clip-path="url(#p6224b43832)" style="fill: #ff0000; opacity: 0.7"/>
   </g>
   <g id="patch_82">
    <path d="M 153.673977 241.478125 
L 156.773435 241.478125 
L 156.773435 181.907222 
L 153.673977 181.907222 
z
" clip-path="url(#p6224b43832)" style="fill: #ff0000; opacity: 0.7"/>
   </g>
   <g id="patch_83">
    <path d="M 156.773435 241.478125 
L 159.872892 241.478125 
L 159.872892 195.558887 
L 156.773435 195.558887 
z
" clip-path="url(#p6224b43832)" style="fill: #ff0000; opacity: 0.7"/>
   </g>
   <g id="patch_84">
    <path d="M 159.872892 241.478125 
L 162.972349 241.478125 
L 162.972349 203.795016 
L 159.872892 203.795016 
z
" clip-path="url(#p6224b43832)" style="fill: #ff0000; opacity: 0.7"/>
   </g>
   <g id="patch_85">
    <path d="M 162.972349 241.478125 
L 166.071806 241.478125 
L 166.071806 216.092797 
L 162.972349 216.092797 
z
" clip-path="url(#p6224b43832)" style="fill: #ff0000; opacity: 0.7"/>
   </g>
   <g id="patch_86">
    <path d="M 166.071806 241.478125 
L 169.171264 241.478125 
L 169.171264 222.63657 
L 166.071806 222.63657 
z
" clip-path="url(#p6224b43832)" style="fill: #ff0000; opacity: 0.7"/>
   </g>
   <g id="patch_87">
    <path d="M 169.171264 241.478125 
L 172.270721 241.478125 
L 172.270721 228.841873 
L 169.171264 228.841873 
z
" clip-path="url(#p6224b43832)" style="fill: #ff0000; opacity: 0.7"/>
   </g>
   <g id="patch_88">
    <path d="M 172.270721 241.478125 
L 175.370178 241.478125 
L 175.370178 233.241996 
L 172.270721 233.241996 
z
" clip-path="url(#p6224b43832)" style="fill: #ff0000; opacity: 0.7"/>
   </g>
   <g id="patch_89">
    <path d="M 175.370178 241.478125 
L 178.469636 241.478125 
L 178.469636 235.836941 
L 175.370178 235.836941 
z
" clip-path="url(#p6224b43832)" style="fill: #ff0000; opacity: 0.7"/>
   </g>
   <g id="patch_90">
    <path d="M 178.469636 241.478125 
L 181.569093 241.478125 
L 181.569093 238.319062 
L 178.469636 238.319062 
z
" clip-path="url(#p6224b43832)" style="fill: #ff0000; opacity: 0.7"/>
   </g>
   <g id="patch_91">
    <path d="M 181.569093 241.478125 
L 184.66855 241.478125 
L 184.66855 239.78577 
L 181.569093 239.78577 
z
" clip-path="url(#p6224b43832)" style="fill: #ff0000; opacity: 0.7"/>
   </g>
   <g id="patch_92">
    <path d="M 184.66855 241.478125 
L 187.768007 241.478125 
L 187.768007 240.801183 
L 184.66855 240.801183 
z
" clip-path="url(#p6224b43832)" style="fill: #ff0000; opacity: 0.7"/>
   </g>
   <g id="patch_93">
    <path d="M 187.768007 241.478125 
L 190.867465 241.478125 
L 190.867465 240.914007 
L 187.768007 240.914007 
z
" clip-path="url(#p6224b43832)" style="fill: #ff0000; opacity: 0.7"/>
   </g>
   <g id="patch_94">
    <path d="M 190.867465 241.478125 
L 193.966922 241.478125 
L 193.966922 241.478125 
L 190.867465 241.478125 
z
" clip-path="url(#p6224b43832)" style="fill: #ff0000; opacity: 0.7"/>
   </g>
   <g id="patch_95">
    <path d="M 193.966922 241.478125 
L 197.066379 241.478125 
L 197.066379 241.478125 
L 193.966922 241.478125 
z
" clip-path="url(#p6224b43832)" style="fill: #ff0000; opacity: 0.7"/>
   </g>
   <g id="patch_96">
    <path d="M 197.066379 241.478125 
L 200.165837 241.478125 
L 200.165837 241.478125 
L 197.066379 241.478125 
z
" clip-path="url(#p6224b43832)" style="fill: #ff0000; opacity: 0.7"/>
   </g>
   <g id="patch_97">
    <path d="M 200.165837 241.478125 
L 203.265294 241.478125 
L 203.265294 241.478125 
L 200.165837 241.478125 
z
" clip-path="url(#p6224b43832)" style="fill: #ff0000; opacity: 0.7"/>
   </g>
   <g id="patch_98">
    <path d="M 203.265294 241.478125 
L 206.364751 241.478125 
L 206.364751 241.478125 
L 203.265294 241.478125 
z
" clip-path="url(#p6224b43832)" style="fill: #ff0000; opacity: 0.7"/>
   </g>
   <g id="patch_99">
    <path d="M 206.364751 241.478125 
L 209.464208 241.478125 
L 209.464208 241.478125 
L 206.364751 241.478125 
z
" clip-path="url(#p6224b43832)" style="fill: #ff0000; opacity: 0.7"/>
   </g>
   <g id="patch_100">
    <path d="M 209.464208 241.478125 
L 212.563666 241.478125 
L 212.563666 241.478125 
L 209.464208 241.478125 
z
" clip-path="url(#p6224b43832)" style="fill: #ff0000; opacity: 0.7"/>
   </g>
   <g id="patch_101">
    <path d="M 212.563666 241.478125 
L 215.663123 241.478125 
L 215.663123 241.478125 
L 212.563666 241.478125 
z
" clip-path="url(#p6224b43832)" style="fill: #ff0000; opacity: 0.7"/>
   </g>
   <g id="patch_102">
    <path d="M 215.663123 241.478125 
L 218.76258 241.478125 
L 218.76258 241.365301 
L 215.663123 241.365301 
z
" clip-path="url(#p6224b43832)" style="fill: #ff0000; opacity: 0.7"/>
   </g>
   <g id="matplotlib.axis_1">
    <g id="xtick_1">
     <g id="line2d_1">
      <defs>
       <path id="m53b04d3809" d="M 0 0 
L 0 3.5 
" style="stroke: #000000; stroke-width: 0.8"/>
      </defs>
      <g>
       <use xlink:href="#m53b04d3809" x="66.760471" y="241.478125" style="stroke: #000000; stroke-width: 0.8"/>
      </g>
     </g>
     <g id="text_1">
      <!-- −5.0 -->
      <g transform="translate(54.619065 256.076563) scale(0.1 -0.1)">
       <defs>
        <path id="DejaVuSans-2212" d="M 678 2272 
L 4684 2272 
L 4684 1741 
L 678 1741 
L 678 2272 
z
" transform="scale(0.015625)"/>
        <path id="DejaVuSans-35" d="M 691 4666 
L 3169 4666 
L 3169 4134 
L 1269 4134 
L 1269 2991 
Q 1406 3038 1543 3061 
Q 1681 3084 1819 3084 
Q 2600 3084 3056 2656 
Q 3513 2228 3513 1497 
Q 3513 744 3044 326 
Q 2575 -91 1722 -91 
Q 1428 -91 1123 -41 
Q 819 9 494 109 
L 494 744 
Q 775 591 1075 516 
Q 1375 441 1709 441 
Q 2250 441 2565 725 
Q 2881 1009 2881 1497 
Q 2881 1984 2565 2268 
Q 2250 2553 1709 2553 
Q 1456 2553 1204 2497 
Q 953 2441 691 2322 
L 691 4666 
z
" transform="scale(0.015625)"/>
        <path id="DejaVuSans-2e" d="M 684 794 
L 1344 794 
L 1344 0 
L 684 0 
L 684 794 
z
" transform="scale(0.015625)"/>
        <path id="DejaVuSans-30" d="M 2034 4250 
Q 1547 4250 1301 3770 
Q 1056 3291 1056 2328 
Q 1056 1369 1301 889 
Q 1547 409 2034 409 
Q 2525 409 2770 889 
Q 3016 1369 3016 2328 
Q 3016 3291 2770 3770 
Q 2525 4250 2034 4250 
z
M 2034 4750 
Q 2819 4750 3233 4129 
Q 3647 3509 3647 2328 
Q 3647 1150 3233 529 
Q 2819 -91 2034 -91 
Q 1250 -91 836 529 
Q 422 1150 422 2328 
Q 422 3509 836 4129 
Q 1250 4750 2034 4750 
z
" transform="scale(0.015625)"/>
       </defs>
       <use xlink:href="#DejaVuSans-2212"/>
       <use xlink:href="#DejaVuSans-35" x="83.789062"/>
       <use xlink:href="#DejaVuSans-2e" x="147.412109"/>
       <use xlink:href="#DejaVuSans-30" x="179.199219"/>
      </g>
     </g>
    </g>
    <g id="xtick_2">
     <g id="line2d_2">
      <g>
       <use xlink:href="#m53b04d3809" x="104.018309" y="241.478125" style="stroke: #000000; stroke-width: 0.8"/>
      </g>
     </g>
     <g id="text_2">
      <!-- −2.5 -->
      <g transform="translate(91.876903 256.076563) scale(0.1 -0.1)">
       <defs>
        <path id="DejaVuSans-32" d="M 1228 531 
L 3431 531 
L 3431 0 
L 469 0 
L 469 531 
Q 828 903 1448 1529 
Q 2069 2156 2228 2338 
Q 2531 2678 2651 2914 
Q 2772 3150 2772 3378 
Q 2772 3750 2511 3984 
Q 2250 4219 1831 4219 
Q 1534 4219 1204 4116 
Q 875 4013 500 3803 
L 500 4441 
Q 881 4594 1212 4672 
Q 1544 4750 1819 4750 
Q 2544 4750 2975 4387 
Q 3406 4025 3406 3419 
Q 3406 3131 3298 2873 
Q 3191 2616 2906 2266 
Q 2828 2175 2409 1742 
Q 1991 1309 1228 531 
z
" transform="scale(0.015625)"/>
       </defs>
       <use xlink:href="#DejaVuSans-2212"/>
       <use xlink:href="#DejaVuSans-32" x="83.789062"/>
       <use xlink:href="#DejaVuSans-2e" x="147.412109"/>
       <use xlink:href="#DejaVuSans-35" x="179.199219"/>
      </g>
     </g>
    </g>
    <g id="xtick_3">
     <g id="line2d_3">
      <g>
       <use xlink:href="#m53b04d3809" x="141.276148" y="241.478125" style="stroke: #000000; stroke-width: 0.8"/>
      </g>
     </g>
     <g id="text_3">
      <!-- 0.0 -->
      <g transform="translate(133.324586 256.076563) scale(0.1 -0.1)">
       <use xlink:href="#DejaVuSans-30"/>
       <use xlink:href="#DejaVuSans-2e" x="63.623047"/>
       <use xlink:href="#DejaVuSans-30" x="95.410156"/>
      </g>
     </g>
    </g>
    <g id="xtick_4">
     <g id="line2d_4">
      <g>
       <use xlink:href="#m53b04d3809" x="178.533987" y="241.478125" style="stroke: #000000; stroke-width: 0.8"/>
      </g>
     </g>
     <g id="text_4">
      <!-- 2.5 -->
      <g transform="translate(170.582424 256.076563) scale(0.1 -0.1)">
       <use xlink:href="#DejaVuSans-32"/>
       <use xlink:href="#DejaVuSans-2e" x="63.623047"/>
       <use xlink:href="#DejaVuSans-35" x="95.410156"/>
      </g>
     </g>
    </g>
    <g id="xtick_5">
     <g id="line2d_5">
      <g>
       <use xlink:href="#m53b04d3809" x="215.791825" y="241.478125" style="stroke: #000000; stroke-width: 0.8"/>
      </g>
     </g>
     <g id="text_5">
      <!-- 5.0 -->
      <g transform="translate(207.840263 256.076563) scale(0.1 -0.1)">
       <use xlink:href="#DejaVuSans-35"/>
       <use xlink:href="#DejaVuSans-2e" x="63.623047"/>
       <use xlink:href="#DejaVuSans-30" x="95.410156"/>
      </g>
     </g>
    </g>
    <g id="xtick_6">
     <g id="line2d_6">
      <g>
       <use xlink:href="#m53b04d3809" x="253.049664" y="241.478125" style="stroke: #000000; stroke-width: 0.8"/>
      </g>
     </g>
     <g id="text_6">
      <!-- 7.5 -->
      <g transform="translate(245.098101 256.076563) scale(0.1 -0.1)">
       <defs>
        <path id="DejaVuSans-37" d="M 525 4666 
L 3525 4666 
L 3525 4397 
L 1831 0 
L 1172 0 
L 2766 4134 
L 525 4134 
L 525 4666 
z
" transform="scale(0.015625)"/>
       </defs>
       <use xlink:href="#DejaVuSans-37"/>
       <use xlink:href="#DejaVuSans-2e" x="63.623047"/>
       <use xlink:href="#DejaVuSans-35" x="95.410156"/>
      </g>
     </g>
    </g>
    <g id="text_7">
     <!-- log2fc Value -->
     <g transform="translate(137.772031 269.754687) scale(0.1 -0.1)">
      <defs>
       <path id="DejaVuSans-6c" d="M 603 4863 
L 1178 4863 
L 1178 0 
L 603 0 
L 603 4863 
z
" transform="scale(0.015625)"/>
       <path id="DejaVuSans-6f" d="M 1959 3097 
Q 1497 3097 1228 2736 
Q 959 2375 959 1747 
Q 959 1119 1226 758 
Q 1494 397 1959 397 
Q 2419 397 2687 759 
Q 2956 1122 2956 1747 
Q 2956 2369 2687 2733 
Q 2419 3097 1959 3097 
z
M 1959 3584 
Q 2709 3584 3137 3096 
Q 3566 2609 3566 1747 
Q 3566 888 3137 398 
Q 2709 -91 1959 -91 
Q 1206 -91 779 398 
Q 353 888 353 1747 
Q 353 2609 779 3096 
Q 1206 3584 1959 3584 
z
" transform="scale(0.015625)"/>
       <path id="DejaVuSans-67" d="M 2906 1791 
Q 2906 2416 2648 2759 
Q 2391 3103 1925 3103 
Q 1463 3103 1205 2759 
Q 947 2416 947 1791 
Q 947 1169 1205 825 
Q 1463 481 1925 481 
Q 2391 481 2648 825 
Q 2906 1169 2906 1791 
z
M 3481 434 
Q 3481 -459 3084 -895 
Q 2688 -1331 1869 -1331 
Q 1566 -1331 1297 -1286 
Q 1028 -1241 775 -1147 
L 775 -588 
Q 1028 -725 1275 -790 
Q 1522 -856 1778 -856 
Q 2344 -856 2625 -561 
Q 2906 -266 2906 331 
L 2906 616 
Q 2728 306 2450 153 
Q 2172 0 1784 0 
Q 1141 0 747 490 
Q 353 981 353 1791 
Q 353 2603 747 3093 
Q 1141 3584 1784 3584 
Q 2172 3584 2450 3431 
Q 2728 3278 2906 2969 
L 2906 3500 
L 3481 3500 
L 3481 434 
z
" transform="scale(0.015625)"/>
       <path id="DejaVuSans-66" d="M 2375 4863 
L 2375 4384 
L 1825 4384 
Q 1516 4384 1395 4259 
Q 1275 4134 1275 3809 
L 1275 3500 
L 2222 3500 
L 2222 3053 
L 1275 3053 
L 1275 0 
L 697 0 
L 697 3053 
L 147 3053 
L 147 3500 
L 697 3500 
L 697 3744 
Q 697 4328 969 4595 
Q 1241 4863 1831 4863 
L 2375 4863 
z
" transform="scale(0.015625)"/>
       <path id="DejaVuSans-63" d="M 3122 3366 
L 3122 2828 
Q 2878 2963 2633 3030 
Q 2388 3097 2138 3097 
Q 1578 3097 1268 2742 
Q 959 2388 959 1747 
Q 959 1106 1268 751 
Q 1578 397 2138 397 
Q 2388 397 2633 464 
Q 2878 531 3122 666 
L 3122 134 
Q 2881 22 2623 -34 
Q 2366 -91 2075 -91 
Q 1284 -91 818 406 
Q 353 903 353 1747 
Q 353 2603 823 3093 
Q 1294 3584 2113 3584 
Q 2378 3584 2631 3529 
Q 2884 3475 3122 3366 
z
" transform="scale(0.015625)"/>
       <path id="DejaVuSans-20" transform="scale(0.015625)"/>
       <path id="DejaVuSans-56" d="M 1831 0 
L 50 4666 
L 709 4666 
L 2188 738 
L 3669 4666 
L 4325 4666 
L 2547 0 
L 1831 0 
z
" transform="scale(0.015625)"/>
       <path id="DejaVuSans-61" d="M 2194 1759 
Q 1497 1759 1228 1600 
Q 959 1441 959 1056 
Q 959 750 1161 570 
Q 1363 391 1709 391 
Q 2188 391 2477 730 
Q 2766 1069 2766 1631 
L 2766 1759 
L 2194 1759 
z
M 3341 1997 
L 3341 0 
L 2766 0 
L 2766 531 
Q 2569 213 2275 61 
Q 1981 -91 1556 -91 
Q 1019 -91 701 211 
Q 384 513 384 1019 
Q 384 1609 779 1909 
Q 1175 2209 1959 2209 
L 2766 2209 
L 2766 2266 
Q 2766 2663 2505 2880 
Q 2244 3097 1772 3097 
Q 1472 3097 1187 3025 
Q 903 2953 641 2809 
L 641 3341 
Q 956 3463 1253 3523 
Q 1550 3584 1831 3584 
Q 2591 3584 2966 3190 
Q 3341 2797 3341 1997 
z
" transform="scale(0.015625)"/>
       <path id="DejaVuSans-75" d="M 544 1381 
L 544 3500 
L 1119 3500 
L 1119 1403 
Q 1119 906 1312 657 
Q 1506 409 1894 409 
Q 2359 409 2629 706 
Q 2900 1003 2900 1516 
L 2900 3500 
L 3475 3500 
L 3475 0 
L 2900 0 
L 2900 538 
Q 2691 219 2414 64 
Q 2138 -91 1772 -91 
Q 1169 -91 856 284 
Q 544 659 544 1381 
z
M 1991 3584 
L 1991 3584 
z
" transform="scale(0.015625)"/>
       <path id="DejaVuSans-65" d="M 3597 1894 
L 3597 1613 
L 953 1613 
Q 991 1019 1311 708 
Q 1631 397 2203 397 
Q 2534 397 2845 478 
Q 3156 559 3463 722 
L 3463 178 
Q 3153 47 2828 -22 
Q 2503 -91 2169 -91 
Q 1331 -91 842 396 
Q 353 884 353 1716 
Q 353 2575 817 3079 
Q 1281 3584 2069 3584 
Q 2775 3584 3186 3129 
Q 3597 2675 3597 1894 
z
M 3022 2063 
Q 3016 2534 2758 2815 
Q 2500 3097 2075 3097 
Q 1594 3097 1305 2825 
Q 1016 2553 972 2059 
L 3022 2063 
z
" transform="scale(0.015625)"/>
      </defs>
      <use xlink:href="#DejaVuSans-6c"/>
      <use xlink:href="#DejaVuSans-6f" x="27.783203"/>
      <use xlink:href="#DejaVuSans-67" x="88.964844"/>
      <use xlink:href="#DejaVuSans-32" x="152.441406"/>
      <use xlink:href="#DejaVuSans-66" x="216.064453"/>
      <use xlink:href="#DejaVuSans-63" x="251.269531"/>
      <use xlink:href="#DejaVuSans-20" x="306.25"/>
      <use xlink:href="#DejaVuSans-56" x="338.037109"/>
      <use xlink:href="#DejaVuSans-61" x="398.695312"/>
      <use xlink:href="#DejaVuSans-6c" x="459.974609"/>
      <use xlink:href="#DejaVuSans-75" x="487.757812"/>
      <use xlink:href="#DejaVuSans-65" x="551.136719"/>
     </g>
    </g>
   </g>
   <g id="matplotlib.axis_2">
    <g id="ytick_1">
     <g id="line2d_7">
      <defs>
       <path id="m6e0839b678" d="M 0 0 
L -3.5 0 
" style="stroke: #000000; stroke-width: 0.8"/>
      </defs>
      <g>
       <use xlink:href="#m6e0839b678" x="53.328125" y="241.478125" style="stroke: #000000; stroke-width: 0.8"/>
      </g>
     </g>
     <g id="text_8">
      <!-- 0 -->
      <g transform="translate(39.965625 245.277344) scale(0.1 -0.1)">
       <use xlink:href="#DejaVuSans-30"/>
      </g>
     </g>
    </g>
    <g id="ytick_2">
     <g id="line2d_8">
      <g>
       <use xlink:href="#m6e0839b678" x="53.328125" y="213.272205" style="stroke: #000000; stroke-width: 0.8"/>
      </g>
     </g>
     <g id="text_9">
      <!-- 500 -->
      <g transform="translate(27.240625 217.071424) scale(0.1 -0.1)">
       <use xlink:href="#DejaVuSans-35"/>
       <use xlink:href="#DejaVuSans-30" x="63.623047"/>
       <use xlink:href="#DejaVuSans-30" x="127.246094"/>
      </g>
     </g>
    </g>
    <g id="ytick_3">
     <g id="line2d_9">
      <g>
       <use xlink:href="#m6e0839b678" x="53.328125" y="185.066285" style="stroke: #000000; stroke-width: 0.8"/>
      </g>
     </g>
     <g id="text_10">
      <!-- 1000 -->
      <g transform="translate(20.878125 188.865503) scale(0.1 -0.1)">
       <defs>
        <path id="DejaVuSans-31" d="M 794 531 
L 1825 531 
L 1825 4091 
L 703 3866 
L 703 4441 
L 1819 4666 
L 2450 4666 
L 2450 531 
L 3481 531 
L 3481 0 
L 794 0 
L 794 531 
z
" transform="scale(0.015625)"/>
       </defs>
       <use xlink:href="#DejaVuSans-31"/>
       <use xlink:href="#DejaVuSans-30" x="63.623047"/>
       <use xlink:href="#DejaVuSans-30" x="127.246094"/>
       <use xlink:href="#DejaVuSans-30" x="190.869141"/>
      </g>
     </g>
    </g>
    <g id="ytick_4">
     <g id="line2d_10">
      <g>
       <use xlink:href="#m6e0839b678" x="53.328125" y="156.860364" style="stroke: #000000; stroke-width: 0.8"/>
      </g>
     </g>
     <g id="text_11">
      <!-- 1500 -->
      <g transform="translate(20.878125 160.659583) scale(0.1 -0.1)">
       <use xlink:href="#DejaVuSans-31"/>
       <use xlink:href="#DejaVuSans-35" x="63.623047"/>
       <use xlink:href="#DejaVuSans-30" x="127.246094"/>
       <use xlink:href="#DejaVuSans-30" x="190.869141"/>
      </g>
     </g>
    </g>
    <g id="ytick_5">
     <g id="line2d_11">
      <g>
       <use xlink:href="#m6e0839b678" x="53.328125" y="128.654444" style="stroke: #000000; stroke-width: 0.8"/>
      </g>
     </g>
     <g id="text_12">
      <!-- 2000 -->
      <g transform="translate(20.878125 132.453663) scale(0.1 -0.1)">
       <use xlink:href="#DejaVuSans-32"/>
       <use xlink:href="#DejaVuSans-30" x="63.623047"/>
       <use xlink:href="#DejaVuSans-30" x="127.246094"/>
       <use xlink:href="#DejaVuSans-30" x="190.869141"/>
      </g>
     </g>
    </g>
    <g id="ytick_6">
     <g id="line2d_12">
      <g>
       <use xlink:href="#m6e0839b678" x="53.328125" y="100.448524" style="stroke: #000000; stroke-width: 0.8"/>
      </g>
     </g>
     <g id="text_13">
      <!-- 2500 -->
      <g transform="translate(20.878125 104.247743) scale(0.1 -0.1)">
       <use xlink:href="#DejaVuSans-32"/>
       <use xlink:href="#DejaVuSans-35" x="63.623047"/>
       <use xlink:href="#DejaVuSans-30" x="127.246094"/>
       <use xlink:href="#DejaVuSans-30" x="190.869141"/>
      </g>
     </g>
    </g>
    <g id="ytick_7">
     <g id="line2d_13">
      <g>
       <use xlink:href="#m6e0839b678" x="53.328125" y="72.242604" style="stroke: #000000; stroke-width: 0.8"/>
      </g>
     </g>
     <g id="text_14">
      <!-- 3000 -->
      <g transform="translate(20.878125 76.041823) scale(0.1 -0.1)">
       <defs>
        <path id="DejaVuSans-33" d="M 2597 2516 
Q 3050 2419 3304 2112 
Q 3559 1806 3559 1356 
Q 3559 666 3084 287 
Q 2609 -91 1734 -91 
Q 1441 -91 1130 -33 
Q 819 25 488 141 
L 488 750 
Q 750 597 1062 519 
Q 1375 441 1716 441 
Q 2309 441 2620 675 
Q 2931 909 2931 1356 
Q 2931 1769 2642 2001 
Q 2353 2234 1838 2234 
L 1294 2234 
L 1294 2753 
L 1863 2753 
Q 2328 2753 2575 2939 
Q 2822 3125 2822 3475 
Q 2822 3834 2567 4026 
Q 2313 4219 1838 4219 
Q 1578 4219 1281 4162 
Q 984 4106 628 3988 
L 628 4550 
Q 988 4650 1302 4700 
Q 1616 4750 1894 4750 
Q 2613 4750 3031 4423 
Q 3450 4097 3450 3541 
Q 3450 3153 3228 2886 
Q 3006 2619 2597 2516 
z
" transform="scale(0.015625)"/>
       </defs>
       <use xlink:href="#DejaVuSans-33"/>
       <use xlink:href="#DejaVuSans-30" x="63.623047"/>
       <use xlink:href="#DejaVuSans-30" x="127.246094"/>
       <use xlink:href="#DejaVuSans-30" x="190.869141"/>
      </g>
     </g>
    </g>
    <g id="ytick_8">
     <g id="line2d_14">
      <g>
       <use xlink:href="#m6e0839b678" x="53.328125" y="44.036684" style="stroke: #000000; stroke-width: 0.8"/>
      </g>
     </g>
     <g id="text_15">
      <!-- 3500 -->
      <g transform="translate(20.878125 47.835902) scale(0.1 -0.1)">
       <use xlink:href="#DejaVuSans-33"/>
       <use xlink:href="#DejaVuSans-35" x="63.623047"/>
       <use xlink:href="#DejaVuSans-30" x="127.246094"/>
       <use xlink:href="#DejaVuSans-30" x="190.869141"/>
      </g>
     </g>
    </g>
    <g id="text_16">
     <!-- Frequency -->
     <g transform="translate(14.798438 157.727812) rotate(-90) scale(0.1 -0.1)">
      <defs>
       <path id="DejaVuSans-46" d="M 628 4666 
L 3309 4666 
L 3309 4134 
L 1259 4134 
L 1259 2759 
L 3109 2759 
L 3109 2228 
L 1259 2228 
L 1259 0 
L 628 0 
L 628 4666 
z
" transform="scale(0.015625)"/>
       <path id="DejaVuSans-72" d="M 2631 2963 
Q 2534 3019 2420 3045 
Q 2306 3072 2169 3072 
Q 1681 3072 1420 2755 
Q 1159 2438 1159 1844 
L 1159 0 
L 581 0 
L 581 3500 
L 1159 3500 
L 1159 2956 
Q 1341 3275 1631 3429 
Q 1922 3584 2338 3584 
Q 2397 3584 2469 3576 
Q 2541 3569 2628 3553 
L 2631 2963 
z
" transform="scale(0.015625)"/>
       <path id="DejaVuSans-71" d="M 947 1747 
Q 947 1113 1208 752 
Q 1469 391 1925 391 
Q 2381 391 2643 752 
Q 2906 1113 2906 1747 
Q 2906 2381 2643 2742 
Q 2381 3103 1925 3103 
Q 1469 3103 1208 2742 
Q 947 2381 947 1747 
z
M 2906 525 
Q 2725 213 2448 61 
Q 2172 -91 1784 -91 
Q 1150 -91 751 415 
Q 353 922 353 1747 
Q 353 2572 751 3078 
Q 1150 3584 1784 3584 
Q 2172 3584 2448 3432 
Q 2725 3281 2906 2969 
L 2906 3500 
L 3481 3500 
L 3481 -1331 
L 2906 -1331 
L 2906 525 
z
" transform="scale(0.015625)"/>
       <path id="DejaVuSans-6e" d="M 3513 2113 
L 3513 0 
L 2938 0 
L 2938 2094 
Q 2938 2591 2744 2837 
Q 2550 3084 2163 3084 
Q 1697 3084 1428 2787 
Q 1159 2491 1159 1978 
L 1159 0 
L 581 0 
L 581 3500 
L 1159 3500 
L 1159 2956 
Q 1366 3272 1645 3428 
Q 1925 3584 2291 3584 
Q 2894 3584 3203 3211 
Q 3513 2838 3513 2113 
z
" transform="scale(0.015625)"/>
       <path id="DejaVuSans-79" d="M 2059 -325 
Q 1816 -950 1584 -1140 
Q 1353 -1331 966 -1331 
L 506 -1331 
L 506 -850 
L 844 -850 
Q 1081 -850 1212 -737 
Q 1344 -625 1503 -206 
L 1606 56 
L 191 3500 
L 800 3500 
L 1894 763 
L 2988 3500 
L 3597 3500 
L 2059 -325 
z
" transform="scale(0.015625)"/>
      </defs>
      <use xlink:href="#DejaVuSans-46"/>
      <use xlink:href="#DejaVuSans-72" x="50.269531"/>
      <use xlink:href="#DejaVuSans-65" x="89.132812"/>
      <use xlink:href="#DejaVuSans-71" x="150.65625"/>
      <use xlink:href="#DejaVuSans-75" x="214.132812"/>
      <use xlink:href="#DejaVuSans-65" x="277.511719"/>
      <use xlink:href="#DejaVuSans-6e" x="339.035156"/>
      <use xlink:href="#DejaVuSans-63" x="402.414062"/>
      <use xlink:href="#DejaVuSans-79" x="457.394531"/>
     </g>
    </g>
   </g>
   <g id="patch_103">
    <path d="M 53.328125 241.478125 
L 53.328125 22.318125 
" style="fill: none; stroke: #000000; stroke-width: 0.8; stroke-linejoin: miter; stroke-linecap: square"/>
   </g>
   <g id="patch_104">
    <path d="M 283.483125 241.478125 
L 283.483125 22.318125 
" style="fill: none; stroke: #000000; stroke-width: 0.8; stroke-linejoin: miter; stroke-linecap: square"/>
   </g>
   <g id="patch_105">
    <path d="M 53.328125 241.478125 
L 283.483125 241.478125 
" style="fill: none; stroke: #000000; stroke-width: 0.8; stroke-linejoin: miter; stroke-linecap: square"/>
   </g>
   <g id="patch_106">
    <path d="M 53.328125 22.318125 
L 283.483125 22.318125 
" style="fill: none; stroke: #000000; stroke-width: 0.8; stroke-linejoin: miter; stroke-linecap: square"/>
   </g>
   <g id="text_17">
    <!-- Distribution of log2FC and normalised log2FC -->
    <g transform="translate(32.269375 16.318125) scale(0.12 -0.12)">
     <defs>
      <path id="DejaVuSans-44" d="M 1259 4147 
L 1259 519 
L 2022 519 
Q 2988 519 3436 956 
Q 3884 1394 3884 2338 
Q 3884 3275 3436 3711 
Q 2988 4147 2022 4147 
L 1259 4147 
z
M 628 4666 
L 1925 4666 
Q 3281 4666 3915 4102 
Q 4550 3538 4550 2338 
Q 4550 1131 3912 565 
Q 3275 0 1925 0 
L 628 0 
L 628 4666 
z
" transform="scale(0.015625)"/>
      <path id="DejaVuSans-69" d="M 603 3500 
L 1178 3500 
L 1178 0 
L 603 0 
L 603 3500 
z
M 603 4863 
L 1178 4863 
L 1178 4134 
L 603 4134 
L 603 4863 
z
" transform="scale(0.015625)"/>
      <path id="DejaVuSans-73" d="M 2834 3397 
L 2834 2853 
Q 2591 2978 2328 3040 
Q 2066 3103 1784 3103 
Q 1356 3103 1142 2972 
Q 928 2841 928 2578 
Q 928 2378 1081 2264 
Q 1234 2150 1697 2047 
L 1894 2003 
Q 2506 1872 2764 1633 
Q 3022 1394 3022 966 
Q 3022 478 2636 193 
Q 2250 -91 1575 -91 
Q 1294 -91 989 -36 
Q 684 19 347 128 
L 347 722 
Q 666 556 975 473 
Q 1284 391 1588 391 
Q 1994 391 2212 530 
Q 2431 669 2431 922 
Q 2431 1156 2273 1281 
Q 2116 1406 1581 1522 
L 1381 1569 
Q 847 1681 609 1914 
Q 372 2147 372 2553 
Q 372 3047 722 3315 
Q 1072 3584 1716 3584 
Q 2034 3584 2315 3537 
Q 2597 3491 2834 3397 
z
" transform="scale(0.015625)"/>
      <path id="DejaVuSans-74" d="M 1172 4494 
L 1172 3500 
L 2356 3500 
L 2356 3053 
L 1172 3053 
L 1172 1153 
Q 1172 725 1289 603 
Q 1406 481 1766 481 
L 2356 481 
L 2356 0 
L 1766 0 
Q 1100 0 847 248 
Q 594 497 594 1153 
L 594 3053 
L 172 3053 
L 172 3500 
L 594 3500 
L 594 4494 
L 1172 4494 
z
" transform="scale(0.015625)"/>
      <path id="DejaVuSans-62" d="M 3116 1747 
Q 3116 2381 2855 2742 
Q 2594 3103 2138 3103 
Q 1681 3103 1420 2742 
Q 1159 2381 1159 1747 
Q 1159 1113 1420 752 
Q 1681 391 2138 391 
Q 2594 391 2855 752 
Q 3116 1113 3116 1747 
z
M 1159 2969 
Q 1341 3281 1617 3432 
Q 1894 3584 2278 3584 
Q 2916 3584 3314 3078 
Q 3713 2572 3713 1747 
Q 3713 922 3314 415 
Q 2916 -91 2278 -91 
Q 1894 -91 1617 61 
Q 1341 213 1159 525 
L 1159 0 
L 581 0 
L 581 4863 
L 1159 4863 
L 1159 2969 
z
" transform="scale(0.015625)"/>
      <path id="DejaVuSans-43" d="M 4122 4306 
L 4122 3641 
Q 3803 3938 3442 4084 
Q 3081 4231 2675 4231 
Q 1875 4231 1450 3742 
Q 1025 3253 1025 2328 
Q 1025 1406 1450 917 
Q 1875 428 2675 428 
Q 3081 428 3442 575 
Q 3803 722 4122 1019 
L 4122 359 
Q 3791 134 3420 21 
Q 3050 -91 2638 -91 
Q 1578 -91 968 557 
Q 359 1206 359 2328 
Q 359 3453 968 4101 
Q 1578 4750 2638 4750 
Q 3056 4750 3426 4639 
Q 3797 4528 4122 4306 
z
" transform="scale(0.015625)"/>
      <path id="DejaVuSans-64" d="M 2906 2969 
L 2906 4863 
L 3481 4863 
L 3481 0 
L 2906 0 
L 2906 525 
Q 2725 213 2448 61 
Q 2172 -91 1784 -91 
Q 1150 -91 751 415 
Q 353 922 353 1747 
Q 353 2572 751 3078 
Q 1150 3584 1784 3584 
Q 2172 3584 2448 3432 
Q 2725 3281 2906 2969 
z
M 947 1747 
Q 947 1113 1208 752 
Q 1469 391 1925 391 
Q 2381 391 2643 752 
Q 2906 1113 2906 1747 
Q 2906 2381 2643 2742 
Q 2381 3103 1925 3103 
Q 1469 3103 1208 2742 
Q 947 2381 947 1747 
z
" transform="scale(0.015625)"/>
      <path id="DejaVuSans-6d" d="M 3328 2828 
Q 3544 3216 3844 3400 
Q 4144 3584 4550 3584 
Q 5097 3584 5394 3201 
Q 5691 2819 5691 2113 
L 5691 0 
L 5113 0 
L 5113 2094 
Q 5113 2597 4934 2840 
Q 4756 3084 4391 3084 
Q 3944 3084 3684 2787 
Q 3425 2491 3425 1978 
L 3425 0 
L 2847 0 
L 2847 2094 
Q 2847 2600 2669 2842 
Q 2491 3084 2119 3084 
Q 1678 3084 1418 2786 
Q 1159 2488 1159 1978 
L 1159 0 
L 581 0 
L 581 3500 
L 1159 3500 
L 1159 2956 
Q 1356 3278 1631 3431 
Q 1906 3584 2284 3584 
Q 2666 3584 2933 3390 
Q 3200 3197 3328 2828 
z
" transform="scale(0.015625)"/>
     </defs>
     <use xlink:href="#DejaVuSans-44"/>
     <use xlink:href="#DejaVuSans-69" x="77.001953"/>
     <use xlink:href="#DejaVuSans-73" x="104.785156"/>
     <use xlink:href="#DejaVuSans-74" x="156.884766"/>
     <use xlink:href="#DejaVuSans-72" x="196.09375"/>
     <use xlink:href="#DejaVuSans-69" x="237.207031"/>
     <use xlink:href="#DejaVuSans-62" x="264.990234"/>
     <use xlink:href="#DejaVuSans-75" x="328.466797"/>
     <use xlink:href="#DejaVuSans-74" x="391.845703"/>
     <use xlink:href="#DejaVuSans-69" x="431.054688"/>
     <use xlink:href="#DejaVuSans-6f" x="458.837891"/>
     <use xlink:href="#DejaVuSans-6e" x="520.019531"/>
     <use xlink:href="#DejaVuSans-20" x="583.398438"/>
     <use xlink:href="#DejaVuSans-6f" x="615.185547"/>
     <use xlink:href="#DejaVuSans-66" x="676.367188"/>
     <use xlink:href="#DejaVuSans-20" x="711.572266"/>
     <use xlink:href="#DejaVuSans-6c" x="743.359375"/>
     <use xlink:href="#DejaVuSans-6f" x="771.142578"/>
     <use xlink:href="#DejaVuSans-67" x="832.324219"/>
     <use xlink:href="#DejaVuSans-32" x="895.800781"/>
     <use xlink:href="#DejaVuSans-46" x="959.423828"/>
     <use xlink:href="#DejaVuSans-43" x="1016.943359"/>
     <use xlink:href="#DejaVuSans-20" x="1086.767578"/>
     <use xlink:href="#DejaVuSans-61" x="1118.554688"/>
     <use xlink:href="#DejaVuSans-6e" x="1179.833984"/>
     <use xlink:href="#DejaVuSans-64" x="1243.212891"/>
     <use xlink:href="#DejaVuSans-20" x="1306.689453"/>
     <use xlink:href="#DejaVuSans-6e" x="1338.476562"/>
     <use xlink:href="#DejaVuSans-6f" x="1401.855469"/>
     <use xlink:href="#DejaVuSans-72" x="1463.037109"/>
     <use xlink:href="#DejaVuSans-6d" x="1502.400391"/>
     <use xlink:href="#DejaVuSans-61" x="1599.8125"/>
     <use xlink:href="#DejaVuSans-6c" x="1661.091797"/>
     <use xlink:href="#DejaVuSans-69" x="1688.875"/>
     <use xlink:href="#DejaVuSans-73" x="1716.658203"/>
     <use xlink:href="#DejaVuSans-65" x="1768.757812"/>
     <use xlink:href="#DejaVuSans-64" x="1830.28125"/>
     <use xlink:href="#DejaVuSans-20" x="1893.757812"/>
     <use xlink:href="#DejaVuSans-6c" x="1925.544922"/>
     <use xlink:href="#DejaVuSans-6f" x="1953.328125"/>
     <use xlink:href="#DejaVuSans-67" x="2014.509766"/>
     <use xlink:href="#DejaVuSans-32" x="2077.986328"/>
     <use xlink:href="#DejaVuSans-46" x="2141.609375"/>
     <use xlink:href="#DejaVuSans-43" x="2199.128906"/>
    </g>
   </g>
   <g id="legend_1">
    <g id="patch_107">
     <path d="M 187.81125 59.674375 
L 276.483125 59.674375 
Q 278.483125 59.674375 278.483125 57.674375 
L 278.483125 29.318125 
Q 278.483125 27.318125 276.483125 27.318125 
L 187.81125 27.318125 
Q 185.81125 27.318125 185.81125 29.318125 
L 185.81125 57.674375 
Q 185.81125 59.674375 187.81125 59.674375 
z
" style="fill: #ffffff; opacity: 0.8; stroke: #cccccc; stroke-linejoin: miter"/>
    </g>
    <g id="patch_108">
     <path d="M 189.81125 38.916563 
L 209.81125 38.916563 
L 209.81125 31.916563 
L 189.81125 31.916563 
z
" style="fill: #0000ff; opacity: 0.7"/>
    </g>
    <g id="text_18">
     <!-- Original -->
     <g transform="translate(217.81125 38.916563) scale(0.1 -0.1)">
      <defs>
       <path id="DejaVuSans-4f" d="M 2522 4238 
Q 1834 4238 1429 3725 
Q 1025 3213 1025 2328 
Q 1025 1447 1429 934 
Q 1834 422 2522 422 
Q 3209 422 3611 934 
Q 4013 1447 4013 2328 
Q 4013 3213 3611 3725 
Q 3209 4238 2522 4238 
z
M 2522 4750 
Q 3503 4750 4090 4092 
Q 4678 3434 4678 2328 
Q 4678 1225 4090 567 
Q 3503 -91 2522 -91 
Q 1538 -91 948 565 
Q 359 1222 359 2328 
Q 359 3434 948 4092 
Q 1538 4750 2522 4750 
z
" transform="scale(0.015625)"/>
      </defs>
      <use xlink:href="#DejaVuSans-4f"/>
      <use xlink:href="#DejaVuSans-72" x="78.710938"/>
      <use xlink:href="#DejaVuSans-69" x="119.824219"/>
      <use xlink:href="#DejaVuSans-67" x="147.607422"/>
      <use xlink:href="#DejaVuSans-69" x="211.083984"/>
      <use xlink:href="#DejaVuSans-6e" x="238.867188"/>
      <use xlink:href="#DejaVuSans-61" x="302.246094"/>
      <use xlink:href="#DejaVuSans-6c" x="363.525391"/>
     </g>
    </g>
    <g id="patch_109">
     <path d="M 189.81125 53.594688 
L 209.81125 53.594688 
L 209.81125 46.594688 
L 189.81125 46.594688 
z
" style="fill: #ff0000; opacity: 0.7"/>
    </g>
    <g id="text_19">
     <!-- Normalised -->
     <g transform="translate(217.81125 53.594688) scale(0.1 -0.1)">
      <defs>
       <path id="DejaVuSans-4e" d="M 628 4666 
L 1478 4666 
L 3547 763 
L 3547 4666 
L 4159 4666 
L 4159 0 
L 3309 0 
L 1241 3903 
L 1241 0 
L 628 0 
L 628 4666 
z
" transform="scale(0.015625)"/>
      </defs>
      <use xlink:href="#DejaVuSans-4e"/>
      <use xlink:href="#DejaVuSans-6f" x="74.804688"/>
      <use xlink:href="#DejaVuSans-72" x="135.986328"/>
      <use xlink:href="#DejaVuSans-6d" x="175.349609"/>
      <use xlink:href="#DejaVuSans-61" x="272.761719"/>
      <use xlink:href="#DejaVuSans-6c" x="334.041016"/>
      <use xlink:href="#DejaVuSans-69" x="361.824219"/>
      <use xlink:href="#DejaVuSans-73" x="389.607422"/>
      <use xlink:href="#DejaVuSans-65" x="441.707031"/>
      <use xlink:href="#DejaVuSans-64" x="503.230469"/>
     </g>
    </g>
   </g>
  </g>
  <g id="axes_2">
   <g id="patch_110">
    <path d="M 331.203125 241.478125 
L 561.358125 241.478125 
L 561.358125 22.318125 
L 331.203125 22.318125 
z
" style="fill: #ffffff"/>
   </g>
   <g id="PolyCollection_1">
    <defs>
     <path id="mf2c07b53c9" d="M 345.662903 -37.557421 
L 345.662903 -37.55625 
L 346.694228 -37.55625 
L 347.725553 -37.55625 
L 348.756877 -37.55625 
L 349.788202 -37.55625 
L 350.819527 -37.55625 
L 351.850852 -37.55625 
L 352.882177 -37.55625 
L 353.913501 -37.55625 
L 354.944826 -37.55625 
L 355.976151 -37.55625 
L 357.007476 -37.55625 
L 358.0388 -37.55625 
L 359.070125 -37.55625 
L 360.10145 -37.55625 
L 361.132775 -37.55625 
L 362.1641 -37.55625 
L 363.195424 -37.55625 
L 364.226749 -37.55625 
L 365.258074 -37.55625 
L 366.289399 -37.55625 
L 367.320723 -37.55625 
L 368.352048 -37.55625 
L 369.383373 -37.55625 
L 370.414698 -37.55625 
L 371.446023 -37.55625 
L 372.477347 -37.55625 
L 373.508672 -37.55625 
L 374.539997 -37.55625 
L 375.571322 -37.55625 
L 376.602646 -37.55625 
L 377.633971 -37.55625 
L 378.665296 -37.55625 
L 379.696621 -37.55625 
L 380.727946 -37.55625 
L 381.75927 -37.55625 
L 382.790595 -37.55625 
L 383.82192 -37.55625 
L 384.853245 -37.55625 
L 385.884569 -37.55625 
L 386.915894 -37.55625 
L 387.947219 -37.55625 
L 388.978544 -37.55625 
L 390.009869 -37.55625 
L 391.041193 -37.55625 
L 392.072518 -37.55625 
L 393.103843 -37.55625 
L 394.135168 -37.55625 
L 395.166493 -37.55625 
L 396.197817 -37.55625 
L 397.229142 -37.55625 
L 398.260467 -37.55625 
L 399.291792 -37.55625 
L 400.323116 -37.55625 
L 401.354441 -37.55625 
L 402.385766 -37.55625 
L 403.417091 -37.55625 
L 404.448416 -37.55625 
L 405.47974 -37.55625 
L 406.511065 -37.55625 
L 407.54239 -37.55625 
L 408.573715 -37.55625 
L 409.605039 -37.55625 
L 410.636364 -37.55625 
L 411.667689 -37.55625 
L 412.699014 -37.55625 
L 413.730339 -37.55625 
L 414.761663 -37.55625 
L 415.792988 -37.55625 
L 416.824313 -37.55625 
L 417.855638 -37.55625 
L 418.886962 -37.55625 
L 419.918287 -37.55625 
L 420.949612 -37.55625 
L 421.980937 -37.55625 
L 423.012262 -37.55625 
L 424.043586 -37.55625 
L 425.074911 -37.55625 
L 426.106236 -37.55625 
L 427.137561 -37.55625 
L 428.168885 -37.55625 
L 429.20021 -37.55625 
L 430.231535 -37.55625 
L 431.26286 -37.55625 
L 432.294185 -37.55625 
L 433.325509 -37.55625 
L 434.356834 -37.55625 
L 435.388159 -37.55625 
L 436.419484 -37.55625 
L 437.450808 -37.55625 
L 438.482133 -37.55625 
L 439.513458 -37.55625 
L 440.544783 -37.55625 
L 441.576108 -37.55625 
L 442.607432 -37.55625 
L 443.638757 -37.55625 
L 444.670082 -37.55625 
L 445.701407 -37.55625 
L 446.732731 -37.55625 
L 447.764056 -37.55625 
L 448.795381 -37.55625 
L 449.826706 -37.55625 
L 450.858031 -37.55625 
L 451.889355 -37.55625 
L 452.92068 -37.55625 
L 453.952005 -37.55625 
L 454.98333 -37.55625 
L 456.014654 -37.55625 
L 457.045979 -37.55625 
L 458.077304 -37.55625 
L 459.108629 -37.55625 
L 460.139954 -37.55625 
L 461.171278 -37.55625 
L 462.202603 -37.55625 
L 463.233928 -37.55625 
L 464.265253 -37.55625 
L 465.296577 -37.55625 
L 466.327902 -37.55625 
L 467.359227 -37.55625 
L 468.390552 -37.55625 
L 469.421877 -37.55625 
L 470.453201 -37.55625 
L 471.484526 -37.55625 
L 472.515851 -37.55625 
L 473.547176 -37.55625 
L 474.5785 -37.55625 
L 475.609825 -37.55625 
L 476.64115 -37.55625 
L 477.672475 -37.55625 
L 478.7038 -37.55625 
L 479.735124 -37.55625 
L 480.766449 -37.55625 
L 481.797774 -37.55625 
L 482.829099 -37.55625 
L 483.860423 -37.55625 
L 484.891748 -37.55625 
L 485.923073 -37.55625 
L 486.954398 -37.55625 
L 487.985723 -37.55625 
L 489.017047 -37.55625 
L 490.048372 -37.55625 
L 491.079697 -37.55625 
L 492.111022 -37.55625 
L 493.142346 -37.55625 
L 494.173671 -37.55625 
L 495.204996 -37.55625 
L 496.236321 -37.55625 
L 497.267646 -37.55625 
L 498.29897 -37.55625 
L 499.330295 -37.55625 
L 500.36162 -37.55625 
L 501.392945 -37.55625 
L 502.424269 -37.55625 
L 503.455594 -37.55625 
L 504.486919 -37.55625 
L 505.518244 -37.55625 
L 506.549569 -37.55625 
L 507.580893 -37.55625 
L 508.612218 -37.55625 
L 509.643543 -37.55625 
L 510.674868 -37.55625 
L 511.706192 -37.55625 
L 512.737517 -37.55625 
L 513.768842 -37.55625 
L 514.800167 -37.55625 
L 515.831492 -37.55625 
L 516.862816 -37.55625 
L 517.894141 -37.55625 
L 518.925466 -37.55625 
L 519.956791 -37.55625 
L 520.988116 -37.55625 
L 522.01944 -37.55625 
L 523.050765 -37.55625 
L 524.08209 -37.55625 
L 525.113415 -37.55625 
L 526.144739 -37.55625 
L 527.176064 -37.55625 
L 528.207389 -37.55625 
L 529.238714 -37.55625 
L 530.270039 -37.55625 
L 531.301363 -37.55625 
L 532.332688 -37.55625 
L 533.364013 -37.55625 
L 534.395338 -37.55625 
L 535.426662 -37.55625 
L 536.457987 -37.55625 
L 537.489312 -37.55625 
L 538.520637 -37.55625 
L 539.551962 -37.55625 
L 540.583286 -37.55625 
L 541.614611 -37.55625 
L 542.645936 -37.55625 
L 543.677261 -37.55625 
L 544.708585 -37.55625 
L 545.73991 -37.55625 
L 546.771235 -37.55625 
L 547.80256 -37.55625 
L 548.833885 -37.55625 
L 549.865209 -37.55625 
L 550.896534 -37.55625 
L 550.896534 -37.557326 
L 550.896534 -37.557326 
L 549.865209 -37.561574 
L 548.833885 -37.574818 
L 547.80256 -37.601912 
L 546.771235 -37.635418 
L 545.73991 -37.653026 
L 544.708585 -37.639656 
L 543.677261 -37.606931 
L 542.645936 -37.577963 
L 541.614611 -37.562808 
L 540.583286 -37.557647 
L 539.551962 -37.55646 
L 538.520637 -37.556272 
L 537.489312 -37.556252 
L 536.457987 -37.55625 
L 535.426662 -37.55625 
L 534.395338 -37.55625 
L 533.364013 -37.55625 
L 532.332688 -37.55625 
L 531.301363 -37.55625 
L 530.270039 -37.55625 
L 529.238714 -37.556251 
L 528.207389 -37.556259 
L 527.176064 -37.556342 
L 526.144739 -37.556952 
L 525.113415 -37.560021 
L 524.08209 -37.570529 
L 523.050765 -37.594376 
L 522.01944 -37.628025 
L 520.988116 -37.651549 
L 519.956791 -37.645748 
L 518.925466 -37.617251 
L 517.894141 -37.593001 
L 516.862816 -37.593741 
L 515.831492 -37.620374 
L 514.800167 -37.656948 
L 513.768842 -37.689486 
L 512.737517 -37.728111 
L 511.706192 -37.790175 
L 510.674868 -37.858328 
L 509.643543 -37.888419 
L 508.612218 -37.861847 
L 507.580893 -37.805532 
L 506.549569 -37.761435 
L 505.518244 -37.74604 
L 504.486919 -37.740727 
L 503.455594 -37.720752 
L 502.424269 -37.687134 
L 501.392945 -37.66546 
L 500.36162 -37.675187 
L 499.330295 -37.711932 
L 498.29897 -37.76634 
L 497.267646 -37.841246 
L 496.236321 -37.94055 
L 495.204996 -38.050727 
L 494.173671 -38.129569 
L 493.142346 -38.129879 
L 492.111022 -38.056695 
L 491.079697 -37.971515 
L 490.048372 -37.925378 
L 489.017047 -37.920288 
L 487.985723 -37.937403 
L 486.954398 -37.967759 
L 485.923073 -38.017974 
L 484.891748 -38.110066 
L 483.860423 -38.261082 
L 482.829099 -38.442449 
L 481.797774 -38.583528 
L 480.766449 -38.648257 
L 479.735124 -38.680701 
L 478.7038 -38.733121 
L 477.672475 -38.786583 
L 476.64115 -38.802758 
L 475.609825 -38.81517 
L 474.5785 -38.8815 
L 473.547176 -38.991148 
L 472.515851 -39.113956 
L 471.484526 -39.254115 
L 470.453201 -39.381287 
L 469.421877 -39.441781 
L 468.390552 -39.487844 
L 467.359227 -39.651458 
L 466.327902 -39.972286 
L 465.296577 -40.364342 
L 464.265253 -40.736307 
L 463.233928 -41.059915 
L 462.202603 -41.309743 
L 461.171278 -41.415061 
L 460.139954 -41.352546 
L 459.108629 -41.244552 
L 458.077304 -41.305153 
L 457.045979 -41.700274 
L 456.014654 -42.416498 
L 454.98333 -43.231572 
L 453.952005 -43.904806 
L 452.92068 -44.431285 
L 451.889355 -45.007737 
L 450.858031 -45.741208 
L 449.826706 -46.508759 
L 448.795381 -47.106839 
L 447.764056 -47.435293 
L 446.732731 -47.522187 
L 445.701407 -47.497903 
L 444.670082 -47.614755 
L 443.638757 -48.155786 
L 442.607432 -49.207665 
L 441.576108 -50.552454 
L 440.544783 -51.89752 
L 439.513458 -53.295376 
L 438.482133 -55.232915 
L 437.450808 -58.208224 
L 436.419484 -62.224574 
L 435.388159 -66.720099 
L 434.356834 -71.19326 
L 433.325509 -75.93132 
L 432.294185 -81.8097 
L 431.26286 -89.527317 
L 430.231535 -99.496191 
L 429.20021 -112.361958 
L 428.168885 -129.038494 
L 427.137561 -149.575108 
L 426.106236 -171.552836 
L 425.074911 -189.694809 
L 424.043586 -198.398943 
L 423.012262 -196.623222 
L 421.980937 -190.521331 
L 420.949612 -189.838348 
L 419.918287 -200.368553 
L 418.886962 -219.264192 
L 417.855638 -237.462322 
L 416.824313 -246.28006 
L 415.792988 -241.987611 
L 414.761663 -226.117695 
L 413.730339 -203.298434 
L 412.699014 -178.549475 
L 411.667689 -155.364745 
L 410.636364 -135.269268 
L 409.605039 -118.312202 
L 408.573715 -103.999805 
L 407.54239 -92.20023 
L 406.511065 -83.010457 
L 405.47974 -76.061915 
L 404.448416 -70.527681 
L 403.417091 -65.646188 
L 402.385766 -61.139133 
L 401.354441 -57.236561 
L 400.323116 -54.186825 
L 399.291792 -51.769604 
L 398.260467 -49.527979 
L 397.229142 -47.390016 
L 396.197817 -45.689827 
L 395.166493 -44.61935 
L 394.135168 -43.968311 
L 393.103843 -43.362249 
L 392.072518 -42.592434 
L 391.041193 -41.734619 
L 390.009869 -40.989875 
L 388.978544 -40.426971 
L 387.947219 -39.950575 
L 386.915894 -39.525116 
L 385.884569 -39.255996 
L 384.853245 -39.175023 
L 383.82192 -39.149812 
L 382.790595 -39.09463 
L 381.75927 -39.059716 
L 380.727946 -39.058872 
L 379.696621 -39.02175 
L 378.665296 -38.931783 
L 377.633971 -38.836671 
L 376.602646 -38.748293 
L 375.571322 -38.654614 
L 374.539997 -38.574927 
L 373.508672 -38.513574 
L 372.477347 -38.422304 
L 371.446023 -38.2756 
L 370.414698 -38.12522 
L 369.383373 -38.040127 
L 368.352048 -38.034748 
L 367.320723 -38.058061 
L 366.289399 -38.03468 
L 365.258074 -37.939661 
L 364.226749 -37.828762 
L 363.195424 -37.775901 
L 362.1641 -37.794352 
L 361.132775 -37.829571 
L 360.10145 -37.823734 
L 359.070125 -37.779811 
L 358.0388 -37.748846 
L 357.007476 -37.755069 
L 355.976151 -37.766393 
L 354.944826 -37.753126 
L 353.913501 -37.734678 
L 352.882177 -37.738454 
L 351.850852 -37.748291 
L 350.819527 -37.728165 
L 349.788202 -37.674416 
L 348.756877 -37.616463 
L 347.725553 -37.578669 
L 346.694228 -37.562293 
L 345.662903 -37.557421 
z
" style="stroke: #0000ff"/>
    </defs>
    <g clip-path="url(#pcda6d1ae21)">
     <use xlink:href="#mf2c07b53c9" x="0" y="279.034375" style="fill: #0000ff; fill-opacity: 0.25; stroke: #0000ff"/>
    </g>
   </g>
   <g id="PolyCollection_2">
    <defs>
     <path id="m014799a26a" d="M 341.664716 -37.557206 
L 341.664716 -37.55625 
L 342.461292 -37.55625 
L 343.257868 -37.55625 
L 344.054444 -37.55625 
L 344.85102 -37.55625 
L 345.647596 -37.55625 
L 346.444172 -37.55625 
L 347.240748 -37.55625 
L 348.037324 -37.55625 
L 348.8339 -37.55625 
L 349.630476 -37.55625 
L 350.427052 -37.55625 
L 351.223628 -37.55625 
L 352.020204 -37.55625 
L 352.81678 -37.55625 
L 353.613356 -37.55625 
L 354.409932 -37.55625 
L 355.206508 -37.55625 
L 356.003084 -37.55625 
L 356.79966 -37.55625 
L 357.596236 -37.55625 
L 358.392812 -37.55625 
L 359.189388 -37.55625 
L 359.985964 -37.55625 
L 360.782541 -37.55625 
L 361.579117 -37.55625 
L 362.375693 -37.55625 
L 363.172269 -37.55625 
L 363.968845 -37.55625 
L 364.765421 -37.55625 
L 365.561997 -37.55625 
L 366.358573 -37.55625 
L 367.155149 -37.55625 
L 367.951725 -37.55625 
L 368.748301 -37.55625 
L 369.544877 -37.55625 
L 370.341453 -37.55625 
L 371.138029 -37.55625 
L 371.934605 -37.55625 
L 372.731181 -37.55625 
L 373.527757 -37.55625 
L 374.324333 -37.55625 
L 375.120909 -37.55625 
L 375.917485 -37.55625 
L 376.714061 -37.55625 
L 377.510637 -37.55625 
L 378.307213 -37.55625 
L 379.103789 -37.55625 
L 379.900365 -37.55625 
L 380.696941 -37.55625 
L 381.493517 -37.55625 
L 382.290093 -37.55625 
L 383.086669 -37.55625 
L 383.883245 -37.55625 
L 384.679821 -37.55625 
L 385.476397 -37.55625 
L 386.272973 -37.55625 
L 387.069549 -37.55625 
L 387.866125 -37.55625 
L 388.662701 -37.55625 
L 389.459277 -37.55625 
L 390.255853 -37.55625 
L 391.052429 -37.55625 
L 391.849005 -37.55625 
L 392.645582 -37.55625 
L 393.442158 -37.55625 
L 394.238734 -37.55625 
L 395.03531 -37.55625 
L 395.831886 -37.55625 
L 396.628462 -37.55625 
L 397.425038 -37.55625 
L 398.221614 -37.55625 
L 399.01819 -37.55625 
L 399.814766 -37.55625 
L 400.611342 -37.55625 
L 401.407918 -37.55625 
L 402.204494 -37.55625 
L 403.00107 -37.55625 
L 403.797646 -37.55625 
L 404.594222 -37.55625 
L 405.390798 -37.55625 
L 406.187374 -37.55625 
L 406.98395 -37.55625 
L 407.780526 -37.55625 
L 408.577102 -37.55625 
L 409.373678 -37.55625 
L 410.170254 -37.55625 
L 410.96683 -37.55625 
L 411.763406 -37.55625 
L 412.559982 -37.55625 
L 413.356558 -37.55625 
L 414.153134 -37.55625 
L 414.94971 -37.55625 
L 415.746286 -37.55625 
L 416.542862 -37.55625 
L 417.339438 -37.55625 
L 418.136014 -37.55625 
L 418.93259 -37.55625 
L 419.729166 -37.55625 
L 420.525742 -37.55625 
L 421.322318 -37.55625 
L 422.118894 -37.55625 
L 422.91547 -37.55625 
L 423.712046 -37.55625 
L 424.508623 -37.55625 
L 425.305199 -37.55625 
L 426.101775 -37.55625 
L 426.898351 -37.55625 
L 427.694927 -37.55625 
L 428.491503 -37.55625 
L 429.288079 -37.55625 
L 430.084655 -37.55625 
L 430.881231 -37.55625 
L 431.677807 -37.55625 
L 432.474383 -37.55625 
L 433.270959 -37.55625 
L 434.067535 -37.55625 
L 434.864111 -37.55625 
L 435.660687 -37.55625 
L 436.457263 -37.55625 
L 437.253839 -37.55625 
L 438.050415 -37.55625 
L 438.846991 -37.55625 
L 439.643567 -37.55625 
L 440.440143 -37.55625 
L 441.236719 -37.55625 
L 442.033295 -37.55625 
L 442.829871 -37.55625 
L 443.626447 -37.55625 
L 444.423023 -37.55625 
L 445.219599 -37.55625 
L 446.016175 -37.55625 
L 446.812751 -37.55625 
L 447.609327 -37.55625 
L 448.405903 -37.55625 
L 449.202479 -37.55625 
L 449.999055 -37.55625 
L 450.795631 -37.55625 
L 451.592207 -37.55625 
L 452.388783 -37.55625 
L 453.185359 -37.55625 
L 453.981935 -37.55625 
L 454.778511 -37.55625 
L 455.575087 -37.55625 
L 456.371664 -37.55625 
L 457.16824 -37.55625 
L 457.964816 -37.55625 
L 458.761392 -37.55625 
L 459.557968 -37.55625 
L 460.354544 -37.55625 
L 461.15112 -37.55625 
L 461.947696 -37.55625 
L 462.744272 -37.55625 
L 463.540848 -37.55625 
L 464.337424 -37.55625 
L 465.134 -37.55625 
L 465.930576 -37.55625 
L 466.727152 -37.55625 
L 467.523728 -37.55625 
L 468.320304 -37.55625 
L 469.11688 -37.55625 
L 469.913456 -37.55625 
L 470.710032 -37.55625 
L 471.506608 -37.55625 
L 472.303184 -37.55625 
L 473.09976 -37.55625 
L 473.896336 -37.55625 
L 474.692912 -37.55625 
L 475.489488 -37.55625 
L 476.286064 -37.55625 
L 477.08264 -37.55625 
L 477.879216 -37.55625 
L 478.675792 -37.55625 
L 479.472368 -37.55625 
L 480.268944 -37.55625 
L 481.06552 -37.55625 
L 481.862096 -37.55625 
L 482.658672 -37.55625 
L 483.455248 -37.55625 
L 484.251824 -37.55625 
L 485.0484 -37.55625 
L 485.844976 -37.55625 
L 486.641552 -37.55625 
L 487.438129 -37.55625 
L 488.234705 -37.55625 
L 489.031281 -37.55625 
L 489.827857 -37.55625 
L 490.624433 -37.55625 
L 491.421009 -37.55625 
L 492.217585 -37.55625 
L 493.014161 -37.55625 
L 493.810737 -37.55625 
L 494.607313 -37.55625 
L 495.403889 -37.55625 
L 496.200465 -37.55625 
L 496.997041 -37.55625 
L 497.793617 -37.55625 
L 498.590193 -37.55625 
L 499.386769 -37.55625 
L 500.183345 -37.55625 
L 500.183345 -37.557206 
L 500.183345 -37.557206 
L 499.386769 -37.559221 
L 498.590193 -37.564085 
L 497.793617 -37.573781 
L 496.997041 -37.58953 
L 496.200465 -37.609849 
L 495.403889 -37.629488 
L 494.607313 -37.641151 
L 493.810737 -37.639751 
L 493.014161 -37.625924 
L 492.217585 -37.605573 
L 491.421009 -37.585873 
L 490.624433 -37.571344 
L 489.827857 -37.562775 
L 489.031281 -37.558643 
L 488.234705 -37.556995 
L 487.438129 -37.556447 
L 486.641552 -37.556294 
L 485.844976 -37.556258 
L 485.0484 -37.556251 
L 484.251824 -37.55625 
L 483.455248 -37.55625 
L 482.658672 -37.55625 
L 481.862096 -37.55625 
L 481.06552 -37.55625 
L 480.268944 -37.55625 
L 479.472368 -37.55625 
L 478.675792 -37.55625 
L 477.879216 -37.55625 
L 477.08264 -37.55625 
L 476.286064 -37.55625 
L 475.489488 -37.556253 
L 474.692912 -37.556269 
L 473.896336 -37.556348 
L 473.09976 -37.556697 
L 472.303184 -37.558006 
L 471.506608 -37.562223 
L 470.710032 -37.57387 
L 469.913456 -37.601461 
L 469.11688 -37.657411 
L 468.320304 -37.754286 
L 467.523728 -37.897126 
L 466.727152 -38.076532 
L 465.930576 -38.270551 
L 465.134 -38.458176 
L 464.337424 -38.634828 
L 463.540848 -38.815239 
L 462.744272 -39.021634 
L 461.947696 -39.271205 
L 461.15112 -39.574361 
L 460.354544 -39.938925 
L 459.557968 -40.370748 
L 458.761392 -40.872202 
L 457.964816 -41.445245 
L 457.16824 -42.097265 
L 456.371664 -42.841733 
L 455.575087 -43.690148 
L 454.778511 -44.639074 
L 453.981935 -45.662524 
L 453.185359 -46.722782 
L 452.388783 -47.799933 
L 451.592207 -48.916344 
L 450.795631 -50.130116 
L 449.999055 -51.503032 
L 449.202479 -53.073578 
L 448.405903 -54.8518 
L 447.609327 -56.826679 
L 446.812751 -58.975894 
L 446.016175 -61.281187 
L 445.219599 -63.748475 
L 444.423023 -66.414675 
L 443.626447 -69.322781 
L 442.829871 -72.473536 
L 442.033295 -75.792478 
L 441.236719 -79.151779 
L 440.440143 -82.446134 
L 439.643567 -85.670907 
L 438.846991 -88.939047 
L 438.050415 -92.417358 
L 437.253839 -96.221937 
L 436.457263 -100.337698 
L 435.660687 -104.608187 
L 434.864111 -108.800433 
L 434.067535 -112.709989 
L 433.270959 -116.253527 
L 432.474383 -119.503438 
L 431.677807 -122.640395 
L 430.881231 -125.838153 
L 430.084655 -129.147053 
L 429.288079 -132.460299 
L 428.491503 -135.587064 
L 427.694927 -138.368474 
L 426.898351 -140.749088 
L 426.101775 -142.770006 
L 425.305199 -144.513275 
L 424.508623 -146.049105 
L 423.712046 -147.41515 
L 422.91547 -148.618216 
L 422.118894 -149.634758 
L 421.322318 -150.410619 
L 420.525742 -150.877834 
L 419.729166 -150.981095 
L 418.93259 -150.68298 
L 418.136014 -149.948927 
L 417.339438 -148.754357 
L 416.542862 -147.122969 
L 415.746286 -145.13255 
L 414.94971 -142.84332 
L 414.153134 -140.22049 
L 413.356558 -137.163038 
L 412.559982 -133.625133 
L 411.763406 -129.695085 
L 410.96683 -125.556178 
L 410.170254 -121.397152 
L 409.373678 -117.362808 
L 408.577102 -113.543171 
L 407.780526 -109.956956 
L 406.98395 -106.536245 
L 406.187374 -103.154926 
L 405.390798 -99.701077 
L 404.594222 -96.139153 
L 403.797646 -92.516656 
L 403.00107 -88.924569 
L 402.204494 -85.454833 
L 401.407918 -82.180718 
L 400.611342 -79.145843 
L 399.814766 -76.339407 
L 399.01819 -73.675959 
L 398.221614 -71.027255 
L 397.425038 -68.307041 
L 396.628462 -65.53414 
L 395.831886 -62.807968 
L 395.03531 -60.226862 
L 394.238734 -57.836442 
L 393.442158 -55.642103 
L 392.645582 -53.640641 
L 391.849005 -51.824995 
L 391.052429 -50.173171 
L 390.255853 -48.65574 
L 389.459277 -47.261062 
L 388.662701 -46.004935 
L 387.866125 -44.908929 
L 387.069549 -43.971547 
L 386.272973 -43.164524 
L 385.476397 -42.455556 
L 384.679821 -41.82913 
L 383.883245 -41.283312 
L 383.086669 -40.810866 
L 382.290093 -40.389837 
L 381.493517 -39.994694 
L 380.696941 -39.615306 
L 379.900365 -39.26419 
L 379.103789 -38.965132 
L 378.307213 -38.732861 
L 377.510637 -38.560591 
L 376.714061 -38.425062 
L 375.917485 -38.303094 
L 375.120909 -38.184285 
L 374.324333 -38.070571 
L 373.527757 -37.967192 
L 372.731181 -37.876101 
L 371.934605 -37.797116 
L 371.138029 -37.732327 
L 370.341453 -37.686443 
L 369.544877 -37.661781 
L 368.748301 -37.653569 
L 367.951725 -37.651077 
L 367.155149 -37.644003 
L 366.358573 -37.628423 
L 365.561997 -37.607494 
L 364.765421 -37.587313 
L 363.968845 -37.572261 
L 363.172269 -37.563257 
L 362.375693 -37.558853 
L 361.579117 -37.55707 
L 360.782541 -37.556469 
L 359.985964 -37.5563 
L 359.189388 -37.55626 
L 358.392812 -37.556252 
L 357.596236 -37.55625 
L 356.79966 -37.556251 
L 356.003084 -37.556258 
L 355.206508 -37.556294 
L 354.409932 -37.556447 
L 353.613356 -37.556995 
L 352.81678 -37.558643 
L 352.020204 -37.562775 
L 351.223628 -37.571344 
L 350.427052 -37.585873 
L 349.630476 -37.605573 
L 348.8339 -37.625924 
L 348.037324 -37.639751 
L 347.240748 -37.641151 
L 346.444172 -37.629488 
L 345.647596 -37.609849 
L 344.85102 -37.58953 
L 344.054444 -37.573781 
L 343.257868 -37.564085 
L 342.461292 -37.559221 
L 341.664716 -37.557206 
z
" style="stroke: #ff0000"/>
    </defs>
    <g clip-path="url(#pcda6d1ae21)">
     <use xlink:href="#m014799a26a" x="0" y="279.034375" style="fill: #ff0000; fill-opacity: 0.25; stroke: #ff0000"/>
    </g>
   </g>
   <g id="matplotlib.axis_3">
    <g id="xtick_7">
     <g id="line2d_15">
      <g>
       <use xlink:href="#m53b04d3809" x="350.371223" y="241.478125" style="stroke: #000000; stroke-width: 0.8"/>
      </g>
     </g>
     <g id="text_20">
      <!-- −5.0 -->
      <g transform="translate(338.229816 256.076563) scale(0.1 -0.1)">
       <use xlink:href="#DejaVuSans-2212"/>
       <use xlink:href="#DejaVuSans-35" x="83.789062"/>
       <use xlink:href="#DejaVuSans-2e" x="147.412109"/>
       <use xlink:href="#DejaVuSans-30" x="179.199219"/>
      </g>
     </g>
    </g>
    <g id="xtick_8">
     <g id="line2d_16">
      <g>
       <use xlink:href="#m53b04d3809" x="385.647627" y="241.478125" style="stroke: #000000; stroke-width: 0.8"/>
      </g>
     </g>
     <g id="text_21">
      <!-- −2.5 -->
      <g transform="translate(373.50622 256.076563) scale(0.1 -0.1)">
       <use xlink:href="#DejaVuSans-2212"/>
       <use xlink:href="#DejaVuSans-32" x="83.789062"/>
       <use xlink:href="#DejaVuSans-2e" x="147.412109"/>
       <use xlink:href="#DejaVuSans-35" x="179.199219"/>
      </g>
     </g>
    </g>
    <g id="xtick_9">
     <g id="line2d_17">
      <g>
       <use xlink:href="#m53b04d3809" x="420.92403" y="241.478125" style="stroke: #000000; stroke-width: 0.8"/>
      </g>
     </g>
     <g id="text_22">
      <!-- 0.0 -->
      <g transform="translate(412.972468 256.076563) scale(0.1 -0.1)">
       <use xlink:href="#DejaVuSans-30"/>
       <use xlink:href="#DejaVuSans-2e" x="63.623047"/>
       <use xlink:href="#DejaVuSans-30" x="95.410156"/>
      </g>
     </g>
    </g>
    <g id="xtick_10">
     <g id="line2d_18">
      <g>
       <use xlink:href="#m53b04d3809" x="456.200434" y="241.478125" style="stroke: #000000; stroke-width: 0.8"/>
      </g>
     </g>
     <g id="text_23">
      <!-- 2.5 -->
      <g transform="translate(448.248872 256.076563) scale(0.1 -0.1)">
       <use xlink:href="#DejaVuSans-32"/>
       <use xlink:href="#DejaVuSans-2e" x="63.623047"/>
       <use xlink:href="#DejaVuSans-35" x="95.410156"/>
      </g>
     </g>
    </g>
    <g id="xtick_11">
     <g id="line2d_19">
      <g>
       <use xlink:href="#m53b04d3809" x="491.476838" y="241.478125" style="stroke: #000000; stroke-width: 0.8"/>
      </g>
     </g>
     <g id="text_24">
      <!-- 5.0 -->
      <g transform="translate(483.525276 256.076563) scale(0.1 -0.1)">
       <use xlink:href="#DejaVuSans-35"/>
       <use xlink:href="#DejaVuSans-2e" x="63.623047"/>
       <use xlink:href="#DejaVuSans-30" x="95.410156"/>
      </g>
     </g>
    </g>
    <g id="xtick_12">
     <g id="line2d_20">
      <g>
       <use xlink:href="#m53b04d3809" x="526.753242" y="241.478125" style="stroke: #000000; stroke-width: 0.8"/>
      </g>
     </g>
     <g id="text_25">
      <!-- 7.5 -->
      <g transform="translate(518.80168 256.076563) scale(0.1 -0.1)">
       <use xlink:href="#DejaVuSans-37"/>
       <use xlink:href="#DejaVuSans-2e" x="63.623047"/>
       <use xlink:href="#DejaVuSans-35" x="95.410156"/>
      </g>
     </g>
    </g>
    <g id="text_26">
     <!-- log2FC Value -->
     <g transform="translate(413.789219 269.754687) scale(0.1 -0.1)">
      <use xlink:href="#DejaVuSans-6c"/>
      <use xlink:href="#DejaVuSans-6f" x="27.783203"/>
      <use xlink:href="#DejaVuSans-67" x="88.964844"/>
      <use xlink:href="#DejaVuSans-32" x="152.441406"/>
      <use xlink:href="#DejaVuSans-46" x="216.064453"/>
      <use xlink:href="#DejaVuSans-43" x="273.583984"/>
      <use xlink:href="#DejaVuSans-20" x="343.408203"/>
      <use xlink:href="#DejaVuSans-56" x="375.195312"/>
      <use xlink:href="#DejaVuSans-61" x="435.853516"/>
      <use xlink:href="#DejaVuSans-6c" x="497.132812"/>
      <use xlink:href="#DejaVuSans-75" x="524.916016"/>
      <use xlink:href="#DejaVuSans-65" x="588.294922"/>
     </g>
    </g>
   </g>
   <g id="matplotlib.axis_4">
    <g id="ytick_9">
     <g id="line2d_21">
      <g>
       <use xlink:href="#m6e0839b678" x="331.203125" y="241.478125" style="stroke: #000000; stroke-width: 0.8"/>
      </g>
     </g>
     <g id="text_27">
      <!-- 0.0 -->
      <g transform="translate(308.3 245.277344) scale(0.1 -0.1)">
       <use xlink:href="#DejaVuSans-30"/>
       <use xlink:href="#DejaVuSans-2e" x="63.623047"/>
       <use xlink:href="#DejaVuSans-30" x="95.410156"/>
      </g>
     </g>
    </g>
    <g id="ytick_10">
     <g id="line2d_22">
      <g>
       <use xlink:href="#m6e0839b678" x="331.203125" y="212.773066" style="stroke: #000000; stroke-width: 0.8"/>
      </g>
     </g>
     <g id="text_28">
      <!-- 0.1 -->
      <g transform="translate(308.3 216.572285) scale(0.1 -0.1)">
       <use xlink:href="#DejaVuSans-30"/>
       <use xlink:href="#DejaVuSans-2e" x="63.623047"/>
       <use xlink:href="#DejaVuSans-31" x="95.410156"/>
      </g>
     </g>
    </g>
    <g id="ytick_11">
     <g id="line2d_23">
      <g>
       <use xlink:href="#m6e0839b678" x="331.203125" y="184.068008" style="stroke: #000000; stroke-width: 0.8"/>
      </g>
     </g>
     <g id="text_29">
      <!-- 0.2 -->
      <g transform="translate(308.3 187.867226) scale(0.1 -0.1)">
       <use xlink:href="#DejaVuSans-30"/>
       <use xlink:href="#DejaVuSans-2e" x="63.623047"/>
       <use xlink:href="#DejaVuSans-32" x="95.410156"/>
      </g>
     </g>
    </g>
    <g id="ytick_12">
     <g id="line2d_24">
      <g>
       <use xlink:href="#m6e0839b678" x="331.203125" y="155.362949" style="stroke: #000000; stroke-width: 0.8"/>
      </g>
     </g>
     <g id="text_30">
      <!-- 0.3 -->
      <g transform="translate(308.3 159.162168) scale(0.1 -0.1)">
       <use xlink:href="#DejaVuSans-30"/>
       <use xlink:href="#DejaVuSans-2e" x="63.623047"/>
       <use xlink:href="#DejaVuSans-33" x="95.410156"/>
      </g>
     </g>
    </g>
    <g id="ytick_13">
     <g id="line2d_25">
      <g>
       <use xlink:href="#m6e0839b678" x="331.203125" y="126.65789" style="stroke: #000000; stroke-width: 0.8"/>
      </g>
     </g>
     <g id="text_31">
      <!-- 0.4 -->
      <g transform="translate(308.3 130.457109) scale(0.1 -0.1)">
       <defs>
        <path id="DejaVuSans-34" d="M 2419 4116 
L 825 1625 
L 2419 1625 
L 2419 4116 
z
M 2253 4666 
L 3047 4666 
L 3047 1625 
L 3713 1625 
L 3713 1100 
L 3047 1100 
L 3047 0 
L 2419 0 
L 2419 1100 
L 313 1100 
L 313 1709 
L 2253 4666 
z
" transform="scale(0.015625)"/>
       </defs>
       <use xlink:href="#DejaVuSans-30"/>
       <use xlink:href="#DejaVuSans-2e" x="63.623047"/>
       <use xlink:href="#DejaVuSans-34" x="95.410156"/>
      </g>
     </g>
    </g>
    <g id="ytick_14">
     <g id="line2d_26">
      <g>
       <use xlink:href="#m6e0839b678" x="331.203125" y="97.952831" style="stroke: #000000; stroke-width: 0.8"/>
      </g>
     </g>
     <g id="text_32">
      <!-- 0.5 -->
      <g transform="translate(308.3 101.75205) scale(0.1 -0.1)">
       <use xlink:href="#DejaVuSans-30"/>
       <use xlink:href="#DejaVuSans-2e" x="63.623047"/>
       <use xlink:href="#DejaVuSans-35" x="95.410156"/>
      </g>
     </g>
    </g>
    <g id="ytick_15">
     <g id="line2d_27">
      <g>
       <use xlink:href="#m6e0839b678" x="331.203125" y="69.247773" style="stroke: #000000; stroke-width: 0.8"/>
      </g>
     </g>
     <g id="text_33">
      <!-- 0.6 -->
      <g transform="translate(308.3 73.046991) scale(0.1 -0.1)">
       <defs>
        <path id="DejaVuSans-36" d="M 2113 2584 
Q 1688 2584 1439 2293 
Q 1191 2003 1191 1497 
Q 1191 994 1439 701 
Q 1688 409 2113 409 
Q 2538 409 2786 701 
Q 3034 994 3034 1497 
Q 3034 2003 2786 2293 
Q 2538 2584 2113 2584 
z
M 3366 4563 
L 3366 3988 
Q 3128 4100 2886 4159 
Q 2644 4219 2406 4219 
Q 1781 4219 1451 3797 
Q 1122 3375 1075 2522 
Q 1259 2794 1537 2939 
Q 1816 3084 2150 3084 
Q 2853 3084 3261 2657 
Q 3669 2231 3669 1497 
Q 3669 778 3244 343 
Q 2819 -91 2113 -91 
Q 1303 -91 875 529 
Q 447 1150 447 2328 
Q 447 3434 972 4092 
Q 1497 4750 2381 4750 
Q 2619 4750 2861 4703 
Q 3103 4656 3366 4563 
z
" transform="scale(0.015625)"/>
       </defs>
       <use xlink:href="#DejaVuSans-30"/>
       <use xlink:href="#DejaVuSans-2e" x="63.623047"/>
       <use xlink:href="#DejaVuSans-36" x="95.410156"/>
      </g>
     </g>
    </g>
    <g id="ytick_16">
     <g id="line2d_28">
      <g>
       <use xlink:href="#m6e0839b678" x="331.203125" y="40.542714" style="stroke: #000000; stroke-width: 0.8"/>
      </g>
     </g>
     <g id="text_34">
      <!-- 0.7 -->
      <g transform="translate(308.3 44.341933) scale(0.1 -0.1)">
       <use xlink:href="#DejaVuSans-30"/>
       <use xlink:href="#DejaVuSans-2e" x="63.623047"/>
       <use xlink:href="#DejaVuSans-37" x="95.410156"/>
      </g>
     </g>
    </g>
    <g id="text_35">
     <!-- Density -->
     <g transform="translate(302.220313 150.906719) rotate(-90) scale(0.1 -0.1)">
      <use xlink:href="#DejaVuSans-44"/>
      <use xlink:href="#DejaVuSans-65" x="77.001953"/>
      <use xlink:href="#DejaVuSans-6e" x="138.525391"/>
      <use xlink:href="#DejaVuSans-73" x="201.904297"/>
      <use xlink:href="#DejaVuSans-69" x="254.003906"/>
      <use xlink:href="#DejaVuSans-74" x="281.787109"/>
      <use xlink:href="#DejaVuSans-79" x="320.996094"/>
     </g>
    </g>
   </g>
   <g id="patch_111">
    <path d="M 331.203125 241.478125 
L 331.203125 22.318125 
" style="fill: none; stroke: #000000; stroke-width: 0.8; stroke-linejoin: miter; stroke-linecap: square"/>
   </g>
   <g id="patch_112">
    <path d="M 561.358125 241.478125 
L 561.358125 22.318125 
" style="fill: none; stroke: #000000; stroke-width: 0.8; stroke-linejoin: miter; stroke-linecap: square"/>
   </g>
   <g id="patch_113">
    <path d="M 331.203125 241.478125 
L 561.358125 241.478125 
" style="fill: none; stroke: #000000; stroke-width: 0.8; stroke-linejoin: miter; stroke-linecap: square"/>
   </g>
   <g id="patch_114">
    <path d="M 331.203125 22.318125 
L 561.358125 22.318125 
" style="fill: none; stroke: #000000; stroke-width: 0.8; stroke-linejoin: miter; stroke-linecap: square"/>
   </g>
   <g id="text_36">
    <!-- Original vs Normalised KDE -->
    <g transform="translate(364.055313 16.318125) scale(0.12 -0.12)">
     <defs>
      <path id="DejaVuSans-76" d="M 191 3500 
L 800 3500 
L 1894 563 
L 2988 3500 
L 3597 3500 
L 2284 0 
L 1503 0 
L 191 3500 
z
" transform="scale(0.015625)"/>
      <path id="DejaVuSans-4b" d="M 628 4666 
L 1259 4666 
L 1259 2694 
L 3353 4666 
L 4166 4666 
L 1850 2491 
L 4331 0 
L 3500 0 
L 1259 2247 
L 1259 0 
L 628 0 
L 628 4666 
z
" transform="scale(0.015625)"/>
      <path id="DejaVuSans-45" d="M 628 4666 
L 3578 4666 
L 3578 4134 
L 1259 4134 
L 1259 2753 
L 3481 2753 
L 3481 2222 
L 1259 2222 
L 1259 531 
L 3634 531 
L 3634 0 
L 628 0 
L 628 4666 
z
" transform="scale(0.015625)"/>
     </defs>
     <use xlink:href="#DejaVuSans-4f"/>
     <use xlink:href="#DejaVuSans-72" x="78.710938"/>
     <use xlink:href="#DejaVuSans-69" x="119.824219"/>
     <use xlink:href="#DejaVuSans-67" x="147.607422"/>
     <use xlink:href="#DejaVuSans-69" x="211.083984"/>
     <use xlink:href="#DejaVuSans-6e" x="238.867188"/>
     <use xlink:href="#DejaVuSans-61" x="302.246094"/>
     <use xlink:href="#DejaVuSans-6c" x="363.525391"/>
     <use xlink:href="#DejaVuSans-20" x="391.308594"/>
     <use xlink:href="#DejaVuSans-76" x="423.095703"/>
     <use xlink:href="#DejaVuSans-73" x="482.275391"/>
     <use xlink:href="#DejaVuSans-20" x="534.375"/>
     <use xlink:href="#DejaVuSans-4e" x="566.162109"/>
     <use xlink:href="#DejaVuSans-6f" x="640.966797"/>
     <use xlink:href="#DejaVuSans-72" x="702.148438"/>
     <use xlink:href="#DejaVuSans-6d" x="741.511719"/>
     <use xlink:href="#DejaVuSans-61" x="838.923828"/>
     <use xlink:href="#DejaVuSans-6c" x="900.203125"/>
     <use xlink:href="#DejaVuSans-69" x="927.986328"/>
     <use xlink:href="#DejaVuSans-73" x="955.769531"/>
     <use xlink:href="#DejaVuSans-65" x="1007.869141"/>
     <use xlink:href="#DejaVuSans-64" x="1069.392578"/>
     <use xlink:href="#DejaVuSans-20" x="1132.869141"/>
     <use xlink:href="#DejaVuSans-4b" x="1164.65625"/>
     <use xlink:href="#DejaVuSans-44" x="1230.232422"/>
     <use xlink:href="#DejaVuSans-45" x="1307.234375"/>
    </g>
   </g>
   <g id="legend_2">
    <g id="patch_115">
     <path d="M 465.68625 59.674375 
L 554.358125 59.674375 
Q 556.358125 59.674375 556.358125 57.674375 
L 556.358125 29.318125 
Q 556.358125 27.318125 554.358125 27.318125 
L 465.68625 27.318125 
Q 463.68625 27.318125 463.68625 29.318125 
L 463.68625 57.674375 
Q 463.68625 59.674375 465.68625 59.674375 
z
" style="fill: #ffffff; opacity: 0.8; stroke: #cccccc; stroke-linejoin: miter"/>
    </g>
    <g id="patch_116">
     <path d="M 467.68625 38.916563 
L 487.68625 38.916563 
L 487.68625 31.916563 
L 467.68625 31.916563 
z
" style="fill: #0000ff; fill-opacity: 0.25; stroke: #0000ff; stroke-linejoin: miter"/>
    </g>
    <g id="text_37">
     <!-- Original -->
     <g transform="translate(495.68625 38.916563) scale(0.1 -0.1)">
      <use xlink:href="#DejaVuSans-4f"/>
      <use xlink:href="#DejaVuSans-72" x="78.710938"/>
      <use xlink:href="#DejaVuSans-69" x="119.824219"/>
      <use xlink:href="#DejaVuSans-67" x="147.607422"/>
      <use xlink:href="#DejaVuSans-69" x="211.083984"/>
      <use xlink:href="#DejaVuSans-6e" x="238.867188"/>
      <use xlink:href="#DejaVuSans-61" x="302.246094"/>
      <use xlink:href="#DejaVuSans-6c" x="363.525391"/>
     </g>
    </g>
    <g id="patch_117">
     <path d="M 467.68625 53.594688 
L 487.68625 53.594688 
L 487.68625 46.594688 
L 467.68625 46.594688 
z
" style="fill: #ff0000; fill-opacity: 0.25; stroke: #ff0000; stroke-linejoin: miter"/>
    </g>
    <g id="text_38">
     <!-- Normalised -->
     <g transform="translate(495.68625 53.594688) scale(0.1 -0.1)">
      <use xlink:href="#DejaVuSans-4e"/>
      <use xlink:href="#DejaVuSans-6f" x="74.804688"/>
      <use xlink:href="#DejaVuSans-72" x="135.986328"/>
      <use xlink:href="#DejaVuSans-6d" x="175.349609"/>
      <use xlink:href="#DejaVuSans-61" x="272.761719"/>
      <use xlink:href="#DejaVuSans-6c" x="334.041016"/>
      <use xlink:href="#DejaVuSans-69" x="361.824219"/>
      <use xlink:href="#DejaVuSans-73" x="389.607422"/>
      <use xlink:href="#DejaVuSans-65" x="441.707031"/>
      <use xlink:href="#DejaVuSans-64" x="503.230469"/>
     </g>
    </g>
   </g>
  </g>
 </g>
 <defs>
  <clipPath id="p6224b43832">
   <rect x="53.328125" y="22.318125" width="230.155" height="219.16"/>
  </clipPath>
  <clipPath id="pcda6d1ae21">
   <rect x="331.203125" y="22.318125" width="230.155" height="219.16"/>
  </clipPath>
 </defs>
</svg>
